<svg xmlns="http://www.w3.org/2000/svg" viewBox="0 0 400 400" id="Team-Coding--Streamline-Free-Illustrations"><desc>Team Coding Streamline Illustration: https://streamlinehq.com</desc><g><g><g><path d="M17.1 88a12.28 12.28 0 0 1 0.8 1.46c5.22 11.24 10 22.62 15.52 33.6 1.28 2.4 2 7.54 4.56 8.16 4.28 -1.48 8.42 -3.62 13.1 -3.62 0.68 0 0.68 -0.66 0.82 -1.06a28 28 0 0 0 0.4 -5.62 44.42 44.42 0 0 0 -0.54 -14 2.96 2.96 0 0 1 -0.4 -2.14s-0.28 -2.36 -0.28 -3.76a8.9 8.9 0 0 0 -2.54 -3.88c-0.4 -0.4 -0.94 -0.8 -0.4 -1.46s1.2 -0.4 1.74 -0.14a7.76 7.76 0 0 1 3.34 3.88c0.28 0.14 0.42 0.14 0.68 0.28 1.1 0.72 1.54 1.7 3.08 2.94 3.88 1.2 8 1.86 11.9 3.08s6.7 4 10 5.88c0.4 0.26 0.94 0.8 0.66 1.34s-1.06 0.26 -1.46 0.14c-5.66 -2.62 -5.68 -4.7 -6.7 -2.42a45.5 45.5 0 0 1 -6.68 14c-2.98 3.34 -8.36 7.08 -7.5 14.18 0.68 5.62 0 11.1 -4.42 15.38 -0.52 0.54 -0.26 0.8 0 1.34 2.82 4.82 6 9.24 9.1 14a37 37 0 0 0 10.98 6.56c2 0.52 3.88 1.06 5.88 1.6 0.4 -0.14 0.4 -0.68 0.14 -1.48 -0.94 -3.2 -2 -6.56 -2.68 -9.76s-1.88 -7.1 -0.8 -10.7a19.76 19.76 0 0 1 1.88 -4.68 12.94 12.94 0 0 1 4 -8 43.72 43.72 0 0 1 23.16 -11.78l0 -0.26c-0.14 -1.62 0.66 -2.94 0.26 -4.56 -0.26 -1.06 -0.14 -2.26 1.2 -2.54s2 0.68 2.42 1.74a21.06 21.06 0 0 1 0.94 3.88 1.78 1.78 0 0 0 0.52 1.34 72.64 72.64 0 0 1 18.48 2.14c0.76 0 1 -0.48 0.96 -1.44a25.32 25.32 0 0 1 -0.4 -4.72 1.74 1.74 0 0 1 1.44 -1.74c1.48 -0.26 2.28 0.68 2.54 2a32.46 32.46 0 0 1 1.2 6.46 4 4 0 0 0 0.26 1.48c1.2 0.4 2.28 0.94 3.48 1.34a1.64 1.64 0 0 0 1.34 0.12 9.24 9.24 0 0 1 0.66 -1.2c0.14 -0.14 0.14 -0.26 0.28 -0.4 2.58 -5.8 2.16 -12.4 1.46 -18.74 0 -0.8 -0.26 -1.86 0.94 -2s1.34 0.8 1.48 1.6a42.68 42.68 0 0 1 0.8 10.84c-0.48 7.04 -1.74 6 -0.54 8.44a10.58 10.58 0 0 1 2.28 6.28c2.46 1.24 5.48 0.28 9.62 0.8 2 0.4 2 -0.4 1.62 -1.86 -0.14 -0.26 -0.84 -4.4 1.6 -4.7s2.14 1.88 2.28 3.36c0.4 2.14 0.26 4.28 2.54 5.88a2.26 2.26 0 0 1 0.94 1.34 2.6 2.6 0 0 1 1.34 2.28c-0.38 2.16 -3.2 2.94 -5.3 3.52 0.9 0.6 3.6 1.1 3.6 4.14 -0.18 2.46 -3.38 4.86 -7.62 4.14a20.62 20.62 0 0 0 -5.48 -0.12c-1.48 0.12 -2.96 0.4 -4.42 0.66 1.74 1.34 2.94 2.54 5.34 1.74a6 6 0 0 1 5.76 1.6 4.22 4.22 0 0 1 2.14 3.04 10.12 10.12 0 0 1 0 6.3c-0.14 0.66 -0.26 1.34 -0.4 1.86 0 0.9 -0.52 2.98 0.8 4.3a27.28 27.28 0 0 0 11.52 8.68 4 4 0 0 0 1.74 0.28c0.26 -0.54 -0.28 -1.08 -0.28 -1.62 0 -1.02 -0.78 -5.72 0 -8.28 0.28 -0.94 0.8 -1.74 1.88 -1.74s1.6 0.66 1.86 1.74c0.84 2.48 0 4.9 0.94 6.68 1.88 -2.54 3.62 -5.22 5.36 -7.76a0.14 0.14 0 0 1 0.14 -0.14 3.02 3.02 0 0 0 -0.68 -2 111.54 111.54 0 0 1 -7.08 -14.84c-0.14 0.92 0 1.2 -0.14 1.6 -0.4 1.2 -0.14 2.94 -2 3.08s-2.14 -1.48 -2.56 -2.82c-0.8 -2.54 -0.4 -5.34 -0.92 -8a2 2 0 0 1 1.06 -2.14 0.96 0.96 0 0 0 0.54 -0.26c-0.14 -0.4 -0.4 -0.94 -0.54 -1.34a22.7 22.7 0 0 1 -1.88 -10.7 10.38 10.38 0 0 0 -2.66 -8.7c-3.08 -3.2 -2.82 -7.36 -3.36 -11.24 -0.92 -6.68 -1.32 -13.52 -2 -20.34a9.04 9.04 0 0 0 -2.54 -5.48 30.62 30.62 0 0 1 0.4 3.74c0 2 -0.8 3.08 -2.4 3.08s-2.28 -1.2 -2.56 -2.8a37 37 0 0 1 -0.26 -3.76c-2.96 2.64 -6.62 3.86 -13.64 7.1a2.34 2.34 0 0 0 -0.68 0.94c-0.52 1.74 0.54 3.88 0.94 5.88a3.02 3.02 0 0 1 -2.28 3.74c-1.74 0.28 -3.06 -0.8 -3.34 -2.94s0.18 -4.38 -0.14 -5.34a59.58 59.58 0 0 1 -8.28 2.66 10.76 10.76 0 0 1 -6.84 -0.26 17.88 17.88 0 0 1 2 7.76c0.14 2.28 -0.8 3.48 -2.42 3.48s-2.66 -1.34 -2.8 -3.34a33.02 33.02 0 0 0 -0.54 -5.22 14.86 14.86 0 0 0 -3.88 -8.44c-11.64 -8.86 -8.62 -5.04 -17.66 -15.38 -0.38 -0.38 -0.58 -0.9 -1.2 -1.2 0.54 2.4 0.94 4.28 1.2 6.28a2.88 2.88 0 0 1 -2.14 3.48A2.46 2.46 0 0 1 90 91.6a35.58 35.58 0 0 1 -0.68 -7.76 1.54 1.54 0 0 1 1.34 -1.74c0.8 -0.12 1.08 -0.4 1.08 -0.66 -0.42 -0.4 -0.82 -0.94 -1.22 -1.34a13.28 13.28 0 0 1 -4.94 -4 6.96 6.96 0 0 0 -2.14 -0.52 4 4 0 0 1 -3.48 -1.88 8.52 8.52 0 0 1 -2.14 -3.08c-1.24 0 -1.22 0.14 -1.88 0.14 0.9 5.16 0.8 4.48 0.8 4.54 0.6 4.24 -5.08 5.64 -5.08 0.54 0 -0.2 -0.3 -4.88 -0.26 -4.42 -4.7 0.68 -9.24 0.8 -13.66 -2.26a3.62 3.62 0 0 0 -4.54 -0.28 22.14 22.14 0 0 1 -10.18 4.16c0.28 1.6 0.68 3.06 0.94 4.68s-0.54 3.34 -2 3.48c-1.88 0.26 -2.82 -0.68 -3.08 -2.82a25.22 25.22 0 0 1 -0.4 -4.42C30 75.84 17.1 82.22 17.1 88Zm53.26 74.38c0 1.62 -0.68 2.82 -2.42 2.96a2.68 2.68 0 0 1 -2.8 -2.42 33.14 33.14 0 0 1 -0.4 -9.76 2.18 2.18 0 0 1 1.74 -2.28c1.2 -0.26 2 0.54 2.54 1.6a26.4 26.4 0 0 1 1.34 8Zm-0.8 -24.38c-3.4 0.28 -3.36 -3.8 -3.36 -7.1a18.18 18.18 0 0 1 0.82 -5.62c0.26 -0.92 0.8 -1.6 1.74 -1.6a1.74 1.74 0 0 1 1.72 1.6 87.76 87.76 0 0 1 1.22 10.3c0.3 1.38 -0.4 2.42 -2.14 2.42Zm98 39.6a2.16 2.16 0 0 1 -1.88 2 2.22 2.22 0 0 1 -2.34 -1.6 49.22 49.22 0 0 1 -1.46 -11.64c0 -1.34 0.54 -2.54 1.86 -2.68s2.14 0.82 2.56 2a40.68 40.68 0 0 1 1.2 11.96Zm-18 -60c0.14 -1.2 0.4 -2.68 2 -2.8s2 1.2 2.4 2.4a29.5 29.5 0 0 1 0.8 9.1 2.66 2.66 0 0 1 -2.76 2.9c-1.62 0 -2.38 -0.92 -2.42 -2.94 -0.02 -0.26 -0.16 -7.74 -0.02 -8.56Zm-51.1 -14.62c0.12 -1.06 0.52 -2.4 1.86 -2.54s2 0.8 2.42 2a49.54 49.54 0 0 1 1.6 8.58c0.14 1.86 -1.06 3.6 -2.4 3.46 -1.74 0 -2.68 -1.2 -3.08 -2.94a40.6 40.6 0 0 1 -0.4 -8.56Zm-14.6 15.12c0.14 -1.06 0.42 -2.54 1.88 -2.4s2 1.34 2.28 2.66c1.32 8 1.2 7.78 0.94 8.84a2.72 2.72 0 0 1 -2.54 2.14 2.42 2.42 0 0 1 -2.56 -2.28c-0.12 -1.46 -0.12 -3.08 -0.26 -4.54a25.22 25.22 0 0 1 0.26 -4.42Zm-8 -25.16c0.12 -0.92 0.54 -2.26 1.88 -2.14s2 1.08 2.26 2.42c0.54 2.8 1.08 5.48 1.48 8.3 -0.14 1.32 -0.66 2.54 -2.14 2.8a2.84 2.84 0 0 1 -3.22 -1.88 24.98 24.98 0 0 1 -0.28 -9.5ZM57.4 85.18c0.4 -0.8 0.94 -1.74 2 -1.6C62 84 61.02 88.8 62.32 94a2.5 2.5 0 0 1 -2 3.2 2.82 2.82 0 0 1 -3.48 -2.26 19.06 19.06 0 0 1 0.54 -9.76ZM35.16 106.6c0 -2.22 -0.3 -4.68 2.14 -5.08 0.94 -0.14 1.22 0.8 1.48 1.32a29 29 0 0 1 1.34 7.36 2.4 2.4 0 0 1 -4.68 0.82 11.46 11.46 0 0 1 -0.28 -4.42ZM24.2 84.12c0.84 -1.6 2.14 -1.88 2.94 -0.28a15.44 15.44 0 0 1 1.34 7.76 2.14 2.14 0 0 1 -2.14 2.28c-3.06 0 -2.5 -4.4 -2.68 -5.62 0.34 -1.6 -0.1 -2.92 0.54 -4.14Z" fill="#fef0bb" stroke-width="1"></path><path d="M362.7 241.06a400.78 400.78 0 0 1 -46 20.2c-5.76 2.14 -11.38 4.82 -17.66 4.82 -1.06 0 -1.06 0.68 -1.06 1.48a30.62 30.62 0 0 0 0.52 6c-0.26 1.46 -0.4 3.08 -0.66 4.68a27.66 27.66 0 0 1 3.34 -1.74c0.4 -0.14 0.8 -0.66 1.2 0a1.06 1.06 0 0 1 -0.26 1.34 4.66 4.66 0 0 1 -1.2 1.06c-3.22 2.68 -6.42 5.36 -9.78 8 -0.8 0.66 -1.06 1.06 -0.66 2.14a42 42 0 0 0 6.42 11.24 37.8 37.8 0 0 1 9.64 -8.16 126.42 126.42 0 0 1 25.54 -12c0.94 -0.4 1.62 -0.66 1.62 -1.86 0.12 -2.28 0.4 -4.68 0.66 -6.96s0.14 -5.08 3.48 -5.9c6.3 -1.56 23.88 -10.1 32 -13.24l0.16 0c-2.56 -3.18 -2.26 -4.68 -7.3 -11.1Z" fill="#fef0bb" stroke-width="1"></path><path d="M292.74 262.6c-0.96 -11.06 -3.66 -23.3 -12.32 -30.24a45.56 45.56 0 0 0 -9.64 -5.48 11.72 11.72 0 0 0 -1.86 3.62c-2.22 7.78 -0.84 19.42 -1.74 20.34 9.56 12 11.36 24.38 11.36 39.74 0 0.52 -0.26 1.2 0.42 1.46l0.12 0a7.04 7.04 0 0 0 1.2 -0.94 5.68 5.68 0 0 1 2.14 -1.46c3.88 -2.68 7.76 -5.36 11.52 -8.3 -0.74 -2.2 -0.06 -7.34 -1.2 -18.74Z" fill="#fef0bb" stroke-width="1"></path><path d="M198.26 322.42c2.54 -1.2 5.1 -2.54 6 -5.62 4.62 -13.8 4.82 -27.34 10.44 -40.14a14.94 14.94 0 0 1 4.96 -6.82 37.54 37.54 0 0 0 10 -9.9 3.4 3.4 0 0 1 3.06 -1.62 12.4 12.4 0 0 0 3.22 0 13.24 13.24 0 0 0 7.1 -2.14c-0.28 -0.54 -0.68 -0.54 -1.08 -0.66a37.76 37.76 0 0 0 -7.62 -0.68c-0.8 0 -1.74 0 -1.74 -1.06s0.8 -1.08 1.6 -1.2c3.6 -0.42 6.16 0 9.1 -1.62a38.48 38.48 0 0 0 -9.76 0.54c-0.82 0.14 -1.74 0 -1.74 -1.08s0.66 -1.2 1.46 -1.32c4.24 -0.54 7.8 -0.68 10.84 -3.22 -0.94 0 -1.34 -0.14 -1.88 -0.14a58.68 58.68 0 0 0 -12.7 2.42c-1.08 0.26 -2.54 1.46 -3.08 -0.14s1.34 -1.46 2.4 -1.88a26.64 26.64 0 0 0 8 -4.28l0 -0.26c0 -0.14 -0.14 -0.26 -0.14 -0.4a27.42 27.42 0 0 0 -3.34 0.66 29.7 29.7 0 0 1 -3.74 1.48 40.76 40.76 0 0 0 -19.26 14.18c-0.54 0.8 -1.62 1.74 0 2.68 2 1.22 -4 4.56 -14.6 25.02 -1.34 2.68 -1.86 4.68 0.8 6.56 0.28 0.12 0.42 0.52 0.68 0.8 0.54 0.94 1.74 1.88 0.4 2.94s-1.6 -0.66 -2.28 -1.2c-19.18 -18.74 -17.52 -17.54 -18.32 -17.66 -0.28 0.52 -0.4 0.94 -0.68 1.46 -3.08 7.5 -6.14 15.12 -9.76 22.48 -0.94 1.88 -0.54 2.68 0.94 3.76 8 5.74 16.32 11.1 24.88 16.18a13.08 13.08 0 0 0 4.82 1.88l0.26 0c-0.04 0.26 0.36 0.12 0.76 0Z" fill="#fef0bb" stroke-width="1"></path><path d="M256.2 63.12c0.14 0.12 0.4 0.4 0.28 0.66s-0.54 0.4 -0.82 0.4a5.74 5.74 0 0 1 -2.8 -1.06A17.7 17.7 0 0 1 246.7 56a40.66 40.66 0 0 0 -2 4.14c-0.28 0.54 -0.54 1.22 -1.2 1.22a1.58 1.58 0 0 1 -1.34 -1.08 40.76 40.76 0 0 1 -2 -5.62 6.4 6.4 0 0 0 -0.92 -2.68 12.58 12.58 0 0 0 -3.36 6.3c-0.48 2 -0.34 2.84 -1.74 3.08a1.84 1.84 0 0 1 -1.46 -0.94c-0.4 -0.94 -0.94 -1.88 -1.62 -3.22a13.88 13.88 0 0 0 -0.26 6.56c0.14 1.2 1.34 3.08 -0.54 3.74s-2.14 -1.34 -2.94 -2.26c-1.2 -1.34 -2.14 -2.82 -3.48 -4.56 -0.26 0.94 -0.4 1.34 -0.54 1.88 -0.52 6.14 4.3 13.38 10.18 15.64a9.62 9.62 0 0 0 5.22 0c1.54 -0.76 2.12 -1.68 3.34 -1.2 1.2 -0.52 2.14 0.14 3.08 0.94 0.26 0.26 0.66 0.54 0.94 0.8a40 40 0 0 0 7.88 2c5.88 0 10.42 0.36 16 -1.48 2.98 -1.24 5.12 -3.18 7.88 -4.42 0.8 -0.4 1.74 -0.8 2.28 0.14s-0.26 1.6 -0.94 2 0.68 0.28 1.6 0.54 0.68 1.08 0.68 1.74c-0.26 5.48 -0.94 10.98 -0.8 16.46l0 0.8c0.4 -0.26 0.94 -0.66 1.34 -0.94a8.52 8.52 0 0 1 3.88 -1.06c5.64 -1.26 6.62 8.14 4.94 13.64 -1.2 4 -2.94 5.48 -8.3 7.22 1.48 1.62 2.96 3.08 4.42 4.56 0.4 0.4 0.68 0.4 1.08 -0.14 1.46 -2.34 2.5 -2 6.56 -6a78.6 78.6 0 0 0 6.94 -17.12 40.3 40.3 0 0 0 -0.4 -18 9.04 9.04 0 0 0 -7.1 -6.88 3.86 3.86 0 0 1 -2.54 -1.74c-3.34 -7.08 -9.62 -9.62 -16.86 -10.56a70.18 70.18 0 0 0 -19 -0.68 14.32 14.32 0 0 1 -2.4 0.4 3.76 3.76 0 0 1 -1.6 -0.12c1.52 1.34 3 2.9 4.6 4.02Z" fill="#fef0bb" stroke-width="1"></path><path d="M122.94 232.64c0.94 -0.4 1.34 -0.54 0.66 -1.34a38.22 38.22 0 0 1 -7.22 -6.96c-0.4 -0.4 -0.94 -0.94 -0.4 -1.6s1.2 -0.14 1.74 0.26a12.94 12.94 0 0 1 1.88 1.74c1.2 1.34 1.86 1.08 2.4 -0.54a7.76 7.76 0 0 1 7.1 -5.48 19.76 19.76 0 0 0 6.54 -1.6c4.96 -2 9.64 -4 12 -8.3 0 -0.14 -0.14 -0.14 -0.28 -0.26a12.16 12.16 0 0 1 -3.6 -6.84c-1.22 -4.54 0.12 -5.88 4 -4.68 1.08 0.28 1.74 0.14 1.74 -1.34 0 -5.76 -0.8 -6 -0.8 -12.3 0 -0.78 -0.14 -1.02 -0.14 -1.6 -0.12 -1.22 -0.66 -1.74 -1.86 -1.48 -3.76 0.66 -7.5 1.2 -11.24 1.74a18.18 18.18 0 0 0 -2.68 0.26c0.54 4.96 -3.56 12.6 -5.76 17.14a6.52 6.52 0 0 1 -1.2 1.74c-0.8 1.06 -1.34 1.06 -3.08 0.12a8.82 8.82 0 0 0 0.28 3.22c0.26 2.54 -0.14 3.08 -2.68 2.94 -4.56 -0.28 -11.3 -1.78 -19.14 -0.26a39.02 39.02 0 0 0 8.84 1.86c0.66 0.14 2 -0.4 2 0.54s-1.34 1.08 -2 1.34a1.66 1.66 0 0 1 -0.8 0.14 26.54 26.54 0 0 1 -12 -2.42c-0.26 -0.12 -0.66 -0.26 -0.8 -0.54 -0.26 -0.66 -0.52 -1.2 -1.34 -1.06s-0.8 0.94 -0.92 1.48c-0.68 3.46 -1.34 6.94 -2.14 10.42 -0.14 0.82 -0.42 1.88 -1.62 1.74 -2 -0.24 -0.22 -3.14 -1.86 -2.8a54.96 54.96 0 0 1 -8.16 0.4c0.66 1.06 1.2 2.14 2 3.2 1.74 2.16 3.62 4.3 5.48 6.3a34 34 0 0 0 12.98 7.22c8.82 1.1 12.9 1.26 22.08 -2.4Zm21.28 -49.24a3.26 3.26 0 0 1 3.2 3.6 3.56 3.56 0 0 1 -3.42 3.62 3.42 3.42 0 0 1 -3.34 -3.48 3.7 3.7 0 0 1 3.56 -3.74Z" fill="#fef0bb" stroke-width="1"></path><path d="M149.7 202.4c0.26 -2.94 0.14 -3.08 -2.82 -3.22 -0.8 0 -0.92 0.14 -0.8 0.94a16.9 16.9 0 0 0 2.82 6.82 0.12 0.12 0 0 1 0.12 -0.12 19.38 19.38 0 0 0 0.68 -4.42Z" fill="#fef0bb" stroke-width="1"></path><path d="M144.88 170.96c-1.46 -0.14 -1.06 1.06 -1.06 1.86a6 6 0 0 1 -0.4 2.28 4.82 4.82 0 0 1 -2.16 3.48c2.28 -0.26 4.16 -0.54 6 -0.8a1 1 0 0 0 0.66 -0.28 2.16 2.16 0 0 0 0.26 -1.2l-0.8 -4 0 -0.14c-0.46 -0.94 -0.42 -0.9 -1.74 -1.34a1.62 1.62 0 0 1 -0.76 0.14Z" fill="#fef0bb" stroke-width="1"></path><path d="M134 177.5c-0.4 -0.26 -1.06 -0.92 -1.2 0s-0.66 1.74 -0.26 2.68c2.54 -0.4 4.94 -0.8 7.22 -1.2 -0.4 -0.14 -0.8 -0.14 -1.2 -0.26a7.06 7.06 0 0 1 -4.56 -1.22Z" fill="#fef0bb" stroke-width="1"></path><path d="M294.48 240.94c-1.08 0.12 -1.48 0.8 -1.08 1.86a68.72 68.72 0 0 1 3.88 18.74c0 0.8 0.4 1.06 1.34 0.94a54.9 54.9 0 0 0 8.56 -2.82c44.92 -18.42 51.68 -22.48 52.32 -22.48a112.28 112.28 0 0 0 -15.26 -13.64c-5.06 0.84 -34.04 14.68 -49.76 17.4Z" fill="#fef0bb" stroke-width="1"></path><path d="M313.06 355.46a50.96 50.96 0 0 0 24.62 13.66 97.66 97.66 0 0 0 18.74 0.92c1.7 0 1.26 0.22 0.4 1.08 2.4 -0.26 4.96 -0.94 7.62 -1.48a2.84 2.84 0 0 0 2.42 -2.54c1.06 -5.08 0.94 -10.16 1.6 -15.24 0.14 -1.34 -0.4 -1.62 -1.6 -1.22a50.32 50.32 0 0 1 -19.54 2.28c-14.54 -1.12 -27.38 -4.52 -38.94 -14.72a71.66 71.66 0 0 0 0.94 10.58 11.66 11.66 0 0 0 3.74 6.68Z" fill="#fef0bb" stroke-width="1"></path><path d="M288.98 234c2.56 3.72 2.68 3.74 6.96 2.14 77.58 -29.56 21.28 -8.16 42.68 -16.2a50.62 50.62 0 0 0 -4.54 -2.28c0.62 2 -2.82 4.4 -2.82 2.28 -2.54 -10.2 2.34 -12 -2.54 -12.7 -19.84 -1.86 -28.96 7.46 -39.86 12.3a8.3 8.3 0 0 0 -1.88 2.42c0.66 0.66 1.06 0 1.6 0s0.8 -0.14 0.94 0.4a0.88 0.88 0 0 1 -0.4 1.06 8.68 8.68 0 0 1 -4.14 1.2 44.54 44.54 0 0 0 -8.84 -0.26 24.96 24.96 0 0 1 12.84 9.64Z" fill="#fef0bb" stroke-width="1"></path><path d="M274.26 294.18c-0.12 -2.28 -0.4 -4 -0.52 -5.88 -0.88 -12.1 -1.76 -22.48 -9.1 -32.92 -3.24 3.24 -8.74 1.38 -15.4 19.66a206 206 0 0 0 13.12 25.3c0.54 0.8 0.94 1.06 1.88 0.66a20.2 20.2 0 0 0 3.06 -1.34c2.16 -1.2 4.3 -2.54 6.44 -4a1.42 1.42 0 0 0 0.52 -1.48Z" fill="#fef0bb" stroke-width="1"></path><path d="M307.04 309.7a41.34 41.34 0 0 0 13.38 4.96 40.26 40.26 0 0 0 7.76 -0.8c1.22 -0.28 1.48 -0.68 1.48 -1.74 0.88 -11.84 1.34 -12.18 3.22 -26 0.26 -2.14 0.12 -2.14 -2 -1.48a123.52 123.52 0 0 0 -17.8 8.56 84.46 84.46 0 0 0 -13.9 9.64 41.84 41.84 0 0 0 7.86 6.86Z" fill="#fef0bb" stroke-width="1"></path><path d="M142.74 238.12c-0.68 0.8 -0.14 0.94 0.4 1.34 2.14 1.06 4.42 2.14 6.56 3.48a14.72 14.72 0 0 0 10.84 2.4 50.42 50.42 0 0 0 8.3 -1.34c-5.44 -1 -6.64 -0.46 -6.84 -1.86 -0.12 -0.94 0.54 -1.34 1.22 -1.62 2.14 -0.92 6 -1.5 9.62 -4.4a80.46 80.46 0 0 0 -9.22 2c-0.8 0.14 -2 0.66 -2.54 -0.54s0.52 -1.6 1.34 -2.14A45.5 45.5 0 0 0 170 230a8.8 8.8 0 0 0 -2.94 0.4 40.78 40.78 0 0 0 -10.3 4.82c-0.8 0.4 -1.6 1.06 -2.28 0.14s0.26 -1.62 0.94 -2.14a69.08 69.08 0 0 0 5.48 -5.36 2.6 2.6 0 0 0 -2.26 0.66c-2 1.22 -4 2.54 -6.16 3.76 -0.68 0.4 -1.34 1.2 -2.42 0.66s-0.52 -1.46 -0.4 -2.68c-2.5 2.78 -4.7 5.28 -6.92 7.86Z" fill="#fef0bb" stroke-width="1"></path><path d="M310.12 333.78a63.18 63.18 0 0 0 14.86 8.58c1.06 0.4 1.74 0.66 1.88 -0.94 0.66 -6.56 0.4 -13.38 1.46 -19.68 0.26 -1.6 0 -2 -1.6 -1.86 -9.84 1.54 -15.4 -0.36 -16.46 0a80 80 0 0 0 -1.88 12.56 8.76 8.76 0 0 0 1.74 1.34Z" fill="#fef0bb" stroke-width="1"></path><path d="M183.42 86.4c-1.74 0.54 -2.14 2.4 -0.54 3.34 3.34 2.14 5.88 4.54 3.88 8.3 0 2.94 1.34 3.88 3.34 2.66 3.62 -2 6.84 -2.66 9.78 1.08 0.8 0.94 2 2.8 3.74 1.74s1.2 -2.82 0.94 -4.14c-0.68 -4.42 0.54 -7.76 4.68 -9.78 0.14 0 0.26 -0.14 0.4 -0.26a2.16 2.16 0 0 0 0.94 -2.14c-0.14 -0.94 -0.8 -1.34 -1.74 -1.48 -1.48 -0.26 -3.08 -0.54 -4.54 -0.66a3.34 3.34 0 0 1 -3.36 -2.54c-0.66 -1.88 -1.46 -3.62 -2.26 -5.36 -0.42 -0.8 -0.68 -1.74 -1.88 -1.74s-1.74 0.94 -2.14 1.88c-0.8 1.86 -1.74 3.74 -2.42 5.74a2.26 2.26 0 0 1 -1.74 1.34 56.22 56.22 0 0 0 -7.08 2.02Zm13.1 -4.7c0 -0.12 0.28 -0.26 0.54 -0.4a41.56 41.56 0 0 0 2.54 5.5c1.08 1.86 3.48 1.2 6 2.26 -5.22 1.74 -3.88 5.62 -4.16 9.38a15.46 15.46 0 0 1 -2.66 -2.14 3.2 3.2 0 0 0 -4.42 -0.8 3.82 3.82 0 0 1 -1.34 0.52c-0.68 0.28 -1.48 1.2 -2.14 0.54s-0.14 -1.48 0 -2.28a3.7 3.7 0 0 0 -2.14 -4.4 1.26 1.26 0 0 1 -0.68 -0.94c0 -0.4 0.54 -0.54 0.94 -0.68a9.7 9.7 0 0 0 7.52 -6.56Z" fill="#fef0bb" stroke-width="1"></path><path d="M170 67.26c-1.88 1.06 -3.74 2.14 -5.48 3.34s-1.62 2.54 0.26 3.48 3.62 1.74 5.48 2.54a2.32 2.32 0 0 1 1.6 2.42 27.24 27.24 0 0 0 0.54 4.68c0.14 0.8 0.14 1.74 1.34 2s1.74 -0.4 2.28 -1.2c0.94 -1.48 2 -2.94 2.8 -4.28a2 2 0 0 1 2.42 -1.08c2.28 0.54 4.68 0.8 7.36 1.34 1.46 0 2.26 -1.46 1.34 -3.08s-1.88 -3.34 -2.82 -5.08a2.44 2.44 0 0 1 0.14 -3.08 40.4 40.4 0 0 0 3.6 -4.94c0.82 -1.34 0.28 -2.42 -1.32 -2.54l-1.54 0c-2.26 0.4 -4.54 0.8 -6.82 1.34a2.5 2.5 0 0 1 -2.68 -0.82c-1.6 -1.46 -3.34 -2.8 -4.94 -4.28 -0.54 -0.52 -1.2 -0.94 -2 -0.4a2 2 0 0 0 -0.8 2c0.28 1.32 0.14 2.8 0.54 4.14a2.5 2.5 0 0 1 -1.3 3.5Zm4.28 -4.28a1.38 1.38 0 0 1 1.46 0.8c2.56 3.34 6 2.68 9.38 1.88a4 4 0 0 0 1.06 -0.28A8 8 0 0 1 184 68.6a2.92 2.92 0 0 0 -0.12 4c0.66 1.2 1.32 2.4 2 3.74A5.44 5.44 0 0 1 182 76a4.34 4.34 0 0 0 -5.76 2.4 2.3 2.3 0 0 1 -0.66 0.94l-0.54 0C176.2 74 172 73.42 168 71.8c4.58 -1.46 6.86 -4.28 6.32 -8.82Z" fill="#fef0bb" stroke-width="1"></path><path d="M345.18 347.04c1.74 0.12 3.34 0.4 5.08 0.4a67.42 67.42 0 0 0 17.14 -2.28 1.74 1.74 0 0 0 1.6 -1.74c0.26 -2.28 0.66 -4.42 1.06 -6.68 0.14 -0.54 0.28 -1.08 -0.12 -1.48a3.3 3.3 0 0 1 -1.62 1.06 186 186 0 0 1 -18.58 7.78c-1.62 0.8 -3.22 1.46 -4.82 2.26 0.12 0.4 0.26 0.54 0.26 0.68Z" fill="#fef0bb" stroke-width="1"></path><path d="M258 302.88c0.94 -0.14 1.46 -0.54 0.66 -1.6 -4.24 -5.42 -8 -14.28 -11.1 -21.02a16.66 16.66 0 0 0 -0.66 8.16 32.84 32.84 0 0 0 4 11.66 8.28 8.28 0 0 0 3.22 3.2 18.12 18.12 0 0 0 3.88 -0.4Z" fill="#fef0bb" stroke-width="1"></path></g><g><path d="M188 56.82c0.54 2.4 1.2 2.82 3.62 2.28 7.36 -1.6 31.84 -6.82 36.66 -7.9 1.48 -0.26 2.8 -0.8 2.4 -2.68 -1.74 -10 -3.34 -19.8 -5.08 -29.7a2.26 2.26 0 0 0 -2.14 -2c-0.26 0.12 -0.54 0.12 -0.8 0.26 -4.66 0.92 -29.74 6.42 -37.64 8.16 -1.46 0.28 -2.8 0.94 -2.4 2.82 1.38 9.62 3.22 19.26 5.38 28.76Zm36.14 -27.56 2.8 17.12c0.26 1.48 -0.54 1.88 -1.74 2.14 -10.84 2.28 -21.54 4.68 -32.38 7.1 -1.6 0.4 -2.14 -0.14 -2.4 -1.6 -1.08 -5.22 -2 -10.44 -3.08 -15.66 -0.4 -1.6 0 -2 1.74 -2.42 9.36 -1.86 31.84 -6.82 33.72 -7.22 0.62 -0.14 1.2 -0.26 1.3 0.54Zm-35.06 -2c9.52 -2 31.36 -6.32 32.5 -6.56s1.22 0.26 1.34 1.06l0 0.24c0.68 3.48 0.68 3.48 -2.8 4.28 -10.7 2.4 -21.54 4.96 -32.24 7.5 -1.22 0.26 -1.48 -0.14 -1.88 -1.08 -1.24 -4.52 -1.24 -4.6 3.04 -5.44Z" fill="#ffc7d6" stroke-width="1"></path><path d="M199.48 266.36c-0.14 -0.82 1.06 -1.74 1.74 -2.54a15.54 15.54 0 0 0 0.92 -1.34c0.54 -0.94 1.22 -1.62 2.42 -1.22 0.66 -0.12 1.46 0.28 1.88 -0.4a0.8 0.8 0 0 0 -0.28 -0.92c-1.88 -0.94 -0.8 -2 0 -2.96s0.94 -2.66 2.42 -2.94c0.66 -0.14 1.46 -0.14 1.46 -1.06s-0.8 -0.94 -1.46 -1.22c-10.58 -4.14 -21.14 -8.16 -32 -11.64l-4 -1.2 -2.4 1.2c0.12 0 0.26 0.14 0.4 0.14 0.92 0.26 1.86 0.68 2.8 0.94s1.6 0.8 0.54 1.74a5.22 5.22 0 0 0 -0.94 0.94 2 2 0 0 1 -1.08 1.34 2.88 2.88 0 0 1 -4.14 1.06 35.88 35.88 0 0 1 -5.22 0.68 6.96 6.96 0 0 0 -0.8 1.06c-0.4 0.68 -1.06 1.48 -0.26 2s1.2 -0.52 1.46 -0.92c1.2 -2.14 2.68 -2.14 4.68 -1.22 0.94 0.4 1.48 0.68 0.54 1.74a17.1 17.1 0 0 0 -3.2 4.28c-0.14 0.14 -0.14 0.28 -0.14 0.54s0.66 1.08 0.94 1.74c1.86 0.8 3.6 1.74 5.48 2.42 8.56 2.94 17 6 25.3 9.36 1.6 0.66 3.2 1.34 4.8 1.88 0.4 -0.82 0.94 -1.48 1.34 -2.28a2.2 2.2 0 0 0 -0.66 -0.4c-0.8 -0.28 -2.4 0.12 -2.54 -0.8Zm1.6 -15.4c1.88 0.78 3.62 1.48 5.76 2.42 -1.08 1.6 -2.14 3.08 -3.22 4.54l-0.4 0.4a18 18 0 0 1 -6.56 -2.4 0.9 0.9 0 0 1 0.28 -0.94c0.8 -1.2 1.72 -2.4 2.54 -3.62 0.26 -0.66 0.94 -0.66 1.6 -0.4Zm-7.08 -2.68a16.22 16.22 0 0 0 3.36 1.22c0.4 0.12 0.8 0.12 0.92 0.66 -0.4 0.54 -0.66 1.08 -1.06 1.6 -2.68 3.48 -2.68 3.48 -6.82 2 -3.08 -1.08 -3.08 -1.08 -0.94 -3.62a3.14 3.14 0 0 0 0.54 -0.8c1.04 -1.34 2.1 -2.24 4 -1.06Zm-9.1 -3.2c1.74 0.68 3.48 1.2 5.76 2.14a12 12 0 0 0 -2.28 1.88c-3.2 3.48 -4.14 3.6 -8.42 1.6 -0.8 -0.4 -0.68 -0.68 -0.26 -1.08a49.24 49.24 0 0 0 3.46 -4.14 1.3 1.3 0 0 1 1.72 -0.4Zm-12.44 1.88a15.54 15.54 0 0 0 1.48 -1.62c2.94 -3.2 3.2 -3.2 7.22 -1.46 0.4 0.12 1.08 0.26 0.54 0.92l-4 4.42a2.5 2.5 0 0 1 -0.66 0.4c-1.62 -0.52 -3.08 -1.06 -4.56 -1.6 -0.7 -0.26 -0.3 -0.66 -0.04 -1.06Zm-0.94 10a8.48 8.48 0 0 1 -3.34 -1.08c-0.8 -0.26 -1.6 -0.66 -2.54 -1.06a26 26 0 0 0 4.14 -4.42 1.6 1.6 0 0 1 2.14 -0.68c4.3 1.34 4.3 1.34 1.62 4.82 -0.82 0.7 -1.36 2.18 -2.04 2.32Zm24.9 8.82c-7.7 -2.76 -15.26 -5.62 -23.02 -8 -0.14 0 -0.26 -0.14 -0.4 -0.28 1.48 -1.74 3.08 -3.34 4.42 -5.22 0.54 -0.66 1.06 -0.4 1.6 -0.26 1.74 0.54 3.34 1.08 5.36 1.74 -0.94 1.34 -1.88 2.54 -2.68 3.74 -0.28 0.4 -0.94 1.08 -0.4 1.62s1.2 0 1.6 -0.68 1.48 -1.74 2.14 -2.68 1.6 -1.46 2.82 -0.8a34.72 34.72 0 0 0 4.14 1.48c1.2 0.4 1.48 0.8 0.66 1.86a21.04 21.04 0 0 0 -1.74 2.54c-1.06 2.18 -0.52 2.46 1.22 0.78a13.3 13.3 0 0 0 2 -2.64c0.66 -1.2 1.34 -1.6 2.68 -0.94s4 1.2 4.54 2.42 -1.86 2.66 -2.68 4 -1.1 1.66 -2.28 1.22Z" fill="#ffc7d6" stroke-width="1"></path><path d="M290 192a9.7 9.7 0 0 1 0.54 -3.74 12.52 12.52 0 0 0 -5.76 6.54 7.44 7.44 0 0 0 0.28 6.96c3.7 5.12 13.32 0.6 13.1 -1.2 -7.46 -1.74 -8.3 -5.34 -8.16 -8.56Z" fill="#ffc7d6" stroke-width="1"></path><path d="M110.9 29.12c1.2 0.42 1.88 -0.26 2.4 -1.2a15.36 15.36 0 0 0 1.48 -5.62l0 -1.2a2 2 0 0 0 -1.88 -2.28c-1.34 -0.14 -1.86 0.68 -2 1.74a32.66 32.66 0 0 0 -1.34 6.3c0.14 1.14 0.26 1.88 1.34 2.26Z" fill="#ffc7d6" stroke-width="1"></path><path d="M132.44 34.48a2 2 0 0 0 2.14 -1.48 20 20 0 0 0 0.8 -4.82 4 4 0 0 0 -0.66 -2.8 1.76 1.76 0 0 0 -3.22 0.26 21.22 21.22 0 0 0 -0.94 7.1c0.28 0.94 0.68 1.74 1.88 1.74Z" fill="#ffc7d6" stroke-width="1"></path><path d="M88.28 60a1.7 1.7 0 0 0 -2 1.34 14.58 14.58 0 0 0 -0.54 7.22 2.14 2.14 0 0 0 2 1.74c1.08 0 1.34 -0.8 1.62 -1.74a22.34 22.34 0 0 0 0.4 -4.14l0 -2.42c-0.14 -1.16 -0.4 -2 -1.48 -2Z" fill="#ffc7d6" stroke-width="1"></path><path d="M121.74 42a17.12 17.12 0 0 0 1.2 -5.2c0 -1.08 0 -2.28 -1.48 -2.56s-2 0.68 -2.4 1.88a14.36 14.36 0 0 0 -0.94 5.36c0.14 0.94 0.4 1.74 1.34 2a2 2 0 0 0 2.28 -1.48Z" fill="#ffc7d6" stroke-width="1"></path><path d="M90.42 50.4a1.44 1.44 0 0 0 1.08 -1.48c0.26 -1.86 0.54 -3.74 0.8 -5.74a2.52 2.52 0 0 0 -1.48 -2.14 1.68 1.68 0 0 0 -2 0.52 8 8 0 0 0 0 7.9c0.4 0.54 0.8 1.2 1.6 0.94Z" fill="#ffc7d6" stroke-width="1"></path><path d="M79.32 54c-0.8 -0.28 -1.48 0.4 -1.74 1.06a11.08 11.08 0 0 0 -1.2 6.56 2 2 0 0 0 1.34 1.74c1.06 0.14 1.46 -0.68 1.86 -1.6a13.7 13.7 0 0 0 0.94 -4.42l0 -1.48a1.76 1.76 0 0 0 -1.2 -1.86Z" fill="#ffc7d6" stroke-width="1"></path><path d="M104.88 48a19.24 19.24 0 0 0 0.4 -4.7c0 -0.92 -0.14 -1.74 -1.34 -1.86a1.58 1.58 0 0 0 -1.88 1.34 12.54 12.54 0 0 0 -0.8 3.74c0.54 1.34 1.08 2.8 1.74 4.14 1.34 -0.26 1.6 -1.6 1.88 -2.66Z" fill="#ffc7d6" stroke-width="1"></path><path d="M159.46 48c1.34 0.12 1.74 -1.08 2 -2.28a18.34 18.34 0 0 0 0.4 -3.76c0 -1.06 -0.28 -1.86 -1.34 -2.14a2 2 0 0 0 -2.14 1.62 11.24 11.24 0 0 0 -0.54 3.88c-0.12 1.46 0.28 2.54 1.62 2.68Z" fill="#ffc7d6" stroke-width="1"></path><path d="M152 37.82c0.4 -1.46 0.66 -2.94 0.94 -4.42a1.88 1.88 0 0 0 -1.34 -2c-0.94 -0.26 -1.48 0.26 -2 0.94 -1.06 1.2 -0.66 2.68 -1.2 4 0.26 1.06 0.26 2.14 1.6 2.54a1.58 1.58 0 0 0 2 -1.06Z" fill="#ffc7d6" stroke-width="1"></path><path d="M125.34 12.54c-1.2 0.12 -1.6 1.06 -1.6 2.14 0 0.52 -0.14 1.06 -0.26 2 0.4 0.8 -0.14 2.28 1.2 3.22 0.94 0.66 1.88 0.66 2.28 -0.54a9.58 9.58 0 0 0 0.66 -5.08 2 2 0 0 0 -0.94 -1.48c-0.26 -0.14 -0.66 -0.26 -0.94 -0.4a0.46 0.46 0 0 1 -0.4 0.14Z" fill="#ffc7d6" stroke-width="1"></path><path d="M142.74 50c0.14 1.06 0.4 2 1.74 2.14s1.88 -0.68 2.14 -1.88l0.4 -2c0.28 -1.48 -0.26 -2.68 -1.74 -2.82s-2 1.08 -2.4 2.28c-0.14 0.4 0 0.8 0 0.68 -0.14 0.92 -0.28 1.34 -0.14 1.6Z" fill="#ffc7d6" stroke-width="1"></path><path d="M129.5 48.66c-1.48 -0.14 -1.88 1.2 -2 2.28a8 8 0 0 0 0 2.4 1.56 1.56 0 0 0 1.34 1.34c0.8 0.14 1.22 -0.4 1.34 -1.2a7.28 7.28 0 0 0 0.4 -2.68c-0.14 -0.66 0.38 -2 -1.08 -2.14Z" fill="#ffc7d6" stroke-width="1"></path><path d="M193.32 43.18c1.6 -0.14 3.2 -0.4 4.68 -0.68l14.72 -2.8c3 -0.38 2 -4.28 -1.6 -3.08 -6 1.2 -12.18 2.4 -18.2 3.62 -0.8 0.12 -1.74 0.52 -1.74 1.6s1.34 1.34 2.14 1.34Z" fill="#ffc7d6" stroke-width="1"></path><path d="M207.64 47.18c-4.16 0.94 -8.3 2 -12.44 2.96 -0.82 0.12 -1.74 0.52 -1.48 1.46s1.2 1.08 2.14 0.94l12.18 -2c0.94 -0.14 2 -0.68 1.86 -1.88s-1.2 -1.48 -2.26 -1.48Z" fill="#ffc7d6" stroke-width="1"></path><path d="M214 40.5a39.24 39.24 0 0 0 -8 1.74c-0.8 0.14 -1.6 0.66 -1.46 1.6s1.06 1.2 2.14 1.2l7.76 -1.6a1.56 1.56 0 0 0 1.34 -1.88A1.44 1.44 0 0 0 214 40.5Z" fill="#ffc7d6" stroke-width="1"></path><path d="M201.08 46.52c1.06 -0.14 2 -0.66 1.88 -2s-1.34 -1.22 -2.56 -1.34c-1.86 0.26 -4 0.52 -6 0.94a1.58 1.58 0 0 0 -1.46 1.86c0 1.08 0.94 1.34 1.74 1.34Z" fill="#ffc7d6" stroke-width="1"></path><path d="M200 38a1.62 1.62 0 0 0 1.48 -1.88c-0.26 -1.06 -1.2 -1.34 -2.28 -1.06a72.1 72.1 0 0 0 -7.36 1.86c-0.66 0.28 -1.46 0.54 -1.34 1.34s1.08 1.08 1.88 1.08c2.54 -0.44 5.08 -0.9 7.62 -1.34Z" fill="#ffc7d6" stroke-width="1"></path><path d="M217.8 22.16a1.42 1.42 0 0 0 -0.26 1.74 1.74 1.74 0 0 0 1.74 0.82c0.66 -0.14 1.46 -0.42 1.6 -1.34a2 2 0 0 0 -0.18 -1.48 1.78 1.78 0 0 0 -2.9 0.26Z" fill="#ffc7d6" stroke-width="1"></path><path d="M213.78 25.52a1.74 1.74 0 0 0 1.88 -1.34c0 -0.94 -0.4 -1.34 -1.2 -1.34s-1.6 0.54 -1.88 1.46a1.02 1.02 0 0 0 1.2 1.22Z" fill="#ffc7d6" stroke-width="1"></path><path d="M121.6 184c4.24 -2.22 5.62 -6 5.76 -10.44a7.26 7.26 0 0 1 4.28 -7.22 10.92 10.92 0 0 0 6 -7.78 5.28 5.28 0 0 0 -6.4 -6.56 26.6 26.6 0 0 0 -5.5 1.86c-2.94 1.48 -5.74 3.08 -8.68 4.56 -1.08 0.54 -1.62 0.4 -1.88 -0.68 -0.4 -1.46 -0.8 -2.94 -1.34 -4.4a6.94 6.94 0 0 0 -10 -3.76 24.62 24.62 0 0 0 -5.84 4.64c-1.02 1.02 -1.62 1.42 -1.62 -0.4a26.62 26.62 0 0 1 -0.38 -5.62 4.46 4.46 0 0 0 -6 -4.4c-6 1.74 -12 9.76 -12 16.58a22.18 22.18 0 0 0 1.48 6 116.64 116.64 0 0 1 6.96 18.46c1.06 4.16 2.54 8.18 3.88 12.18a4.62 4.62 0 0 0 3.48 3.34 25.64 25.64 0 0 0 7.08 1.22c5.76 -0.28 11.24 1.06 16.86 1.6a5.5 5.5 0 0 0 3.08 -0.54c-0.42 -2.78 0.14 -3.22 0.4 -3.48 1.74 -1.6 1.74 -2 -0.26 -3.34a6 6 0 0 1 -2.14 -6.96 6.32 6.32 0 0 1 0.66 -1.46 3.84 3.84 0 0 1 2.12 -3.4Z" fill="#ffc7d6" stroke-width="1"></path><path d="M106 64.58c-0.8 0.28 -1.2 -0.54 -1.46 -1.06 -0.54 -0.94 -0.94 -2 -1.48 -3.08 -1.74 -2.82 -3.6 -2.82 -5.76 -0.4 -4 4.54 -0.8 11.24 3.22 12.84 0.8 0.26 1.48 0 0.8 1.46 -0.54 1.08 0.4 2.68 1.34 3.48a18.8 18.8 0 0 1 3.62 4.3 33.12 33.12 0 0 0 20.2 13.1 16 16 0 0 0 14.32 -4A35.14 35.14 0 0 0 149.7 78a3.42 3.42 0 0 1 -2.14 0.68 3.06 3.06 0 0 1 -2.28 -1.08 16 16 0 0 1 -0.54 2.68c-0.66 1.88 -2.66 2.28 -4.54 1.06 -0.8 -0.66 -1.34 -1.06 -2.4 -0.12a2.78 2.78 0 0 1 -4.16 -0.54 4.14 4.14 0 0 1 -0.66 -4.96 1.74 1.74 0 0 1 1.74 -0.66c0.52 0.14 1.2 0.26 0.4 0.94s-0.4 1.6 -0.14 2.4a1.3 1.3 0 0 0 1.08 1.08c0.66 0.12 0.92 -0.4 1.2 -0.8 0.8 -1.62 1.74 -1.48 2.8 -0.28 0.68 0.68 1.2 2 2.42 1.48s0.52 -1.74 0.66 -2.82l0 -1.2a12.94 12.94 0 0 0 -0.94 -5.08c-0.26 -0.54 -0.52 -1.2 0.28 -1.6s1.2 0.12 1.46 0.66a16 16 0 0 1 1.22 3.48A3.72 3.72 0 0 1 148 72a2.98 2.98 0 0 1 3.08 2.82c0.26 -0.94 0.54 -1.74 0.8 -2.68 1.08 -3.76 1.88 -7.5 2.8 -11.24 0.14 -1.88 0.14 -3.76 0.14 -5.48a6.38 6.38 0 0 0 -1.6 -4.16 19.26 19.26 0 0 1 -3.48 10c-2.68 3.2 -5.76 3.08 -8 -0.4a21.66 21.66 0 0 1 -2.28 -5.48c-0.14 -0.54 -0.28 -1.22 -0.4 -1.74 -0.14 -0.94 -0.28 -1.88 -0.54 -2.96a44.96 44.96 0 0 1 -4.96 6 9.8 9.8 0 0 1 -4.4 2.68c-5.7 1.56 -6.58 -5.1 -7.1 -5.62a18.6 18.6 0 0 1 -6.68 4.56 3.66 3.66 0 0 1 -3.76 -0.4 5.08 5.08 0 0 1 -1.74 -0.82 1.86 1.86 0 0 0 -2.94 1.74 2.32 2.32 0 0 1 -0.94 2.14 7.7 7.7 0 0 1 0.54 2.56c0.08 0.12 0.34 0.92 -0.54 1.06Zm-2.54 4a0.74 0.74 0 0 1 -1.2 -0.28c-1.08 -2 -2.28 -1.32 -3.74 -0.4 -0.54 0.4 -1.34 1.08 -1.88 0.14s0.54 -1.34 1.34 -1.6 1.34 -0.4 2.14 -0.68a3.76 3.76 0 0 0 -2.28 -2c-0.4 -0.14 -0.8 -0.4 -0.66 -0.8s0.54 -0.68 1.06 -0.68a2.88 2.88 0 0 1 2.42 0.94 14.88 14.88 0 0 1 3.08 4.42 0.96 0.96 0 0 1 -0.34 0.96Zm43.22 -1.2a6 6 0 0 1 3.88 -2.68c1.48 -0.4 1.88 0.66 1.88 1.86a2.36 2.36 0 0 1 -1.48 2.42c-1.2 0.66 -2.4 1.34 -3.74 0.66s-1.22 -1.32 -0.6 -2.24Zm-7.28 17.28c1.48 0.5 1.06 1.86 0.54 2.66a25.26 25.26 0 0 1 -4.56 6 4.74 4.74 0 0 1 -4.68 0.68 8 8 0 0 1 -5.08 -6.82 3.08 3.08 0 0 1 2.38 -3.34 19.02 19.02 0 0 1 11.4 0.82ZM120 63.12c0.4 -1.74 1.74 -2.16 3.2 -2.56l0.94 0a9.16 9.16 0 0 1 5.76 2c1.34 1.06 1.06 1.86 -0.28 2.94a6.2 6.2 0 0 1 -7.34 0.54c-1.22 -0.66 -2.56 -1.18 -2.28 -2.92Zm-4.16 3.2a6 6 0 0 1 5.1 5.68c0 2.54 -2 4.14 -4.96 4.14a4.54 4.54 0 0 1 -4.94 -4.54 5.48 5.48 0 0 1 4.8 -5.28Z" fill="#ffc7d6" stroke-width="1"></path><path d="M127.76 87.72A6.28 6.28 0 0 0 131.1 92c1.08 0.52 2.14 0.8 3.08 -0.4 1.34 -1.62 2.54 -3.36 4 -5.22a20 20 0 0 0 -8.18 -0.92c-1.3 0.12 -2.7 0.54 -2.24 2.26Z" fill="#ffc7d6" stroke-width="1"></path><path d="M154.38 90.4c-2.14 -1.34 -4.94 -1.34 -6.96 -3.08 -0.4 -0.4 -0.66 0.28 -0.8 0.54 -1.6 1.74 -3.2 3.34 -4.68 5.22 -4 4.82 -9.76 5.48 -15.12 4.68a33.34 33.34 0 0 1 -25.16 -17.66c-0.8 -1.46 -1.46 -2.94 -2.26 -4.54a9.7 9.7 0 0 1 -6 3.6 121.82 121.82 0 0 0 11.5 13.38c4.3 4 9.5 6.56 14.2 9.9 0.4 0.28 0.92 0.54 1.34 0.82a16 16 0 0 0 6.68 0.4c2.68 -0.68 5.22 -1.34 8 -2.28 0.12 -0.28 0.4 -0.54 0.52 -0.8s0.54 -0.28 0.94 -0.4c3.22 -1.22 6.3 -2.18 9.42 -3.62a59.76 59.76 0 0 0 8.16 -5.22c0.08 -0.26 0.22 -0.66 0.22 -0.94Z" fill="#ffc7d6" stroke-width="1"></path><path d="M258 202.12a4.46 4.46 0 0 0 -3.34 3.62c-0.4 1.34 0.26 1.88 1.48 1.88a3.66 3.66 0 0 0 2.26 -0.8 48 48 0 0 1 6.16 -4.96 15.3 15.3 0 0 0 -6.56 0.26Z" fill="#ffc7d6" stroke-width="1"></path><path d="M311.32 204.54a1.68 1.68 0 0 1 -0.52 0.4c-2.68 1.74 -4.96 2 -7.24 0.26 -1.06 -0.8 -1.46 -0.52 -2.26 0.4 -6.84 7.5 -18.6 5.5 -21.68 -3.6a14 14 0 0 1 4.82 -15.26 11.2 11.2 0 0 1 1.86 -1.48c0.68 -0.4 1.34 -0.92 2.42 -1.6a6.36 6.36 0 0 1 -7.36 -4.28 18.32 18.32 0 0 1 -0.68 -8.42c0.14 -0.94 0.28 -1.48 -0.92 -1.62a6.78 6.78 0 0 1 -5.62 -6c-0.14 -0.52 -0.14 -1.06 -0.68 -1.34a15.22 15.22 0 0 1 -6.42 4c-3.48 0.8 -7.76 0.4 -9.36 -3.88 -5.22 6.3 -6.96 16.86 -3.62 23.82a1.8 1.8 0 0 1 0.14 2.06 1.7 1.7 0 0 1 -2.14 0.54 2.88 2.88 0 0 0 -3.34 1.06 11.72 11.72 0 0 0 -3.22 5.76 4.86 4.86 0 0 0 4.14 6.16 13.46 13.46 0 0 0 7.24 -0.68 10.6 10.6 0 0 1 8 -0.8 4.88 4.88 0 0 0 5.22 -0.94c0.26 -0.12 0.54 -0.4 0.8 -0.54 1.6 -0.66 2.68 0 2.42 1.74s-0.82 3.48 -1.22 5.22c-0.12 0.68 -0.4 1.22 0.14 1.88a11.5 11.5 0 0 1 2 7.76c-0.12 1.34 0.4 1.74 1.62 2a43.1 43.1 0 0 0 10.3 0.82 1.7 1.7 0 0 0 1.2 -0.54 22 22 0 0 1 1.88 -1.48 28.8 28.8 0 0 1 7.88 -4.82 56.16 56.16 0 0 1 14 -4.68 10.54 10.54 0 0 0 1.06 -1.6c-0.18 -0.46 -0.44 -0.46 -0.86 -0.32Zm-55.12 -36.66c-0.24 -0.94 0.54 -1.34 1.34 -1.74a5.42 5.42 0 0 1 2.94 -0.4 11.36 11.36 0 0 1 10.3 9.76c0 0.68 0 1.34 -0.66 1.48s-1.2 -0.4 -1.48 -0.94a15.08 15.08 0 0 0 -3.88 -5.76 6.78 6.78 0 0 0 -6.42 -1.74c-0.94 0 -1.86 0.4 -2.14 -0.66Zm5.62 17.52a2 2 0 0 1 -3.88 0.14 10.5 10.5 0 0 1 -0.26 -6.56 1.76 1.76 0 0 1 3.34 -0.26 13.36 13.36 0 0 1 0.8 6.68Zm8 9.64c-3.22 0 -6 -2.14 -6 -4.68a5.06 5.06 0 0 1 5.48 -4.96 4.94 4.94 0 0 1 4.94 4.96 4.42 4.42 0 0 1 -4.38 4.68Z" fill="#ffc7d6" stroke-width="1"></path><path d="M267.3 214.98c-0.66 0.42 -0.8 2.14 -0.12 3.2a2.52 2.52 0 0 0 2 1.08 1.72 1.72 0 0 0 0.4 -0.54c0.68 -1.08 1.34 -1.6 2.28 -1.6a14.42 14.42 0 0 0 -1.08 -7.24c-1.2 1.74 -1.44 3.8 -3.48 5.1Z" fill="#ffc7d6" stroke-width="1"></path><path d="M77.58 382.22c-0.66 -7.62 -1.2 -15.24 -1.2 -22.88 0 0 -0.68 -14 -0.94 -20.86 -0.14 -2.68 0.4 -3.08 3.08 -2.68l6.96 1.2c0.94 0.14 1.34 0 1.46 -1.08l0 -0.12c1.48 -6.7 1.48 -6.7 -4.94 -8.96s-13.52 -4.96 -20.48 -7.64a59.02 59.02 0 0 1 0.94 8.16c0 3.76 1.34 6.16 5.22 6.7 1.48 0.26 1.74 1.46 1.88 2.94 0.26 6.16 2.66 47.36 2.66 47.36a1.6 1.6 0 0 1 -0.92 1.6l0 0.14c0 1.34 0.12 2.54 2 1.88a4.22 4.22 0 0 1 2.54 0.4c2.14 0.4 2.4 0.26 2.14 -2 0 -0.68 -0.14 -1.34 -0.14 -2a3.2 3.2 0 0 1 -0.12 -1.06 2.58 2.58 0 0 1 -0.14 -1.1Z" fill="#ffc7d6" stroke-width="1"></path><path d="M369.8 304c-0.8 0.26 -1.2 0.54 -1.2 1.48 0.12 1.46 0.12 2.94 0.12 4.54 0.28 0 0.42 -0.12 0.68 -0.12 1.34 -0.54 2.68 -0.82 4 -1.48 4 -1.88 6.68 -0.54 6 4.96 0 0.26 -0.14 0.52 -0.14 0.8a95.6 95.6 0 0 0 -2.14 16.18 128.8 128.8 0 0 1 -3.12 22.82c-0.14 0.94 -0.4 1.88 -0.54 2.82 -0.52 3.48 -0.92 6.82 -1.6 10.3 -0.14 0.54 -0.14 1.08 -0.26 1.48l1.06 0c2.54 -0.28 5.08 -1.08 7.62 -1.48 1.62 -0.26 2.16 -1.2 2.42 -2.68 0.4 -3.74 1.06 -7.36 1.48 -11.1 0.66 -5.88 2.4 -11.64 2.14 -17.66a55.38 55.38 0 0 1 -0.28 -6.56c0.14 -5.34 0.54 -10.7 0.68 -14.44 0 -6 -0.4 -10.18 -0.8 -14.6l0 -0.26c-0.28 0 -0.42 0.14 -0.68 0.14 -5.14 1.74 -10.36 3.3 -15.44 4.86Z" fill="#ffc7d6" stroke-width="1"></path><path d="M52.82 151.42a15.16 15.16 0 0 0 1.08 -2c2 -5.62 1.2 -11.38 0.14 -17 -0.28 -1.6 -0.94 -1.6 -2.28 -1.34 -4.68 0.8 -9.1 2.54 -13.78 3.08 -1.08 0.14 -0.8 0.66 -0.54 1.2a11.48 11.48 0 0 1 -2.94 11.1 40.96 40.96 0 0 0 -6.7 10 6 6 0 0 0 -0.8 3.88c0.68 -0.92 1.08 -1.6 1.62 -2.26 0.92 -1.48 2 -2.82 2.94 -4.28 0.52 -0.68 1.06 -1.34 2 -0.68s0.4 1.2 0.14 1.88 -0.94 1.74 -1.34 2.68a22.8 22.8 0 0 0 -2.36 6.58 121.04 121.04 0 0 0 6.96 -10c0.54 -0.8 1.06 -2 2.28 -1.2s0.4 1.74 0 2.42a26.96 26.96 0 0 0 -2.82 6.68 4.86 4.86 0 0 0 2.14 -1.88c3.22 -4 6.16 -8.28 9.1 -12.44 0.54 -0.8 1.2 -1.74 2.28 -1.06s0.54 1.46 0.14 2.26a8.38 8.38 0 0 0 -0.94 4.42c0.12 0.8 0.26 1.2 0.8 0.94a32.42 32.42 0 0 1 2.88 -2.98Z" fill="#ffc7d6" stroke-width="1"></path><path d="M179.54 207.22c0.26 1.46 1.34 1.6 2.68 1.6l0.26 0a8.14 8.14 0 0 0 0.4 -1.6 4.3 4.3 0 0 1 0.26 -1.34 1.82 1.82 0 0 0 -0.12 -0.8c-0.14 -0.94 -0.4 -1.88 0.54 -2.68s1.86 -0.28 2.8 0.12c3.08 1.62 14 7.24 16.32 8.58a1.04 1.04 0 0 0 1.34 0 1.08 1.08 0 0 0 -0.26 -1.22 10.32 10.32 0 0 0 -3.08 -2.8c-1.88 -1.34 -3.88 -2.68 -5.76 -4 -0.66 -0.54 -1.34 -1.2 -0.8 -2s1.34 -0.26 2.14 0c0.4 0.14 0.68 0.8 1.34 0.4a5.54 5.54 0 0 0 1.34 -6.82 5.16 5.16 0 0 1 -1.2 -3.88c0.8 -2.54 -0.68 -4.16 -2.28 -5.76a67.24 67.24 0 0 0 -8.44 -5.62c-1.06 -0.8 -1.32 -0.4 -1.86 0.54 -2.42 4.42 -4.82 8.82 -8.84 12a29.68 29.68 0 0 1 2.54 8.84c0.4 1.88 0.4 4.16 0.68 6.44Z" fill="#ffc7d6" stroke-width="1"></path><path d="M240.82 269.84a7.4 7.4 0 0 0 -0.68 1.6c-0.66 4 1.88 6.68 3.88 9.9a4 4 0 0 0 0.4 -3.88 20.92 20.92 0 0 1 -1.2 -7.1c0 -0.66 0.4 -1.74 -0.4 -2s-1.6 0.66 -2 1.48Z" fill="#ffc7d6" stroke-width="1"></path><path d="M250.86 264a0.48 0.48 0 0 0 -0.14 -0.4c-0.54 -0.8 -1.74 -0.4 -2.68 -0.4s-1.6 0.8 -1.88 1.74a16.54 16.54 0 0 0 -0.52 4.4c0 0.82 0.12 1.74 0.12 2.56s0 1.46 0.68 1.46a2.28 2.28 0 0 0 0.26 -0.94c0 -0.12 -0.12 -0.26 -0.12 -0.4a2.86 2.86 0 0 1 0.52 -1.46 27.5 27.5 0 0 1 2.54 -4.68 10 10 0 0 0 1.22 -1.88Z" fill="#ffc7d6" stroke-width="1"></path><path d="M237.34 278.26a4 4 0 0 0 0.94 5.62 27.62 27.62 0 0 0 5.62 2.54c-0.54 -1.2 0.26 -2.4 -0.68 -3.08a17.7 17.7 0 0 1 -4 -5.08c-0.54 -0.8 -1.22 -0.8 -1.88 0Z" fill="#ffc7d6" stroke-width="1"></path></g><g><path d="M180.74 135.36a3.86 3.86 0 0 0 3.26 3.48c5.34 1.34 10.56 2.68 16 3.88 3.08 0.68 4.28 -0.4 4.14 -3.62s0 0.62 -2.4 -29.42a2.92 2.92 0 0 0 -2.96 -2.96c-6.14 -0.4 -12.3 -0.8 -18.18 -1.06 -3.48 -0.14 -4.56 0.8 -4.28 3.34 0.94 8.84 2.66 17.54 4.42 26.36Zm2.54 -14.84c0.14 -1.08 1.2 -0.94 1.88 -0.94 2.68 0.4 5.22 0.8 8 1.34 2 0.32 1.8 2.7 -0.42 2.26 -2.66 -0.4 -5.2 -0.8 -7.88 -1.34 -0.86 -0.12 -1.7 -0.4 -1.58 -1.32Zm14.18 13.9c-0.26 0.68 -0.8 0.8 -1.74 0.8a83.7 83.7 0 0 1 -9.36 -2.4 0.9610411021 0.9610411021 0 1 1 0.4 -1.88c3.22 0.68 6.42 1.34 9.78 2.14 0.52 0.28 1.06 0.68 0.92 1.34Zm-1.74 -4.54c-3.08 -0.68 -6.14 -1.2 -9.22 -1.74 -0.8 -0.14 -1.48 -0.4 -1.34 -1.34s0.8 -0.94 1.86 -0.8c2.82 0.54 6 1.06 9.1 1.6 2.22 0 1.88 3.04 -0.4 2.28Zm-11.36 -16.6c8.84 0.8 10.84 0.46 10.84 2.28 -0.14 1.2 -1.22 0.94 -2 0.94l-8.96 -0.8c-0.8 -0.14 -1.74 -0.28 -1.6 -1.34s0.92 -1.2 1.72 -1.08Z" fill="#a6eef8" stroke-width="1"></path><path d="M133.1 248.16c1.08 -2.54 2.14 -5.08 3.22 -7.64 0.26 -0.66 0.66 -1.2 0.54 -1.86 -0.8 -0.4 -1.62 -0.8 -2.54 -1.2 -0.54 0.12 -0.82 0.66 -1.22 1.32a57.36 57.36 0 0 0 -4.8 10 2.28 2.28 0 0 1 -2.68 1.72 81.16 81.16 0 0 1 -14 -1.72c-12.3 -2.42 -24.22 -6 -34.64 -13.38 -6.16 -4.42 -12.86 -8.18 -18.88 -12.72 -0.66 0.66 -1.34 1.34 -2 2.14 0.4 0.4 0.8 0.94 1.2 1.34 4.42 4.42 9.78 7.62 14.72 11.38 14.64 11.26 33.1 16 51.64 17.78 0.82 0 2.42 -0.4 1.88 1.62 -3.32 12.56 -0.26 15.38 -3.08 15.38a127.08 127.08 0 0 1 -22.74 -1.48 110.6 110.6 0 0 1 -23.42 -7.36 205.7 205.7 0 0 1 -22.34 -10 25.76 25.76 0 0 0 -2.42 -1.48c0.14 1.48 0.28 2.94 0.42 4.56 4.62 3.7 11.68 6.58 17.12 8.96 15.24 6.64 25.52 10.5 42 11.5a56.64 56.64 0 0 0 11.64 0.26c1.32 -0.12 1.6 0.42 1.86 1.34a20 20 0 0 0 3.88 9.1 1.14 1.14 0 0 1 0.14 -0.66c0.66 -1.2 1.74 -0.68 2.54 -0.14a14.8 14.8 0 0 0 -0.54 -2.4c-4.6 -13.94 -1.78 -23.48 2.5 -36.36Z" fill="#a6eef8" stroke-width="1"></path><path d="M146.22 292c0 -2.94 0.14 -5.88 0.26 -8.82a84.66 84.66 0 0 1 8.44 -33.18c0.54 -1.2 0.4 -1.74 -0.68 -2.42s-1.86 -0.4 -2.4 0.54c-6.88 10.32 -9.46 23.2 -10 35.6a24.7 24.7 0 0 0 1.34 9.9 5.7 5.7 0 0 1 1.48 1.06c0.36 -0.1 1.5 0.16 1.56 -2.68Z" fill="#a6eef8" stroke-width="1"></path><path d="M167.76 266a9.22 9.22 0 0 1 -2.68 -3.2 0.52 0.52 0 0 1 -0.12 0.26 60.4 60.4 0 0 0 -5.5 10.44 62.12 62.12 0 0 0 -5.88 23.42 33.32 33.32 0 0 0 0.14 4c0.92 0.82 2 1.48 2.94 2.28 2.32 -4.58 0.28 -15.84 11.1 -37.2Z" fill="#a6eef8" stroke-width="1"></path><path d="M224.36 135.1a85.58 85.58 0 0 0 14.98 7.76 42 42 0 0 0 7.76 2.68 6.42 6.42 0 0 0 3.4 -2c1.16 -1.36 -0.8 -1.6 -1.52 -1.84 -2.68 -0.94 -5.36 -1.88 -8 -2.96 -7.22 -2.94 -14.7 -5.62 -20.46 -11.36a15.06 15.06 0 0 0 -1.74 2.26 22.26 22.26 0 0 0 5.58 5.46Z" fill="#a6eef8" stroke-width="1"></path><path d="M245.5 174.96c2.8 0.82 3.48 0.28 3.34 -2.8 0.4 -0.94 -0.54 -1.08 -1.2 -1.2 -11.86 -3.3 -17.88 -4 -26.36 -6.96l-0.8 -0.4a5.56 5.56 0 0 0 0.94 4.28 23.74 23.74 0 0 0 3.34 1.34c6.7 2.66 13.9 3.76 20.74 5.74Z" fill="#a6eef8" stroke-width="1"></path><path d="M241.88 158.1c2 -0.8 1.62 -4.52 -0.66 -4.4a27 27 0 0 1 -8.7 -0.68 38.72 38.72 0 0 1 -12.18 -4.42l-0.12 -0.12a41.18 41.18 0 0 1 1.32 5.48 34.26 34.26 0 0 0 15.8 4.68 16.34 16.34 0 0 0 4.54 -0.54Z" fill="#a6eef8" stroke-width="1"></path><path d="M136.18 348.64c-0.12 2.28 -0.12 4.54 -0.26 6.82 5.18 -5.18 4 -4 9.76 -10.3a4.86 4.86 0 0 0 1.2 -1.74c-0.16 -0.34 -1.06 -3.08 -1.46 -4.28 -0.2 0.1 -9.1 9.3 -9.24 9.5Z" fill="#a6eef8" stroke-width="1"></path><path d="M102.6 370.58c-2.8 -0.94 -5.36 -1.6 -7.76 -2.68s-2 -0.56 -7.5 -2.4a45.26 45.26 0 0 0 -6.28 -0.8c-0.26 0 -0.8 -0.28 -0.94 0 -0.9 1.34 -0.4 1.28 -0.4 4.28a100.66 100.66 0 0 0 22.88 1.6Z" fill="#a6eef8" stroke-width="1"></path><path d="M325.64 159.04c1.46 0.56 2.42 -0.4 3.08 -1.6 1.34 -2.4 2.54 -4.82 3.76 -7.22a1.6 1.6 0 0 0 -0.14 -2 1.88 1.88 0 0 0 -2 -0.52c-2.66 0.66 -6.14 5.34 -6.28 8.96a2.14 2.14 0 0 0 1.58 2.38Z" fill="#a6eef8" stroke-width="1"></path><path d="M327.52 172.42a2.86 2.86 0 0 0 -2.94 0.68 15.76 15.76 0 0 0 -3.62 6.9 2 2 0 0 0 1.34 2.4 1.84 1.84 0 0 0 2.54 -0.4 20.6 20.6 0 0 0 4 -7.76 2.28 2.28 0 0 0 -1.32 -1.82Z" fill="#a6eef8" stroke-width="1"></path><path d="M307.32 127.86a2 2 0 0 0 -2.68 0.68 22.88 22.88 0 0 0 -4 6.68 2.46 2.46 0 0 0 2.14 3.36 1.6 1.6 0 0 0 1.48 -0.54 24.84 24.84 0 0 0 4.14 -7.62c0.12 -1.08 -0.02 -2.14 -1.08 -2.56Z" fill="#a6eef8" stroke-width="1"></path><path d="M293.4 147.8a1.86 1.86 0 0 0 -2.54 -0.12 14.56 14.56 0 0 0 -4.14 7.08 2.4 2.4 0 0 0 4.4 1.48 32.2 32.2 0 0 0 3.08 -6 2.5 2.5 0 0 0 -0.8 -2.44Z" fill="#a6eef8" stroke-width="1"></path><path d="M269.58 140.32a16.46 16.46 0 0 0 -3.74 7.68 2.0082330542 2.0082330542 0 0 0 3.62 1.74 20.28 20.28 0 0 0 3.6 -7.62c0 -2.12 -2.68 -2.86 -3.48 -1.8Z" fill="#a6eef8" stroke-width="1"></path><path d="M309.06 159.44c-1.62 0.4 -4.56 4.68 -4.56 6.96a2.44 2.44 0 0 0 4.16 1.6c1.6 -1.6 2 -3.88 3.08 -5.74s0.06 -3.28 -2.68 -2.82Z" fill="#a6eef8" stroke-width="1"></path><path d="M304.78 197.72c0.96 -2 1.86 -4.16 2.66 -6.16 0.28 -0.8 0.42 -1.74 -0.52 -2.28a1.84 1.84 0 0 0 -2.54 0.28 18.56 18.56 0 0 0 -3.88 6.68 2.64 2.64 0 0 0 0 1.48 6.64 6.64 0 0 0 1.32 -0.4c1.22 -0.14 1.88 0.26 1.48 1.6 0.54 0 1.08 -0.4 1.48 -1.2Z" fill="#a6eef8" stroke-width="1"></path><path d="M137.38 324.96c-0.12 1.88 -0.26 3.74 -0.4 5.48 0.2 -0.1 4.76 -3.28 4.96 -3.48 -0.26 -1.6 -0.68 -3.08 -0.94 -4.68a14.78 14.78 0 0 1 -3.62 2.68Z" fill="#a6eef8" stroke-width="1"></path><path d="M342.9 185a9.5 9.5 0 0 0 2.14 -4.42c0.4 -1.6 -0.52 -2.66 -2.26 -2.8a2.18 2.18 0 0 0 -1.08 0.4 12.2 12.2 0 0 0 -2.8 4.94 2.32 2.32 0 0 0 4 1.88Z" fill="#a6eef8" stroke-width="1"></path><path d="M129.1 300.34c1.68 2.1 0.94 1.26 4.54 2.8a7.6 7.6 0 0 1 1.74 0.94c1.56 0 2.9 -0.4 3.62 -0.4 0 -0.94 -0.14 -1.86 -0.14 -2.68 -0.76 -0.76 -8.66 -0.7 -9.76 -0.66Z" fill="#a6eef8" stroke-width="1"></path></g><g><path d="M383.44 252c-0.66 -1.6 -2.14 -0.94 -3.34 -0.54 -1.74 0.54 -3.34 1.2 -5.08 1.88 -0.8 0.4 -1.2 0.26 -1.6 -0.68 -7.26 -15.38 -21.78 -28.52 -34.26 -35.18 -1.74 -0.94 -4.5 -2.26 -5.3 -4s-0.18 -2.82 -0.18 -4.96c0 -3.8 -2.24 -2.9 -7.76 -3.36 -0.4 0 -1.22 0.14 -1.22 -0.66s0.54 -0.68 0.94 -0.68a12.52 12.52 0 0 0 9.64 -9.22c0.7 -2.22 1.34 0.64 6 -0.14 13.56 -2.54 17.64 -22.6 3.62 -24.88a25.7 25.7 0 0 0 -3.62 -0.4A11.2 11.2 0 0 1 342 168c0.28 -0.4 0.42 -0.8 0.68 -1.2 3.22 -7.36 4 -14.84 -0.14 -22.2 -4.42 -7.76 -11.64 -10.84 -20.2 -8.3 -1.2 0.4 -1.6 0.26 -1.88 -1.2a23.52 23.52 0 0 0 -5.34 -11.52 11.1 11.1 0 0 0 -7.12 -4.28 24.7 24.7 0 0 0 -17.12 2.54c-0.26 0.14 -0.68 0.68 -1.08 0.4A5.4 5.4 0 0 1 292 120c7.56 -5.04 9.38 -9.76 11.24 -17.66s2.82 -16.46 0.26 -24.76a10.38 10.38 0 0 0 -7.16 -7.58 5.66 5.66 0 0 1 -3.34 -2.82 17.48 17.48 0 0 0 -9.9 -8.3 62.6 62.6 0 0 0 -26.76 -2 8.88 8.88 0 0 0 -3.34 1.08c-0.4 0.26 -0.8 0.52 -0.68 1.04a60 60 0 0 1 -3.88 -5.06c-0.8 -1.34 -1.74 -1.08 -2.4 0.54a6.28 6.28 0 0 1 -1.88 3.6c-0.54 -2 -1.02 -3.88 -1.6 -5.74 -0.38 -1.22 -0.68 -2.54 -2.28 -2.82s-2.42 0.78 -3.34 1.74a18 18 0 0 0 -2.82 5.22c-1.06 -0.8 -1.2 -2.54 -2.94 -2 -2.86 0.8 -2.5 4 -2.8 6.68 -0.94 -0.4 -1.22 -1.2 -1.74 -1.74 -0.94 -0.94 -1.74 -1.74 -3.08 -1.46s-1.76 1.6 -2 2.8a17.4 17.4 0 0 0 2.96 12.44c1.06 1.88 3.74 2.68 3.48 4.96a28.9 28.9 0 0 1 -2.28 6c-0.14 0.26 -0.26 0.66 -0.4 0.94a20.32 20.32 0 0 0 0 16.32c2.36 5.22 -3.08 6.62 1.86 19 -0.26 0.14 -0.4 0.14 -0.52 0.26a15.84 15.84 0 0 0 -8 4.96 6 6 0 0 0 -1.06 1.46 15.48 15.48 0 0 0 -1.74 13.26c1.34 4.54 1.9 7.6 3.52 12.14 0.8 2.14 1.7 5.78 0.62 7.78a9.32 9.32 0 0 0 1.6 12c0.28 0.28 0.82 0.54 0.68 1.2 -0.66 -0.14 -25.72 -5.66 -39.08 -7.5 -1.2 -0.16 -2.14 -0.8 -2 -2a8.22 8.22 0 0 0 -1.06 -4c-1.54 -3.64 -3.08 -7.08 -4.7 -10.56a16.98 16.98 0 0 1 -1.6 -8.96 12 12 0 0 0 -4.14 -10.98 8.76 8.76 0 0 1 -2.82 -5.22 107.32 107.32 0 0 1 -1.46 -19.8c0.52 -9.9 -3.62 -15.38 -13.26 -17.52l-2 -0.4c-0.94 -0.14 -1.48 -0.4 -0.66 -1.48 5.22 -7.1 6.82 -15.26 7.62 -23.68 0 -0.68 0.4 -1.88 -0.68 -2s-1.06 0.92 -1.32 1.6c-2.8 11.14 -4.52 22.14 -13.78 30.5a16 16 0 0 1 -14.32 4 33.78 33.78 0 0 1 -20.22 -13.12 22.1 22.1 0 0 0 -3.66 -4.36c-0.94 -0.8 -1.86 -2.4 -1.34 -3.48 0.7 -1.46 0 -1.06 -0.8 -1.46 -4 -1.62 -7.22 -8.3 -3.22 -12.86 2.14 -2.4 4 -2.44 5.76 0.4 1.38 2.32 1.62 4.56 2.94 4.16 0.94 -0.3 0.68 -1.08 0.68 -1.6a9.7 9.7 0 0 0 -0.82 -3.16c-2.2 -5.5 -7.76 -6.38 -11.64 -0.26 -2.92 4.6 -1.74 9.62 2.96 14.18 -3.08 3.48 -5.36 3.48 -8 0a1.74 1.74 0 0 0 -1.88 -0.68c-4.26 0.62 -6.2 -1.84 -5.08 -6 0.14 -0.52 0.28 -1.06 -0.26 -1.46 -1.5 -1.12 -2 1.34 -4.68 2.26a2.9 2.9 0 0 1 -3.62 -0.92 9.46 9.46 0 0 1 -1.6 -8.98 7.7 7.7 0 0 1 6.28 -5.74c3.76 -0.68 4.82 -0.8 5.62 -5.9a13.82 13.82 0 0 0 0.14 -2.4 14 14 0 0 1 7.08 -12.32c3.7 -2.22 6 -1.64 5.62 -3.2 -0.26 -0.94 -1.2 -0.94 -2 -0.8a4 4 0 0 0 -1.2 0.12 15.28 15.28 0 0 0 -12 12.32c-0.28 2.28 -0.54 4.54 -0.68 6.82a2.42 2.42 0 0 1 -2.4 2.54 11.5 11.5 0 0 0 -9.64 10 14.28 14.28 0 0 0 2 8.42 10.74 10.74 0 0 1 -5.08 0.4 21.18 21.18 0 0 1 -6.9 -2.4 6.26 6.26 0 0 0 -6.82 0.54 3.14 3.14 0 0 1 -0.8 0.54 17.54 17.54 0 0 1 -8.3 2.66A44.24 44.24 0 0 0 24 77.16a21.66 21.66 0 0 0 -6 6.56 2 2 0 0 0 -0.4 2.14c0 0.14 0.14 0.14 0.14 0.26 0.8 -0.8 1.46 -1.6 2.26 -2.28 5.84 -6.32 11.26 -8.68 19.54 -10.56 0.2 0 4 -0.82 4.68 -0.94A19.68 19.68 0 0 0 54.4 68.2a3.56 3.56 0 0 1 4.54 0.26c6.44 4.48 13.22 2 18.2 1.6 0.4 0 0.8 -0.12 1.34 -0.12l0.54 0c1.58 0 0.5 1.08 2 3.08a4.72 4.72 0 0 0 3.48 1.86 5.72 5.72 0 0 1 2.14 0.54 15.6 15.6 0 0 1 2.68 1.88 29.16 29.16 0 0 1 2.26 2.14c2.32 2.3 6.88 10.98 12.74 15.04a131.66 131.66 0 0 1 12.96 9.9c2.86 2.44 6.6 2.26 10.44 1.42a100.8 100.8 0 0 0 13.64 -4.82c6.92 -3.18 12.36 -4.98 15.56 -8.98 0.54 -0.54 0.8 0 1.2 0.26a9.58 9.58 0 0 1 1.74 1.48 9.12 9.12 0 0 1 2.56 5.48c0.66 6.82 1.2 13.52 2 20.34 0.54 3.88 0.4 8.16 3.34 11.24a10.24 10.24 0 0 1 2.68 8.7c-0.92 8.54 5.06 16.88 8.82 25.82a51.7 51.7 0 0 0 3.08 7.08c2 3.78 2.72 3.14 2 4.56a0.12 0.12 0 0 1 -0.14 0.12c-1.88 2.56 -3.54 5.18 -5.36 7.76 -0.26 0.4 -0.66 0.82 -0.92 1.22a4.36 4.36 0 0 1 -3.36 1.86 4.44 4.44 0 0 1 -1.74 -0.26 26.44 26.44 0 0 1 -11.5 -8.7 4.7 4.7 0 0 1 -0.8 -4.28c0.14 -0.66 0.26 -1.34 0.4 -1.88a19.22 19.22 0 0 0 0 -6.42c-1.08 -4 -4.3 -4 -8.44 -3.48l-1.32 0.4c-0.42 0.14 -0.82 0.28 -1.08 0a33.78 33.78 0 0 1 -5.22 -3.48c2.16 -0.14 8.12 -0.66 10.3 -0.66a39.4 39.4 0 0 0 6.82 -0.8c1.08 -0.28 2.28 -0.68 2.42 -2s-0.68 -2.14 -1.6 -2.8a25.22 25.22 0 0 0 -3.36 -1.88 19.14 19.14 0 0 0 4.96 -1.34c1.06 -0.52 2.14 -1.2 2.28 -2.54a2.36 2.36 0 0 0 -1.34 -2.26 23.84 23.84 0 0 0 -3.88 -1.74 55.76 55.76 0 0 0 -13.12 -2.42c-0.66 0 -1.48 0.28 -1.74 -0.66a11.42 11.42 0 0 0 -2.28 -6.3 2.58 2.58 0 0 1 -0.4 -2.26 27.64 27.64 0 0 0 0.96 -6.16 40.48 40.48 0 0 0 -0.8 -10.84c-0.14 -0.8 -0.4 -1.74 -1.48 -1.6s-1.06 1.2 -0.92 2c0.12 1.34 0.26 2.54 0.4 3.74a30.3 30.3 0 0 1 -1.88 15c-0.14 0.12 -0.14 0.4 -0.26 0.52 -0.28 0.54 -0.4 0.82 -0.82 0.94a1.52 1.52 0 0 1 -1.32 -0.12 60 60 0 0 0 -9.38 -3.08 73.5 73.5 0 0 0 -18.42 -2.14c-10.94 0 -20.48 4.94 -28.5 12.16 -5.14 4.84 -3.3 9.14 -5.36 13.26s0 7.24 0.68 10c0.88 3.82 2.36 7.42 2.92 11.24 -0.26 0 -0.38 -0.12 -0.64 -0.12 -2.52 -0.68 -3.88 -0.86 -9.38 -2.68 -2.54 -0.94 -5.16 -1.78 -6.68 -4.14 -3.56 -5.58 -7.16 -10.32 -10 -15.26 -0.26 -0.54 -0.54 -0.8 0 -1.34 4.28 -4.28 4.96 -9.76 4.42 -15.38 -0.94 -8 5.64 -11.56 7.5 -14.2 3.34 -4.14 4.8 -9.08 6.68 -14 0.4 -1.34 0.8 -1.2 1.74 -0.54a21.06 21.06 0 0 0 4.94 2.94c0.54 0.28 1.22 0.42 1.48 -0.12s-0.14 -1.06 -0.66 -1.34c-3.4 -1.8 -6.16 -4.82 -10 -5.9s-8 -1.86 -11.9 -3.06a4.9 4.9 0 0 1 -3.76 -3.22 7.86 7.86 0 0 0 -3.48 -3.9c-0.54 -0.4 -1.2 -0.66 -1.74 0.14s0 1.06 0.4 1.46a9.08 9.08 0 0 1 2.54 3.88c1.1 2.92 -0.54 4 0.68 6a3.12 3.12 0 0 0 0.92 1.06 2.48 2.48 0 0 1 1.2 2.32 118 118 0 0 1 -1.6 16.72c-0.14 0.54 -0.4 0.8 -0.94 0.8 -7.3 1.04 -11.64 3.22 -13.38 3.22 -0.54 0 -0.96 -0.4 -1.48 -1.08 -1.64 -2.12 -1.86 -4.82 -3.08 -7.1 -8 -16 -15.82 -35.44 -16.72 -35.44 -0.14 0 -0.26 -0.14 -0.4 0s-0.26 0.52 -0.4 0.8a8 8 0 0 0 0.94 4c4.82 13.12 11.5 25.56 16.58 38.54a12.7 12.7 0 0 1 -0.8 12.18c-4 6.18 -8.46 11.34 -8.7 17.12 -0.12 2.42 1.08 3.22 3.48 2.42 -0.66 2 -0.26 4.14 -1.2 5.88 -3.72 6.56 -6.78 13.38 -9.74 20.26 -1.86 4.56 -4 9.1 -4.28 14a192.42 192.42 0 0 0 1.22 26.48c0.26 2.28 0.52 5.1 3.88 5.5 0.52 0 0.52 0.4 0.52 0.8 0.54 8.16 2.96 15.78 4.28 23.82 0.82 4.68 2.42 9.36 2.68 14 0.54 10.58 3.62 58.88 4.42 72.66a3.48 3.48 0 0 0 2.94 3.6c7.36 2 14.72 4.42 22.22 6.3a8.82 8.82 0 0 1 6.28 5.22 16.66 16.66 0 0 0 5.08 6.82 5.44 5.44 0 0 1 2.42 5.48 106 106 0 0 0 0.66 11.1c0 0.94 0.54 1.74 1.62 1.62 0.12 0 0.26 -0.14 0.4 -0.14a1.62 1.62 0 0 0 0.92 -1.6s-2.54 -41.22 -2.66 -47.38c0 -1.32 -0.4 -2.66 -1.88 -2.94 -3.88 -0.66 -5.22 -2.94 -5.22 -6.68a58.68 58.68 0 0 0 -0.94 -8.16c7.1 2.54 13.78 5.08 20.48 7.62 6.28 2.28 6.28 2.28 4.94 8.96 0 0.36 0 1.44 -1.46 1.2 -2.28 -0.4 -4.56 -0.74 -6.96 -1.2s-3.22 0 -3.08 2.68c0 0.9 2 45.38 2.28 46s0.52 1.22 1.34 1.08c1.46 -0.14 1.46 -1.34 1.32 -2.4a58 58 0 0 1 -0.26 -6.84c10.32 5.68 4.84 0.24 23.14 7.36a74.98 74.98 0 0 0 18.74 3.88c8.74 0.98 7.68 -1.82 11.46 -6.28 7.44 -9.04 10.18 -16.36 18.36 -25.16a24 24 0 0 0 4 -4.36c1.2 -2.28 -0.44 -4.2 -2.72 -5.54 -0.68 -0.4 -1.08 -0.42 -1.48 -1.22 2 -0.32 24 -5.66 29.04 -6.94 9.76 -2.4 19.8 -3.22 29.44 -5.76 0.64 -0.22 -0.3 -0.14 15.66 4.28 2.12 0.54 2.66 1.74 2.66 3.88 0 7.76 -1.06 15.4 -1.6 23.02 -0.14 2.68 -1.34 5.76 0 8s0.54 4.4 -0.4 6.42a64.3 64.3 0 0 0 -3.74 8.42c-0.28 0.8 -0.4 1.74 0.52 2s1.34 -0.4 1.74 -1.06c2 -3.88 3.88 -7.76 5.5 -11.78a4 4 0 0 0 -0.54 -4 3.76 3.76 0 0 1 -0.8 -2.42c0.4 -3.48 0.66 -6.96 0.94 -10.44a172.84 172.84 0 0 0 1.06 -20 4.2 4.2 0 0 0 -3.08 -4.16 110.66 110.66 0 0 0 -14.32 -3.48c-2.26 -0.4 -4.54 -1.6 -7.08 -1.06 -10 1.74 -19.76 3.54 -29.44 5.88 -1.2 0.3 -1.74 0.14 -2 -1.2a49.46 49.46 0 0 1 -2.14 -11.78 19.2 19.2 0 0 0 -8.76 -16.1 0.14 0.14 0 0 1 -0.14 -0.14c-0.4 -0.26 -0.92 -0.66 -0.4 -1.34s0.94 0 1.22 0.28a178.72 178.72 0 0 0 23.14 16.46c7.74 4.7 8.94 2.72 10.44 2.94a37.12 37.12 0 0 0 12.58 3.08c5.48 0.66 10.82 1.86 16.32 2a121.42 121.42 0 0 0 26 -1.74c1.46 -0.26 1.74 0.14 2 1.48 1.74 9.22 3.08 18.46 4.14 27.68 0.28 1.88 -0.26 2.54 -2 3.08a128.74 128.74 0 0 0 -20.48 8.7c-0.78 0.42 -2 0.94 -1.46 2s1.6 0.42 2.4 0.42a2.88 2.88 0 0 0 1.48 -0.54c6.16 -2.28 12.44 -4.56 18.72 -6.42 13.8 -4 27.44 -8.16 41.88 -8.84a65.88 65.88 0 0 0 7.76 -0.26c2.96 -0.54 2.96 1.78 9.1 6.56a45.84 45.84 0 0 0 36.26 9.5 5.62 5.62 0 0 0 3.88 -1.74c-0.4 -0.54 -0.92 -0.28 -1.2 -0.28 -14 0 -26.54 1.28 -43.34 -14.58a9.52 9.52 0 0 1 -2.82 -6.32 84.48 84.48 0 0 1 1.36 -31.54c0.38 -1.58 0.44 -2 1.68 -1.66a25.64 25.64 0 0 0 8 1.12c0.54 0 1.22 0.14 1.34 -0.54 0.96 -2.36 -8.6 -2 -15.78 -6.82a43.66 43.66 0 0 1 -16.6 -20.6c-0.4 -1.08 -0.12 -1.48 0.68 -2.14 3.46 -2.9 10 -8.16 10.96 -9.1a1.06 1.06 0 0 0 0.28 -1.34c-0.4 -0.54 -0.8 -0.14 -1.2 0a25.32 25.32 0 0 0 -3.36 1.74 165.26 165.26 0 0 1 -15.12 11.24c-1.56 1.24 -2.46 1.52 -3.34 2.4s-1.74 1.2 -2.68 1.88 -1.74 1.18 -2.54 1.74a71 71 0 0 1 -13.78 7.48c-4.2 1.48 -6.54 1.12 -9.24 -2.94a30.22 30.22 0 0 1 -4 -11.64c-0.92 -4.54 0.72 -8.32 2.54 -13.38 0.56 -1.58 0.94 -3.08 1.34 -4.68 0.26 -0.8 0.12 -1.74 0.66 -2.4 3.34 -4.68 6.96 -9.24 12.32 -12a2.72 2.72 0 0 0 1.06 -0.66c5.54 -4 1.24 -13.76 4.42 -24.9a8.68 8.68 0 0 1 7.1 -6.54 47.8 47.8 0 0 1 8.82 0.26 7.32 7.32 0 0 0 4.14 -1.2 0.72 0.72 0 0 0 0.42 -1.08c-0.14 -0.52 -0.54 -0.52 -0.94 -0.4s-0.94 0.8 -1.62 0a8.38 8.38 0 0 1 3.08 -3.34 56.9 56.9 0 0 1 38.9 -10.78c2.14 0.26 2.46 0.48 2 2.36a24.6 24.6 0 0 0 0.42 10c0.12 0.4 0.26 1.34 0.66 0.8 0.94 -0.8 2.8 -0.94 2.14 -3.08 8.98 3.74 19.3 12.9 25.42 19.54 10.1 11.22 8.8 14.8 12.62 18.62 -31.64 12.52 -30 12.54 -32.68 12.54 -2.14 -0.12 -2.96 0.94 -3.22 2.82 -1.34 10.46 -2.24 14 -5.88 53.66a184.72 184.72 0 0 0 -1.48 22.74c0.14 3.08 4.68 5.62 7.5 4.28a111.56 111.56 0 0 1 14 -6c6.3 -2.42 12.5 -4.84 18.6 -7.76a4 4 0 0 0 1.6 -1.08 0.96 0.96 0 0 0 0.14 -1.06c-0.4 -1.34 -1.74 -0.7 -2.68 -0.4 -0.4 0.12 -19.66 7.88 -28.76 11.76 -1.34 0.54 -1.74 0.54 -1.6 -1.06 1.44 -12.96 2 -26.82 4 -45.76 1.08 -9.76 2.28 -19.66 3.36 -29.44a2 2 0 0 1 1.74 -2c11.76 -4.28 23.4 -8.7 35.04 -12.98 1.32 -0.48 2.8 -1.02 2.24 -2.66ZM154.12 91.48a66.1 66.1 0 0 1 -19 9.9c-2 0.64 -8 2.4 -8.56 2.4a10.2 10.2 0 0 1 -6 -0.52 4.72 4.72 0 0 1 -1.34 -0.82c-4.7 -3.34 -10 -5.88 -14.18 -9.9a136.5 136.5 0 0 1 -11.52 -13.38 10.12 10.12 0 0 0 6 -3.6c0.8 1.6 1.6 3.08 2.26 4.54a33.34 33.34 0 0 0 25.16 17.66c5.36 0.94 11.1 0.14 15.12 -4.68 1.48 -1.74 3.04 -3.5 4.68 -5.22 0.26 -0.26 0.4 -0.94 0.8 -0.54 2 1.74 4.82 1.74 6.96 3.08 0.14 0.14 0.28 0.14 0.54 0.28l0.14 0.12a5.46 5.46 0 0 0 -1.06 0.68ZM227.04 110c0.52 -3.34 1.74 -6.68 0.12 -10.16 -2.94 -6.84 -0.12 -13.12 2.28 -19.28 0.4 -0.94 0.8 -1.2 1.88 -0.66a11.1 11.1 0 0 0 5.08 0.94c2.14 0.12 4.14 -0.94 6 -0.68a40 40 0 0 1 5.76 2.28 49.42 49.42 0 0 0 11.36 1.74 8.64 8.64 0 0 0 -3.88 2.68c-0.52 0.92 -0.8 1.86 0.14 2.66s1.08 0.14 1.08 -0.4c-0.4 -1.34 0.66 -1.74 1.6 -2.14 4 -1.86 7.1 -0.4 9.36 4.28 0.54 1.08 0.8 3.06 2.28 2.42s0.38 -2.26 0 -3.48a10 10 0 0 0 -5.34 -6.2c6.24 -1.66 8 -2 13.66 -6 0.38 -0.28 0.66 -0.54 1.06 -0.8s1.34 -1.2 0.94 -2c-1.02 -1.8 -3.5 1.1 -10.16 4.28a13.68 13.68 0 0 1 -4.82 1.34 39.22 39.22 0 0 1 -19 -2 22 22 0 0 1 -3.62 -1.6 0.46 0.46 0 0 0 -0.4 -0.14 2 2 0 0 0 -2 0.4c-0.4 0.28 -0.94 0.54 -1.34 0.8a5.52 5.52 0 0 1 -3.88 0.42c-0.4 -0.14 -0.94 -0.26 -1.34 -0.42a16.64 16.64 0 0 1 -10.16 -15.64 6.92 6.92 0 0 1 0.52 -1.88c1.34 1.74 2.4 3.24 3.48 4.56 0.8 0.94 1.2 2.94 2.94 2.26s0.68 -2.4 0.54 -3.74a13.64 13.64 0 0 1 0.28 -6.56c0.66 1.34 1.06 2.28 1.6 3.22a1.48 1.48 0 0 0 1.46 0.94c1.38 0 1.28 -1.36 1.74 -3.08a12.62 12.62 0 0 1 3.36 -6.36c0.8 0.8 0.66 1.74 0.92 2.68a21.5 21.5 0 0 0 2 5.62 1.58 1.58 0 0 0 1.34 1.08c0.66 0 0.94 -0.54 1.2 -1.22 0.66 -1.34 1.34 -2.54 2 -4.14a16.84 16.84 0 0 0 6.16 7.1 5.28 5.28 0 0 0 2.82 1.06c0.26 0 0.8 0.14 0.8 -0.4 0 -0.9 -1.24 -1.16 -4 -4.32l0.66 0a14.9 14.9 0 0 1 2.42 -0.4 69.44 69.44 0 0 1 19 0.66c7.22 0.94 13.5 3.48 16.86 10.58a3.5 3.5 0 0 0 2.54 1.74A8.88 8.88 0 0 1 301.3 79a40.82 40.82 0 0 1 0.4 18c-1.32 6.6 -2.24 11.82 -7.1 17.12 -3.02 3.38 -5.04 3.62 -6.56 6 -0.78 1.06 -0.38 0.68 -5.48 -4.4 5.36 -1.74 7.1 -3.22 8.3 -7.24a18.3 18.3 0 0 0 0.26 -9.36c-1.1 -4.62 -4.52 -5.7 -8.28 -2.54 -0.66 0.56 -1.08 1.48 -2.16 1.74 0 -11.9 0.6 -10.42 0.82 -18.86 0 -0.68 0.12 -1.48 -0.68 -1.74s-1.2 0.8 -1.34 1.46a89.8 89.8 0 0 0 -1.34 17.8c0 3.34 2 2.14 1.62 4a0.94 0.94 0 0 0 0.8 1.2c1.5 0.3 1.08 -1.86 4.68 -4.14 1.62 -1.04 2.4 -0.68 2.94 1.06a14.24 14.24 0 0 1 0.4 7.5 6.84 6.84 0 0 1 -6.16 6.16l-3.2 0.4c-0.8 0.12 -1.6 0.4 -1.74 1.32s0.4 1.34 1.2 1.48c0.4 0.14 0.54 0.54 0.94 0.8 2.4 2 4.28 4.68 6.82 6.56a1.2 1.2 0 0 1 0.14 2 16.7 16.7 0 0 0 -2.28 2.68c-0.64 1.08 -1.2 1.2 -2.28 0.54a13.8 13.8 0 0 0 -10.7 -2c-4.42 0.92 -8.7 2 -12.98 2.94a42.9 42.9 0 0 1 -18.46 -0.68 18 18 0 0 1 -9.64 -7.36 14.4 14.4 0 0 1 -3.2 -11.44Zm36.38 20.88a24.5 24.5 0 0 1 -2.14 3.48c-0.92 1.06 -2.4 0.66 -3.6 0.66a8 8 0 0 1 -4.96 -2.28 73.42 73.42 0 0 0 10.7 -1.92ZM221.54 168a5.52 5.52 0 0 1 -0.92 -4.28c0.12 -0.26 0.12 -0.52 0.26 -0.8 2.5 -5.22 0.38 -10.2 -0.54 -14.44a4.3 4.3 0 0 1 -0.26 -1.2c-0.8 -3.36 -1.74 -6.7 -2.42 -10a11.26 11.26 0 0 1 3.08 -9.78 14.24 14.24 0 0 1 6.7 -4.4 1.38 1.38 0 0 1 1.74 0.66c4.42 7.04 11.64 8.96 19.26 9.1a3.22 3.22 0 0 1 2.82 1.48 8.82 8.82 0 0 0 8.16 3.66c0.54 0 1.34 -0.54 1.46 0.66 0 0.82 0.12 1.46 -0.92 2 -6 3.16 -14 7.22 -15.26 14a3.4 3.4 0 0 0 2.94 4.42 18.2 18.2 0 0 0 9.24 -1.34 16.54 16.54 0 0 0 2 -0.66 2 2 0 0 1 -0.54 2c-5.84 4.58 -7.62 11.12 -8.16 18 -0.14 1.88 -0.66 2.14 -2.4 1.88 -6.96 -1.48 -14 -2.94 -21.02 -4.28a1.88 1.88 0 0 1 -1.86 -1.6c-0.52 -1.86 -2.26 -2.9 -3.36 -5.08Zm-38.66 0c8 1.76 46.8 9.56 65.42 13.38 0.68 0.14 1.48 0.14 1.74 1.08 0 0.14 0.14 0.26 0.14 0.4 0.14 0.54 0 0.8 -0.4 0.94l-0.8 0c-12.44 -2.42 -54.2 -10.7 -62.76 -12.32a3.62 3.62 0 0 1 -3.34 -3.48Zm67.44 35.86c1.46 0 1.6 0.4 1.6 1.88 0.28 10.44 -3.88 20 -5.48 30 -0.62 3.5 -1.68 7.28 -2 8.52a4.4 4.4 0 0 0 -1.5 -0.24 40.28 40.28 0 0 0 -5.36 0.4c0 -0.12 -0.12 -0.4 0 -0.4 0.8 -1.06 2 -2 1.34 -3.48s-2.4 -0.92 -3.6 -0.92a37.54 37.54 0 0 0 -11.6 3.52s-33.52 -8.16 -49.12 -12.32c-0.94 -0.26 -1.28 -0.16 -1.64 -1.38 -0.9 -3.08 -0.18 -5.1 3.34 -28.14a39.02 39.02 0 0 1 0.28 4.46c0.4 4.14 2.14 6 7.22 4.42a2.4 2.4 0 0 1 2 0.14c4.94 1.4 7.02 3.1 7.5 1.2 0.38 -1.5 -1.42 -1.28 -5.22 -2.42 -3.48 -0.94 -3.48 -0.94 -2.94 -4.82 3.2 1.88 6.28 3.62 9.36 5.36a56.28 56.28 0 0 0 6.28 3.22c1.48 0.66 3.36 1.46 4.7 -0.14a3.7 3.7 0 0 0 -0.4 -4.82 3.82 3.82 0 0 1 -0.54 -0.94c4.28 1.08 8.42 2 12.58 3.08 0.4 0.14 0.8 0.14 1.2 0.28 2 0.38 1.88 -1.88 0.4 -1.88 -5.62 -0.94 -10.84 -2.94 -16.6 -3.48 -1.56 -0.26 -2.44 -1.58 -3.06 -2s0 -0.82 0.26 -0.94c0.8 -0.54 0.94 -2 2.4 -1.62s2.42 0.52 3.48 0.68 1.62 0 1.74 -0.94 -0.66 -1.2 -1.34 -1.34c-1.2 -0.26 -2.66 0.14 -3.34 -0.8s0 -2.14 -0.54 -3.48c4.82 1.08 26 5.88 32 7.36 0.14 0 0.28 0.14 0.4 0.14 0.94 0 2.28 0.66 2.54 -0.68s-1.2 -1.46 -2 -1.6c-2.68 -0.54 -5.22 -0.94 -8 -1.48 -7.88 -1.74 -15.78 -3.6 -23.8 -5.2 -2 -0.42 -3.08 -0.94 -2.96 -2.96 0 -1.06 0.4 -1.46 1.48 -1.06 1.48 0.4 2.94 0.8 4.42 1.34 0.66 0.12 1.2 0.4 1.86 0.52s1.88 0.42 2.14 -0.66 -0.8 -1.34 -1.6 -1.6l-5.08 -1.2c-4 -0.94 -4 -0.94 -6.82 -4.42 4.68 1.06 23.14 5.22 28 6.42 1.22 0 2.54 0.66 2.94 -0.8s-1.2 -1.36 -2.28 -1.62c-36.78 -8.32 -28 -4.42 -38 -10.16a4.98 4.98 0 0 1 -2.4 -3.88c21.28 4.28 42.42 8.42 63.68 12.72a14.4 14.4 0 0 0 -5.74 9.08c-0.74 5.34 2.34 8.96 7.82 9.08Zm16.32 8c0 0.12 -0.14 0.12 -0.14 0.26 -1.46 -1.2 -2.82 -2.38 -4.14 -3.34s-1.34 -1.48 0 -2.4a78.2 78.2 0 0 1 7.9 -4.7 36 36 0 0 1 -3.62 10.32Zm4.14 -2.14a14.22 14.22 0 0 1 1.08 7.22 2.24 2.24 0 0 1 -1.88 2 1.86 1.86 0 0 1 -0.94 0.14 2.58 2.58 0 0 1 -1.86 -4.28c2.14 -1.16 2.4 -3.18 3.6 -5.04Zm-14.58 -2.14c-1.34 0 -1.86 -0.54 -1.46 -1.88a4.18 4.18 0 0 1 3.34 -3.62 13.46 13.46 0 0 1 6.68 -0.26c-6.48 3.94 -5.68 5.8 -8.56 5.8Zm-0.94 2.54c0.94 0.14 1.58 0.26 1.22 1.6 -3.26 12 -6 24.22 -8.44 36.4 -0.54 2.8 -2 1.2 -3.74 0.94 2 -1.48 3.3 -3.32 1.52 -4.7 1.14 -1.28 2.28 -6.16 7.84 -33.04 0.52 -1.7 0.68 -1.32 1.6 -1.16Zm-48.42 51.1c0 0.82 -0.44 0.78 -4.16 6.56a12.88 12.88 0 0 0 -1.34 2.28c-1.2 1.88 -2.26 3.88 -3.48 5.88 -0.52 1.08 -1.08 1.24 -2.14 0.8 -5.12 -2 -10 -4.28 -15.12 -6.42 -0.52 -0.26 -1.06 -0.4 -1.34 -0.8 -1.72 -2.54 -4.4 -3.34 -7.08 -4.28a7.32 7.32 0 0 1 -5.22 -5.08 20.26 20.26 0 0 0 -2.28 -5.62 21.22 21.22 0 0 0 -5.74 -6.3c-0.28 -0.12 -0.54 -0.4 -0.54 -1.06 1.34 0 2.8 -0.14 4.14 -0.14a33.28 33.28 0 0 0 5.22 -0.66 10.8 10.8 0 0 0 2.14 -0.54c1.04 -0.26 3.08 -0.5 3.08 -1.88l0 -0.4c-0.14 -1.74 -1.88 -1.46 -3.22 -1.74a16.4 16.4 0 0 1 -2.14 -0.52c0.94 -0.4 1.74 -0.82 2.68 -1.22a19.78 19.78 0 0 0 5.7 -3.44c0.4 -0.4 0.8 0 1.08 0 12.58 3.88 38.66 10.98 39.06 11.12a30.94 30.94 0 0 0 -6.68 7.22 10 10 0 0 0 -2.62 6.28ZM195.2 280.9a59.32 59.32 0 0 0 -2.42 5.88c-0.14 0.4 0 0.8 -0.66 0.8 -1.42 -1.42 -10 -9.24 -13.26 -12 -1.2 -1.06 -0.92 -1.86 -0.4 -2.94s1.48 -0.26 2.14 0c4.7 2 9.24 4.14 13.78 6.3 1.08 0.4 1.46 0.78 0.82 2Zm-45.1 -48c1.18 0.68 1.34 -0.34 8.56 -4.42 1.18 -0.86 3.04 -1.44 1.16 0.58a40.4 40.4 0 0 1 -4.36 4.12c-0.68 0.52 -1.62 1.06 -0.94 2.14s1.6 0.4 2.28 -0.14a44.12 44.12 0 0 1 10.3 -4.82 6.52 6.52 0 0 1 2.9 -0.36c-7.52 6.34 -9.64 5.8 -8.84 7.62 0.54 1.2 1.62 0.68 2.54 0.54a81.78 81.78 0 0 1 9.24 -2 21.22 21.22 0 0 1 -6.82 3.48 22 22 0 0 1 -2.82 0.92c-0.66 0.28 -1.34 0.68 -1.2 1.62s0.8 0.94 1.48 1.06c1.6 0.28 3.2 0.54 5.34 0.8a46.3 46.3 0 0 1 -8.28 1.34 14.38 14.38 0 0 1 -10.84 -2.4c-2 -1.34 -4.4 -2.32 -6.56 -3.48 -0.54 -0.28 -1.2 -0.54 -0.4 -1.34l7.08 -8c-0.22 1.14 -0.88 2.2 0.18 2.74Zm27.56 2c-2.8 -0.68 -5.48 -1.72 -8.7 -0.66a4.38 4.38 0 0 1 5.5 -2c15.52 4 31.16 7.88 46.82 11.76 -1.28 0.72 -2.82 1.68 -2.82 1.68 -25.64 -6.98 -37.96 -10.06 -40.8 -10.78Zm7.36 -55.12c0.54 -0.94 0.8 -1.34 1.88 -0.54a74.28 74.28 0 0 1 8.42 5.62c1.74 1.62 3.08 3.08 2.28 5.76a4.7 4.7 0 0 0 1.2 3.88 5.34 5.34 0 0 1 -1.34 6.82c-0.66 0.4 -0.94 -0.26 -1.34 -0.4s-1.46 -1.06 -2.14 0 0.14 1.62 0.8 2c3.88 2.74 7.3 4.76 8.84 6.82 0.26 0.4 0.68 0.8 0.26 1.2s-0.66 0.3 -17.66 -8.56c-0.92 -0.4 -1.86 -0.94 -2.8 -0.14s-0.68 1.6 -0.54 2.68c0 0.26 0.14 0.54 0.14 0.8l0 1.2c-0.14 0.68 0.4 1.74 -0.68 1.88l-0.34 0c-1.2 0 -2.4 -0.14 -2.68 -1.6 -0.4 -2.28 -0.4 -4.56 -0.94 -6.7a29.4 29.4 0 0 0 -2.38 -8.8c4.2 -3.22 6.6 -7.7 9.02 -11.92Zm-10.16 13.12c2 4.5 -0.2 7.6 -3.76 32.24a3.02 3.02 0 0 1 -0.92 2.14 2 2 0 0 1 -1.34 0.28c-0.28 0 -0.4 -0.14 -0.68 -0.14 2.14 -11.42 4.02 -22.88 6.7 -34.52Zm-12 -8.3a24.62 24.62 0 0 0 8 5.48 2.4 2.4 0 0 1 1.6 3.08c-1.34 6.7 -6 28.9 -6.82 33.46a2.26 2.26 0 0 1 -0.94 1.74c-0.48 0.48 -2 0.66 -1.38 -0.2a9.28 9.28 0 0 1 0.84 -0.74c0.68 -0.8 1.22 -1.6 0.68 -2.54s-1.6 -0.94 -2.54 -0.68a27.06 27.06 0 0 0 -7.62 3.36 0.52 0.52 0 0 0 -0.14 -0.42c-0.14 -0.8 0.14 -1.74 -0.8 -2.14a2.76 2.76 0 0 0 -3.08 0.94 121.4 121.4 0 0 0 -9.78 10.44c-0.4 0.54 -0.52 1.2 -1.46 0.68 -4.82 -2.96 -10 -5.26 -14.72 -8.58 -1.08 -0.78 -0.94 -1.34 -0.4 -2.4a7.72 7.72 0 0 1 6.96 -5.08 39.18 39.18 0 0 0 13.38 -4.56 15.36 15.36 0 0 0 8.3 -14c0.42 -11.72 -0.84 -12.4 1.2 -12.86a2 2 0 0 0 1.46 -1.46c0.8 -2.68 2.42 -5.22 3.22 -8.7a34.3 34.3 0 0 0 4.12 5.18ZM60.32 216.44c0 1.4 -1.52 1.3 -4.54 5.08 -0.28 0.42 -0.68 0.68 -0.94 1.08s-0.8 0.94 -1.2 1.48a1.24 1.24 0 0 1 -1.88 0.4 33.26 33.26 0 0 0 -7.4 -2.76c0.54 -5 1.2 -10.58 1.78 -17.46 0.14 -0.8 -0.14 -1.72 0.54 -2.54 4.28 2 8.7 4.16 12.98 6.16a1.4 1.4 0 0 1 0.92 1.74c0.14 2.38 -0.58 4.56 -0.26 6.82Zm-16 6.58a30.88 30.88 0 0 1 3.52 1.18c1.34 0.68 3.34 0.94 4 2s-0.8 2.54 -1.08 4a38.36 38.36 0 0 0 -1.74 8.98c0 1.46 -0.26 2.54 -2.14 1.6 -0.12 -0.14 -0.4 -0.14 -0.52 -0.14 -2.82 -0.54 -2.88 -0.52 -2.96 -3.48a111.74 111.74 0 0 1 0.82 -14.14Zm3.52 -22.1a1.7 1.7 0 0 1 -1.06 -1.86c0.26 -2 0.52 -4.16 0.66 -6.16 0 -0.68 0.66 -1.86 -0.4 -2s-1.06 1.08 -1.06 1.88c-2.26 16.48 -0.88 5.34 -2.42 21.68 -2.94 -0.68 -2.94 -0.8 -2.54 -3.88 1.48 -10 3.22 -19.68 4.96 -29.58 0.12 -0.8 0.4 -1.46 0.66 -2.54 4.68 2.68 9.1 5.22 13.64 7.76 1.22 0.68 3.22 0.94 3.62 2.28s-0.38 2.68 -0.54 4c-0.56 4.7 -1.74 9.36 -2 14.44 -4.92 -2.14 -9.36 -4.16 -13.62 -6.02Zm-5.88 37.86c0 0.82 0 1.34 -1.08 1.22a7.46 7.46 0 0 0 -1.86 0.26 82.64 82.64 0 0 1 1.36 -25.04c2.14 0.14 3.04 0.56 2.78 2.84a132.38 132.38 0 0 0 -1.3 20.72Zm-4.68 2a49.6 49.6 0 0 0 -6.84 -3.34c-0.8 -0.28 -0.8 -0.94 -0.8 -1.62a74 74 0 0 1 0.28 -8.42c0.52 -3.34 -0.4 -6.7 -0.28 -10l0 -2.4a35.86 35.86 0 0 0 6.16 3.34c2.14 0.66 2.44 1.62 2 3.62 -1.44 6.16 -0.9 12.28 -0.62 18.84Zm0 -23.02a64.82 64.82 0 0 1 -6.94 -3.76c-0.8 -0.54 -0.52 -1.08 -0.52 -1.74 0.26 -9.28 0.62 -12.86 0.6 -12.66 0.46 -5.76 0.4 -4.76 9.3 -0.58 0.8 0.38 1.34 0.8 0.94 1.74l-2.42 16.44c-0.12 0.8 -0.54 0.8 -1.06 0.58Zm-4 -29.04c2 -4.4 4.42 -8.42 6.68 -12.7 0.54 -0.94 0.94 -0.94 1.74 -0.54 3.36 1.74 3.36 1.74 2.68 5.48 -0.94 5.36 -1.86 10.58 -2.8 15.8 -0.14 0.54 0 1.06 -0.8 1.06 -0.28 -0.12 -0.54 -0.26 -0.94 -0.4 -8.72 -4.28 -9.18 -3.26 -6.68 -8.68ZM62 210c0 -0.66 0.4 -0.94 1.08 -0.54a50.94 50.94 0 0 1 6.68 3.76A13.76 13.76 0 0 0 62 216a30.2 30.2 0 0 1 0 -6Zm1.88 -1.74a2.54 2.54 0 0 1 -1.74 -2.8c0.4 -5.22 1.6 -10.3 2.4 -15.52 0.28 -0.94 0.8 -1.2 1.74 -0.68 17.54 9.5 17.4 6.62 17.4 9.5 -0.8 5.22 -1.74 10.44 -2.54 15.66 -0.14 1.06 -0.68 1.06 -1.34 0.94 -1.88 -0.28 -3.88 -0.54 -5.76 -0.94 -1.2 -0.4 -1.46 -2 -2.8 -2.54 -2.48 -1.06 -4.76 -2.52 -7.24 -3.6Zm20 -4.14a30.38 30.38 0 0 1 1.6 -8.16c0.66 2.4 1.34 4.68 2 6.96s1.48 3.48 3.88 3.34c2 -0.22 0.5 0.88 -0.8 7.76 0 0.14 -0.14 0.4 -0.14 0.54 -0.12 0.8 -0.52 1.06 -1.34 1.06l-5.08 0c-1.34 0 -1.64 -0.4 -1.46 -1.6 0.44 -3.34 0.92 -6.54 1.34 -9.88Zm5.34 14c0.8 -0.14 0.94 0.4 0.8 0.92s-0.4 1.62 0.68 1.74 1.34 -0.92 1.6 -1.74c0.8 -3.48 1.34 -6.96 2.14 -10.42 0.14 -0.54 -0.14 -1.48 0.94 -1.48s1.2 0.26 1.34 1.06c0.12 0.28 0.52 0.42 0.8 0.54a28.5 28.5 0 0 0 12 2.42 1.62 1.62 0 0 0 0.8 -0.14c0.8 -0.4 2.28 -0.14 2 -1.34s-1.32 -0.4 -2 -0.54a42 42 0 0 1 -8.82 -1.86c9.06 -1.42 14 0 19.12 0.26 2.54 0.14 2.94 -0.4 2.68 -2.94a8.16 8.16 0 0 1 -0.26 -3.22c1.6 0.94 2.26 1.08 3.08 -0.12a6.6 6.6 0 0 0 0.52 -0.94 64.62 64.62 0 0 0 5.36 -14c0 -0.26 0.14 -0.4 0.14 -0.54 0.26 -1.06 -0.54 -2.54 0.52 -3.2a0.5 0.5 0 0 1 0.4 -0.14 16 16 0 0 1 2.68 -0.26c3.76 -0.54 7.5 -1.08 11.24 -1.74 1.34 -0.28 1.74 0.26 1.88 1.46 0 0.54 0.14 0.94 0.14 1.48 0.26 2.4 0.4 4.94 0.66 7.48 0.14 1.74 0.14 3.48 0.26 5.1s-0.66 1.62 -1.74 1.34c-4 -1.12 -5.22 0.12 -4 4.68a11.42 11.42 0 0 0 3.6 6.82c0.14 0.14 0.28 0.14 0.28 0.26 0.4 0.54 -0.14 0.8 -0.28 1.22a16 16 0 0 1 -6.68 5.2 38.68 38.68 0 0 1 -11.64 3.48 7.54 7.54 0 0 0 -7.1 5.5c-0.54 1.6 -1.2 1.86 -2.4 0.52a24.84 24.84 0 0 0 -1.88 -1.74c-0.54 -0.4 -1.2 -0.92 -1.74 -0.26s0 1.08 0.4 1.6a43.58 43.58 0 0 0 8.7 8c-15.08 8.1 -34.78 3.16 -44.42 -14.18 2.86 0.06 5.52 -0.08 8.2 -0.4Zm33.32 -23.48c-2.28 -2.82 -2.14 -5.76 0.26 -7.64 0.54 -0.4 1.08 -0.8 1.62 -0.4s0.12 0.94 0 1.48a36.76 36.76 0 0 0 -1.88 6.56ZM130 184.2a40.18 40.18 0 0 1 -4.7 12.72c-0.62 -4.3 1.92 -11.52 4.7 -12.72Zm-0.68 -3.62c0.68 -2.14 1.34 -4.14 2 -6.42a20.86 20.86 0 0 0 7.1 4.42 3.7 3.7 0 0 0 1.2 0.26c-11.34 1.9 -8 1.46 -10.26 1.74Zm12.84 -10.7c1.22 0.4 2.4 0.7 3.48 1.08l1.08 0.4a1.26 1.26 0 0 1 0.66 0.94 7.56 7.56 0 0 1 0.62 5.34 1 1 0 0 1 -0.66 0.28c-1.88 0.26 -3.76 0.52 -6 0.8a4.1 4.1 0 0 0 2.14 -3.48 15.06 15.06 0 0 0 -1.28 -5.36Zm7.5 32.52c-0.14 0.94 -0.14 1.74 -0.26 2.68 0 0.4 -0.14 0.8 -0.14 1.2s-0.14 0.26 -0.26 0.54l-0.14 0.12a16.9 16.9 0 0 1 -2.86 -6.82c-0.12 -0.8 0 -0.96 0.8 -0.94 3.2 0.08 3.2 0.14 2.9 3.22Zm1.48 -21.14c-0.16 -0.66 -0.14 -1.1 0.8 -1.2a13.72 13.72 0 0 1 4.28 -0.28 61.16 61.16 0 0 1 -2.42 6.56 1.16 1.16 0 0 1 -1.06 0.8c-0.8 0 -0.68 -0.8 -0.68 -1.2 -0.36 -1.6 -0.52 -3.06 -0.88 -4.68Zm7.22 -11.64a31.56 31.56 0 0 1 -1.2 7.88c-0.2 0 -6 0.3 -6.24 0.3 -0.72 -2.2 -0.2 -3.08 -0.86 -4.7 -0.26 -0.94 0 -1.34 0.94 -1.62 3.08 -1.06 3.62 -2.54 1.74 -5.34 -0.14 -0.28 -0.28 -0.4 -0.4 -0.68 4.18 -1.34 6.06 -0.12 6.06 4.16Zm-80.14 -12.86c4 -14 14 -20.46 26.92 -22.46a56 56 0 0 1 34.12 5.7c9.12 4.7 14.3 3.18 22.48 6.68A4.9 4.9 0 0 1 164 148c-3.48 1.74 -7.22 1.6 -10.7 2a9.74 9.74 0 0 1 -2 0 1.3 1.3 0 0 0 -1.46 1.08c-0.14 0.92 0.52 1.2 1.34 1.32 2.72 0.5 8.2 1.4 10 3.48a51.06 51.06 0 0 1 -7.62 0.94c-3.08 0.28 -6.28 0.6 -9.36 0.68 -1.48 0 -2 1.06 -2.28 2.14s0.54 1.74 1.34 2.14c6.5 4.96 8.8 5.38 8.16 6.68 -0.26 0.68 -1.34 0.54 -2 0.54 -3.36 0 -6 -1.62 -9.64 -3.48 -0.68 -0.4 -1.48 -0.66 -2.14 0.14 -1.12 1.66 1.74 2.14 3.48 7.36 0.26 0.8 0.54 1.86 0 2.4s-1.74 0.26 -2.68 0c-3.38 -1.26 -6 -4.68 -7.36 -4.68 -0.54 0 -1.06 0.14 -0.94 0.66 0.8 2 -0.8 3.22 -1.34 4.7 -0.8 2.66 -1.86 5.08 -2.66 7.76 -0.28 0.66 -0.14 1.32 -1.22 1.06a4.52 4.52 0 0 0 -4.82 2.68 5.42 5.42 0 0 0 -0.66 1.46 6 6 0 0 0 2.14 6.96c1.88 1.22 1.88 1.74 0.26 3.36 -0.8 0.8 -0.52 2 -0.4 3.08 0 1.44 0.34 2.82 -2.4 2.26 -7.36 -1.46 -14.7 -0.76 -22.22 -0.12 -4.16 0.34 -5.66 -0.34 -6 -1.88 -1.2 -5.62 -3.34 -10.84 -4.94 -16.32 -3.22 -8.4 -5.08 -16.22 -7.88 -24.68a7.8 7.8 0 0 1 0.22 -4.96Zm-9.06 19.68a13.32 13.32 0 0 0 7.36 2.28c1.18 -0.14 2.64 -0.14 3.18 -1.58l0 0.1A27.64 27.64 0 0 1 82 184c2.48 8 3.16 9.56 2.14 10.58 -0.68 0.66 -1.74 0 -2.54 -0.28 -5.22 -1.86 -10 -4.68 -15.12 -7.08a1.28 1.28 0 0 1 -0.8 -1.6c0.52 -2.82 1.06 -5.62 1.74 -8.44 0.26 -1 0.58 -1.18 1.74 -0.74Zm-8.7 -7.22a26.82 26.82 0 0 0 5.54 6.14c1.28 0.96 0.24 1.42 -1.34 9.78 -0.28 1.34 -0.68 1.6 -2 0.94 -4.8 -2.82 -9.76 -5.36 -14.58 -8.3 -6 -3.84 -7.74 -3.2 -6.42 -5.48 2.6 -4.48 5.36 -8.84 8 -13.26 0.4 -0.54 -0.54 -0.94 -0.94 -0.26 -2.68 4.42 -5.58 8.64 -8.16 13.1 -0.7 1.2 -1.34 1.2 -2.28 0.54 -6.88 -4.68 -9.38 -4.42 -7.36 -6.14 0.74 -0.76 2.14 -2.56 2.14 -2.56 0.2 1 0.1 2 1.06 2.28s1.62 -0.26 2.42 -0.66a22 22 0 0 0 6.78 -7.34c1.08 -1.62 2.14 -3.08 3.48 -4.96a14.26 14.26 0 0 0 0.82 2.54c0.26 0.68 1.06 1.22 1.6 0.94 2 -1.06 2.28 0.54 2.68 1.6 2.1 4.4 5.62 7.48 8.56 11.1Zm-6.3 -66.38c6 4.74 14.22 4.7 16.6 5.5 -2.28 2.84 -2 3.1 -4 8a25.68 25.68 0 0 1 -2.18 4.5 14 14 0 0 1 -4.28 6 11.58 11.58 0 0 0 -3.84 5.34c-1.34 -2.96 -0.66 -5.62 -0.8 -8.18 -0.4 -12.44 1.08 -15.1 -1.08 -17.26 -1.08 -1.08 -0.14 -2.16 -0.42 -3.9Zm-27.42 57.28a6.46 6.46 0 0 1 0.8 -3.88 33.86 33.86 0 0 1 6.68 -10 11.38 11.38 0 0 0 2.96 -11.12c-0.14 -0.66 -0.4 -1.06 0.52 -1.2 4.7 -0.54 9.24 -2.28 13.8 -3.08 1.32 -0.26 2 -0.12 2.26 1.34 1.08 5.62 1.88 11.38 -0.12 17a7.54 7.54 0 0 1 -1.08 2A9.5 9.5 0 0 1 50 154a0.96 0.96 0 0 1 -0.54 0.26c-0.54 0.28 -0.66 -0.12 -0.8 -0.92a8 8 0 0 1 0.94 -4.42c0.4 -0.8 0.78 -1.72 -0.14 -2.28s-1.74 0.26 -2.28 1.08c-2.94 4.14 -5.74 8.42 -9.08 12.44A5.02 5.02 0 0 1 36 162a26.96 26.96 0 0 1 2.82 -6.68c0.4 -0.8 1.06 -1.74 0 -2.42s-1.74 0.42 -2.28 1.22a103.66 103.66 0 0 1 -6.96 10 32.74 32.74 0 0 1 3.62 -9.36c0.4 -0.66 0.66 -1.34 -0.14 -1.88s-1.48 0 -2 0.68a49.1 49.1 0 0 0 -4.32 6.56Zm-6.3 26.22c2.82 -5.76 5.5 -11.38 8.18 -17.12 0.26 -0.54 0.66 -1.08 1.32 -0.54a108.48 108.48 0 0 0 9.24 5.76 7 7 0 0 1 -0.66 1.06 102.3 102.3 0 0 0 -8 16.32c-0.38 1.08 -0.68 0.94 -1.34 0.54 -8.62 -4.98 -9.18 -4.62 -8.74 -6.02Zm-5.64 14c1.34 -4.14 2.84 -7.5 4.44 -11.38 0.28 -0.68 0.68 -0.68 1.2 -0.28 2.82 1.74 5.76 3.36 8.58 4.96a1.46 1.46 0 0 1 0.8 1.6c-1.2 5.36 -0.8 10.84 -1.2 16.32a4.78 4.78 0 0 1 -0.14 1.34c-4.68 -2.26 -9.5 -4 -13.52 -7.08 -1.46 -1.02 -0.84 -3.68 -0.16 -5.42Zm1.2 28.28c-0.42 -6.96 -0.94 -14 -1.48 -21.54A86.24 86.24 0 0 0 27.4 214a1.62 1.62 0 0 1 0.94 1.74c0.4 6.42 0.14 12.84 0 19.4 0 1.48 -0.4 1.48 -1.6 0.94a44 44 0 0 0 -6.96 -2.54 4.78 4.78 0 0 1 -3.78 -4.92Zm10.3 35.86c-1.32 -5.22 -1.88 -10.7 -3.2 -15.78a121.88 121.88 0 0 1 -2.56 -12.86c4.16 1.88 8.18 3.48 12 5.5 2.66 1.32 5.1 2.6 8.42 1.2 2.42 -1.02 5.06 0.58 7.5 1.6 0.66 0.28 0.4 1.08 0.52 1.6 0.1 1.52 0.68 7.36 0.68 8.3 1.06 13.24 0.76 10.78 1.74 16.32 -2.42 -0.92 -4.54 -1.64 -6.56 -2.54a16.62 16.62 0 0 0 -7.76 -1.46c-2.68 0.12 -5.36 0 -8 0.12 -1.8 0.14 -2.48 -0.48 -2.88 -2Zm42.14 102a28.42 28.42 0 0 1 -6.14 -8.28c2 0.52 3.6 1.06 5.08 1.46 0.54 0.14 0.66 0.54 0.66 1.08 -0.04 1.82 0.18 3.56 0.3 5.82Zm10.18 -26.34c0 -0.94 0 -1.48 1.34 -1.22 2.4 0.54 4.68 0.8 7.08 1.34a2 2 0 0 0 2.82 -2c0.4 -2.94 0.72 -5.88 1.2 -8.7a2.58 2.58 0 0 0 -2 -3.34c-26.96 -9.28 -25.56 -8.96 -26 -8.96 -3.48 -0.42 -3.2 -1.34 -3.2 3.2 0.26 3.62 0.66 7.76 0.92 11.9 0.26 2.66 1.76 2.56 3.08 3.22 2.54 0.54 3.36 2 3.36 4.68 0 4.82 0.4 9.78 0.8 14.58 0.12 1.22 -0.14 1.62 -1.48 1.22l-32.12 -9.24c-0.92 -0.26 -1.32 -0.66 -1.32 -1.6 -2 -30.22 -3.38 -57.46 -5.5 -72a4.48 4.48 0 0 1 0.4 -2.26c0.28 -1.08 1.08 -0.28 1.62 0 3.72 1.42 92.2 36.96 92.44 37.06a4.84 4.84 0 0 0 3.36 0.14c8 -2.14 8.26 -2.36 9.1 -2.14s1.46 -0.42 1.74 0.52 -0.82 0.8 -1.34 1.08c-2.28 0.66 -4.56 1.46 -6.84 2 -1.32 0.4 -1.7 0.94 -1.72 2.42 -0.42 19.68 -2.28 39.18 -2.68 58.86 0 1.6 -0.68 1.5 -1.74 1.2 -13.46 -3.62 -26.86 -7.44 -40 -11.5 -1.2 -0.38 -1.74 -0.94 -1.74 -2.14a179.86 179.86 0 0 1 -1.68 -18.24Zm84.96 -32c2.94 2.94 6.84 5.34 7.22 10.42a107.36 107.36 0 0 0 2.82 17.14c0.12 0.8 0 1.2 -0.8 1.46 -6 1.62 -12.18 3.22 -18.2 4.68 -0.28 0.14 -0.54 0 -0.94 0a3.14 3.14 0 0 1 0.94 -1.86c3.08 -5.08 6.2 -10.22 9.22 -15.26 0.66 -1.08 2 -2.7 0.4 -3.6s-2.28 1.04 -2.94 2.14c-11.9 19.84 -10.58 19.52 -11.5 19.52 -5.76 -15.12 -7.1 -31.16 -9.36 -47.1 2.14 0.84 3.06 2 14.18 10a13.26 13.26 0 0 0 4.54 2.16c0.14 0 0.54 0 0.54 0.12 1.08 2.42 2.14 1.88 3.34 0.14 -0.1 0 0.3 0 0.44 0.14Zm-2.4 -3.22c-0.92 2 -1.4 0.88 -4.7 -1.48 -0.8 -0.68 -4.64 -3.48 -5.88 -4.54 -3.82 -3.28 -6.68 -4.82 -7.36 -5.48a108.98 108.98 0 0 0 -12 -6.82c-0.94 -0.54 -2 -1.1 -2.54 0.12a1.4 1.4 0 0 0 -0.14 0.68c0 0.92 1.2 1.6 2 2.14 2.14 1.34 4.4 2.66 6.54 3.88a2.92 2.92 0 0 1 1.74 2.8c0 2 0.4 6.24 0.4 7.36a145.4 145.4 0 0 0 6.44 35.6c1.2 3.62 1.78 6.84 5.48 8.56 2.28 1.06 2.54 3.2 0.54 4.94 -10.98 10 -13.84 20 -24.62 30.52a5.66 5.66 0 0 1 -4.68 1.74 68.92 68.92 0 0 1 -19.28 -4.42 48.2 48.2 0 0 0 -13.64 -3.88c-3.08 -0.26 -5.48 -2.28 -8.44 -2.94 -0.66 -0.14 -0.52 -0.68 -0.52 -1.22a30.96 30.96 0 0 1 -0.14 -3.6c0 -1.08 -0.14 -2.14 -0.14 -3.22a5.18 5.18 0 0 0 -0.14 -1.46c0 -1.74 1.08 -0.8 1.62 -0.68 0.2 0 9.84 2.76 12 3.48 2.52 0.84 21.48 6 28.5 8.16a4.18 4.18 0 0 0 4.54 -0.66 27.36 27.36 0 0 1 6.82 -3.48 3.54 3.54 0 0 0 2.28 -3.62c0.24 -14.26 2.48 -54.58 2.68 -58.74a6 6 0 0 0 -4.28 -5.74c-3.22 -1.22 -65.48 -26 -78.28 -31.04a2.46 2.46 0 0 1 -1.74 -2.14c-0.52 -4.56 -1.2 -9.1 -1.6 -13.66 0 -0.22 -1.1 -12 -1.2 -14.72a23.4 23.4 0 0 1 5.22 -16.86c0.66 -0.66 1.34 -1.46 2 -2.14A23.8 23.8 0 0 1 62 219.8c1.34 -0.94 2.66 -2 4 -2.68a7.6 7.6 0 0 1 7.48 -0.28c3.88 0 5.76 2.54 7.76 5.62a35.22 35.22 0 0 0 38 14.72 17.88 17.88 0 0 0 8 -3.2 1.22 1.22 0 0 1 1.74 0c14 7.44 16.7 8 24.88 12a18.22 18.22 0 0 1 10.58 12.58c0 0.26 0.14 0.4 0.14 0.52a10.56 10.56 0 0 0 10 8.98c4 0.66 3.74 0.52 2 4 -2.28 4.56 -4.14 9.38 -6.28 14 -3.6 6.66 -6.44 12.8 -9.22 18.96Zm37.18 17.4a3.58 3.58 0 0 1 -1.46 0.26 13.16 13.16 0 0 1 -4.9 -1.78c-8.42 -5.2 -16.86 -10.42 -24.88 -16.18 -1.48 -1.08 -1.88 -1.88 -0.94 -3.74 3.6 -7.36 6.68 -14.86 9.76 -22.48 0.28 -0.54 0.4 -0.94 0.68 -1.48 0.8 0 1.06 0.68 1.46 1.08 5.62 5.48 16.86 16.58 16.86 16.58 0.68 0.54 0.8 2.42 2.28 1.2s0 -2 -0.4 -2.94a2 2 0 0 0 -0.68 -0.8c-2.8 -1.88 -2.22 -4 -0.8 -6.56 11.44 -20.68 16.52 -23.78 14.58 -25.02 -1.62 -1.02 -0.52 -1.86 0 -2.68a38.88 38.88 0 0 1 14.86 -12.3c0.56 0 6 -3.4 11.64 -4 0.4 0 0.8 -0.12 1.2 -0.12 -0.26 0.26 -0.66 0.52 -0.94 0.8a27.02 27.02 0 0 1 -7.88 4.28c-0.94 0.4 -2.82 0.4 -2.42 1.86s2 0.44 3.08 0.14c3.66 -0.98 10.82 -2.82 14.58 -2.28a15.1 15.1 0 0 1 -7.48 2.82c-3.74 0.46 -4.82 0.26 -4.82 1.74 0 1.06 0.94 1.18 1.74 1.06a42.66 42.66 0 0 1 9.76 -0.52c-2.92 1.56 -5.42 1.2 -9.1 1.6 -0.66 0 -1.6 0.14 -1.6 1.2s0.94 1.08 1.74 1.08a49 49 0 0 1 7.62 0.66c0.4 0.14 0.82 0.14 1.08 0.68a13.54 13.54 0 0 1 -7.1 2.14 14.26 14.26 0 0 1 -3.2 0 3.26 3.26 0 0 0 -3.08 1.6 37.22 37.22 0 0 1 -10 10 13.54 13.54 0 0 0 -4.94 6.82c-5.86 12.98 -6 28 -10.44 40.14 -0.86 2.7 -3.28 4.04 -5.96 5.24Zm41.88 -62c-4 4.4 -19.06 20.92 -23.14 25.14 -0.66 0.68 -1.06 1.22 -2.14 0.68s-0.4 -1.34 -0.26 -1.88c0.8 -3.48 2.94 -6.56 4.14 -9.9a5.02 5.02 0 0 1 2.4 -2.28 33.42 33.42 0 0 0 10.98 -10.3c0.4 -0.54 0.66 -1.06 1.34 -0.94a42.86 42.86 0 0 0 6.58 -0.5Zm26.1 97.8c-1.34 0.4 -1.6 0 -1.74 -1.2 -0.66 -7.1 -1.74 -14 -2.94 -21.02a32.46 32.46 0 0 0 -1.88 -7.08c-0.4 -0.94 -0.14 -1.34 0.8 -1.48l3.36 -0.8c3.2 -0.8 2.56 -0.86 3.36 2.36a162.46 162.46 0 0 1 3.52 21.44c0.14 1.74 0.54 3.48 0.8 5.36s-0.84 0.92 -5.38 2.44Zm10.44 -2.94c-3.62 0.94 -3.04 0.76 -3.44 -2.86 -1.06 -8.7 -1.86 -17.64 -4.44 -26 -0.46 -1.46 0.52 -1.22 5.34 -2.7 0.66 -0.14 0.92 0 1.06 0.66 1.52 12.26 4.56 29.52 4.56 29.32 0.14 1.3 -1.5 0.92 -3.18 1.6Zm27.56 -42.56a6 6 0 0 1 4.46 1.6 2.78 2.78 0 0 1 -0.12 1.82c-4.9 15.5 -2.14 34.46 -2 35.38 -6.9 0.48 -10.96 -0.54 -21.54 1.88 -1.08 0.24 -1.46 0.28 -1.74 -1.06 -1.74 -9.64 -3.86 -19.1 -5.48 -28.64 -0.16 -0.94 0.26 -1.36 1.08 -1.6a190.26 190.26 0 0 0 25.24 -9.36Zm-54.46 -46.82a30.26 30.26 0 0 0 -2.54 4.68c-0.16 0.64 -0.82 1.46 -0.4 1.88s0.54 0.8 -0.14 0.92l-0.26 0c-1.1 0 -0.44 -1.78 -0.8 -4a12.88 12.88 0 0 1 0.52 -4.42c0.28 -0.94 0.82 -1.74 1.88 -1.74s2.14 -0.26 2.68 0.4a0.5 0.5 0 0 1 0.14 0.4c0.08 0.98 -1.18 1.5 -1.18 1.9ZM284 221.26a32.38 32.38 0 0 0 -6.16 -0.4c-7.36 0.14 -10.7 5.48 -11.5 11.38a110.96 110.96 0 0 0 -0.8 13.38c0 3.88 -0.94 6.96 -4.96 8.7a20.92 20.92 0 0 0 -6.96 6.28c-0.66 0.8 -1.04 1.3 -2.26 0.54a4.94 4.94 0 0 0 -7.76 3.34c-0.26 1.08 -0.82 1.88 -2 1.88a3.08 3.08 0 0 0 -1.46 0.66 6.38 6.38 0 0 0 -2.28 4.28c-0.12 1.08 0 1.74 0 3.88 0 0.14 -0.14 0.4 -0.54 0.54a2.66 2.66 0 0 0 -0.94 0.66 6.34 6.34 0 0 0 0.28 9.38 11.02 11.02 0 0 0 5.88 2.26c1.2 0.12 1.6 0.4 1.74 1.62a36.44 36.44 0 0 0 2.54 9.22c3.62 8.16 8.7 10 16.72 6.42 12.84 -6 21.82 -14.46 24 -15.46 5.72 11.06 7.56 13.04 10 15.6 1.46 1.6 0.94 2 -0.54 2.68a182.14 182.14 0 0 1 -28.64 10 152.7 152.7 0 0 1 -37.2 5.08 138.14 138.14 0 0 1 -24.48 -2.54c-0.66 -0.14 -1.6 -0.14 -0.94 -1.34 2.82 -5.36 3.62 -11.24 4.82 -17.12 0.94 -4.16 1.88 -8.18 2.68 -12.32 0.26 -1.2 0.52 -1.7 1.74 -0.94s2.28 0 3.08 -0.94c8.3 -9.36 16.58 -18.86 25.02 -28.22a38.98 38.98 0 0 0 6.56 -8.7c1.42 -3 1.48 -4 9.1 -40.28 0.12 -0.4 -0.14 -1.06 0.4 -1.2s0.8 0.4 1.06 0.68c0.8 0.66 1.48 1.46 2.28 2a4.86 4.86 0 0 1 2.4 4.82c-0.26 1.86 1.22 3.04 2.82 3.74a4 4 0 0 0 4.94 -0.66 3.26 3.26 0 0 1 3.76 -0.94 25.78 25.78 0 0 0 8.16 0.66c0.62 0 0.8 0 0.8 0.68 -0.38 1.1 -0.92 0.84 -1.36 0.7Zm-40 65.3a28.24 28.24 0 0 1 -5.62 -2.54 4 4 0 0 1 -0.94 -5.62c0.66 -0.94 1.34 -0.94 1.88 0a16.88 16.88 0 0 0 4 5.08c0.84 0.8 0.04 1.88 0.68 3.08Zm-3.76 -15.12a3.48 3.48 0 0 1 0.68 -1.6c0.4 -0.82 1.2 -1.62 2 -1.34s0.4 1.34 0.4 2c0 7.38 2.78 7.36 0.8 10.98 -2.12 -3.36 -4.64 -6.02 -3.98 -10.04Zm81.36 -67.04c-0.36 0.9 0.26 -0.54 -10.3 1.48a51.26 51.26 0 0 0 -23.82 11.1 2 2 0 0 1 -1.2 0.54 44.16 44.16 0 0 1 -10.3 -0.8c-1.08 -0.28 -1.74 -0.68 -1.62 -2a11.34 11.34 0 0 0 -2 -7.76 2.34 2.34 0 0 1 -0.14 -1.86c0.4 -1.74 0.94 -3.48 1.22 -5.22s-0.82 -2.42 -2.42 -1.74c-0.26 0.12 -0.54 0.4 -0.8 0.52 -5.7 3.8 -4.32 -2 -13.24 1.74a12.56 12.56 0 0 1 -7.24 0.68c-5.02 -0.74 -6 -6.9 -0.92 -12A2.98 2.98 0 0 1 252 188a1.66 1.66 0 0 0 2.14 -0.54c0.42 -0.66 0.14 -1.34 -0.14 -2.14 -3.34 -6.82 -1.6 -17.52 3.62 -23.82 0.26 -0.26 0.4 -0.52 0.66 -0.8a7.08 7.08 0 0 0 8.96 2.94 18.68 18.68 0 0 0 6.16 -4.14c0.54 -0.4 0.94 -1.2 1.88 -1.34a19.46 19.46 0 0 0 0.14 4.96 5.76 5.76 0 0 0 6.14 5.62c1.34 0 1.24 0.54 1.08 1.46a12.92 12.92 0 0 0 0 6.3 5.8 5.8 0 0 0 8.42 4 27.82 27.82 0 0 0 6.56 -4.14 31.06 31.06 0 0 1 0.68 3.62c-1.62 1.2 -3.22 3.34 -4.82 3.34a15.02 15.02 0 0 0 -8.98 2.8l-0.12 0.14a14.22 14.22 0 0 0 -4.82 15.26c3.08 9.1 14.96 11.2 21.68 3.6 0.82 -0.92 1.2 -1.2 2.26 -0.4 2.28 1.74 4.56 1.62 7.24 -0.26a5.38 5.38 0 0 1 0.54 -0.4 29.44 29.44 0 0 0 6.14 -7.22 16.92 16.92 0 0 0 3.48 4.94 3.02 3.02 0 0 1 0.6 2.62Zm-28.1 0.68a7.14 7.14 0 0 1 -8.56 -3.22 7.54 7.54 0 0 1 -0.28 -6.96 12.7 12.7 0 0 1 6.46 -6.9c-0.66 5.5 0.14 8.98 2.54 10.98a12.76 12.76 0 0 0 5.76 2.14 10 10 0 0 1 -6.02 3.96Zm7.76 -3.36c-0.54 3.36 -6 6.7 -10.16 6.42a10 10 0 0 1 -9.78 -9.76 12.68 12.68 0 0 1 11.52 -13.24c-0.14 1.34 -1.34 1.2 -2 1.34a12.52 12.52 0 0 0 -8.3 10.96 8.9 8.9 0 0 0 11.78 8.84 14.94 14.94 0 0 0 6.84 -4.56Zm20.2 -3.2a11.5 11.5 0 0 1 -1.74 -4.28c-0.26 -0.94 -0.26 -2.14 -1.6 -2.14s-1.48 0.8 -2 1.74a25.26 25.26 0 0 1 -6.42 8.42 3.68 3.68 0 0 1 -6 -1.06 2.24 2.24 0 0 1 -0.4 -2c0.54 -1.34 -0.26 -1.74 -1.46 -1.6a2 2 0 0 0 -0.94 0.26 0.48 0.48 0 0 0 -0.4 0.14 5.74 5.74 0 0 1 -6.96 -7.1A12 12 0 0 1 298 184a2.82 2.82 0 0 1 3.34 -0.4 4.48 4.48 0 0 0 3.48 0.12 15.58 15.58 0 0 0 8.32 -7.72c0.6 -1.18 -0.64 -0.86 -1.1 -0.5 -1.22 0.96 -2.42 1.84 -3.66 2.64 -2.4 1.54 -4.24 3.58 -6.28 2.28a3.8 3.8 0 0 1 -1.2 -4.16c0.12 -0.66 0.4 -1.46 0.52 -2.14s0.82 -2 -0.26 -2.68c-1.42 -0.88 -1.76 0.56 -8.16 5.36a18.66 18.66 0 0 1 -2.94 1.74 3.16 3.16 0 0 1 -4.96 -2.54c-1.16 -8.46 3.56 -10.3 4 -11.24a1.48 1.48 0 0 0 -1.88 -2.28 6.18 6.18 0 0 0 -2.26 2.28 4.36 4.36 0 0 1 -4.42 2.14c-2 -0.4 -2.54 -2.14 -2.68 -3.88a19.34 19.34 0 0 1 1.2 -9.5c0.4 -0.94 0.68 -1.88 -0.4 -2.4s-1.74 0.26 -2.14 1.2a26.22 26.22 0 0 1 -8 8.42c-0.26 0.14 -0.52 0.4 -0.8 0.54 -2.54 1.34 -5.22 1.34 -6.28 0s-0.44 -4.18 1.34 -6c0.66 -0.68 1.06 -1.34 0.4 -2.14s-1.6 -0.52 -2.42 0a27.06 27.06 0 0 1 -10.76 3.9c-1.06 0.14 -2.26 0.26 -2.94 -0.68s0 -2 0.54 -2.8a19.7 19.7 0 0 1 12.72 -9.1c0.66 -0.14 1.46 -0.4 2.14 -0.54 2.54 -0.94 2.54 -0.94 1.2 -3.48a4.12 4.12 0 0 1 0.14 -4 11.26 11.26 0 0 1 16.44 -5.22 10.68 10.68 0 0 0 1.62 1.06c2.54 1.88 2.66 1.62 4.14 -1.06a17 17 0 0 1 12.72 -8.84c10.32 -1.48 16 1.44 19 13.38a25.28 25.28 0 0 1 0.4 3.22c0.16 1.74 1.04 2.38 2.66 1.46 9.52 -5.28 21.32 2.4 21.68 13.78a23.36 23.36 0 0 1 -4.28 15.12 2.34 2.34 0 0 0 -0.66 2.42c0.78 1.86 4.16 0.54 7.62 1.34a7.22 7.22 0 0 1 5.88 7.48 13 13 0 0 1 -9.62 11.52 4.32 4.32 0 0 1 -5.4 -2.54c-0.4 -0.94 -0.8 -2 -2.14 -1.62s-0.94 1.62 -0.8 2.54a10 10 0 0 1 -6.16 10.58 6.26 6.26 0 0 1 -5.54 -2.54Z" fill="#471280" stroke-width="1"></path><path d="M97.24 27.66c0.82 0.26 0.82 -0.54 1.08 -0.94 3.04 -4.28 5.76 -10.24 17 -13.66 3.68 -1.12 8 -1.6 11.24 0l0.12 0c8 3.36 16.32 5.76 21.68 13.38 0.4 0.54 1.2 0.82 1.48 1.62a0.7 0.7 0 0 0 1.06 0.4c1.6 -0.8 2.82 0.12 4.16 0.8 7.36 4 11.36 15.52 8.16 23.28 -1.22 2.8 -2.96 3.08 -5.1 1.08a19.2 19.2 0 0 1 -2.8 -3.62c-1.08 -2 -2 -3.88 -2.94 -5.88 -0.4 -0.82 -0.8 -1.74 -1.88 -1.48s-0.94 1.48 -0.8 2.4a32.98 32.98 0 0 1 0.54 3.62 16 16 0 0 1 -2.54 10.7c-1.74 2.28 -2.96 2.14 -4.28 -0.26a14.76 14.76 0 0 1 -1.74 -4.68 43.76 43.76 0 0 1 -0.82 -8.42 1.62 1.62 0 0 0 -1.32 -1.74c-0.82 -0.12 -1.34 0.4 -1.62 1.2a22.92 22.92 0 0 1 -8.3 10.54 2.86 2.86 0 0 1 -3.06 0.4c-1.08 -0.66 -0.94 -1.88 -0.82 -2.94a43.48 43.48 0 0 1 0.94 -4.28c1 -4 2.76 -5.66 0.94 -6.56a1.18 1.18 0 0 0 -1.74 0.8 15.3 15.3 0 0 0 -0.66 1.48 24.84 24.84 0 0 1 -9.5 10.16c-0.68 0.4 -1.48 1.08 -2.14 0.54s-0.68 -1.6 -0.68 -2.42c0.76 -6 2.34 -8 0.54 -8.56a1.04 1.04 0 0 0 -1.34 0.8c-1.2 3.22 -2.68 6.44 -1.88 10a4 4 0 0 0 1.22 2.28 3.58 3.58 0 0 0 3.74 0.4 17.28 17.28 0 0 0 6.68 -4.54c0.28 -0.42 0.54 -0.68 1.08 -0.54l0 1.86c0 0.4 0.14 0.82 0.14 1.22a4.16 4.16 0 0 0 5.74 3.2c3.76 -0.86 7.26 -5.7 9.38 -8.7 0 -0.42 0 0 0.8 4.68a18.72 18.72 0 0 0 2.26 5.5c2.28 3.48 5.36 3.74 8 0.4a18.12 18.12 0 0 0 3.48 -10l0 -0.14a28.54 28.54 0 0 0 3.88 4.82c3.34 2.94 7.08 2 8.7 -2.14a21.7 21.7 0 0 0 -7.24 -24.88 9.44 9.44 0 0 0 -5.88 -2.28 2.38 2.38 0 0 1 -2.2 -1.44 19.04 19.04 0 0 0 -9.62 -8.98l-10 -4.4a20.76 20.76 0 0 0 -14 -1.22c-7.08 1.88 -13.38 4.96 -17.8 11.12A11.68 11.68 0 0 0 96.32 26c0.26 0.58 0.26 1.38 0.92 1.66Z" fill="#471280" stroke-width="1"></path><path d="M386.12 295.78a4.38 4.38 0 0 0 -1.34 0.14c-5.48 1.48 -10.84 3.62 -16.18 5.62a3.32 3.32 0 0 0 -2.42 2.94c0 6.88 -1.6 11.42 2.82 10 2.4 -0.66 4.68 -1.48 7.36 -2.4 -0.28 2.14 -7.1 52.98 -7.5 55.66 -0.14 0.94 0 1.86 1.08 2.14s1.34 -0.68 1.6 -1.48c1 -2 4.52 -31.06 4.82 -33.72 0.94 -7.76 1.86 -15.38 2.14 -23.14 0 -2.42 -0.8 -2.94 -3.08 -2.28 -8.16 2.52 -6 3.5 -6.56 -3.88 0 -0.94 0.4 -1.2 1.2 -1.48 6.86 -2.1 15.44 -5.08 16 -5.08a7.3 7.3 0 0 0 1.08 -0.4 1.48 1.48 0 0 0 -1.02 -2.64Z" fill="#471280" stroke-width="1"></path><path d="M217.54 361.76c-0.7 -1.2 -1.88 -0.68 -2.82 -0.14 -0.4 0.26 -0.94 0.54 -1.34 0.8 -12.3 7.9 -24.62 15.66 -37.18 22.88a5.32 5.32 0 0 0 -1.48 1.08c-0.26 0.26 -0.54 0.66 -0.26 1.06s0.52 0.54 1.2 0.54c6.84 -2.28 38 -22 40.8 -23.82 0.94 -0.54 1.72 -1.32 1.08 -2.4Z" fill="#471280" stroke-width="1"></path><path d="M239.22 114.48a3.06 3.06 0 0 1 3.34 0.54 4.88 4.88 0 0 0 6.68 -0.12c0.4 -0.54 0.68 -1.08 0.4 -1.62s-1.06 -0.4 -1.6 -0.12a4.32 4.32 0 0 1 -4.94 -1.08 2.28 2.28 0 0 0 -2.96 -0.54 8.56 8.56 0 0 1 -2.66 0.8 1.5 1.5 0 0 1 -1.88 -1.32c-0.4 -2.96 3.34 -8.18 6.28 -8.58 0.54 -0.12 1.22 0.28 1.22 -0.66s-0.68 -0.8 -1.22 -0.8a5.3 5.3 0 0 0 -2 0.26 12.8 12.8 0 0 0 -6.82 9.78c0.26 2.8 2.66 4.52 6.16 3.46Z" fill="#471280" stroke-width="1"></path><path d="M130.7 94a4.68 4.68 0 0 0 4.68 -0.68 28.42 28.42 0 0 0 4.56 -6c0.52 -0.8 0.92 -2.14 -0.54 -2.66a19.42 19.42 0 0 0 -11.4 -0.82c-4.84 1.22 -1.56 8.6 2.7 10.16Zm-0.7 -8.54a19.66 19.66 0 0 1 8.3 0.94c-1.34 1.86 -2.68 3.48 -4 5.2 -0.94 1.08 -2 0.82 -3.08 0.42a6.48 6.48 0 0 1 -3.34 -4.3c-0.52 -1.72 0.82 -2.14 2.12 -2.26Z" fill="#471280" stroke-width="1"></path><path d="M144.74 80.24a9.12 9.12 0 0 0 0.54 -2.68 16.44 16.44 0 0 0 -0.26 -4.42 20.52 20.52 0 0 0 -1.2 -3.48c-0.28 -0.52 -0.82 -1.06 -1.48 -0.66 -1.4 0.7 0.66 1.78 0.66 6.68l0 1.22c-0.12 0.92 0.42 2.26 -0.66 2.8s-1.74 -0.8 -2.4 -1.48c-1.08 -1.06 -2 -1.2 -2.82 0.28 -0.26 0.54 -0.54 0.94 -1.2 0.8a1.44 1.44 0 0 1 -1.08 -1.08c-0.26 -0.8 -0.8 -1.6 0.14 -2.4s0.14 -0.8 -0.4 -0.94a1.78 1.78 0 0 0 -1.74 0.68 4.14 4.14 0 0 0 0.66 4.94 2.9 2.9 0 0 0 4.16 0.54c1.06 -1.08 1.6 -0.54 2.4 0.14 1.94 1.34 4.16 0.94 4.68 -0.94Z" fill="#471280" stroke-width="1"></path><path d="M247.5 127.34c3.08 -0.4 5.1 -3.22 7.1 -6 0.54 -0.68 0.94 -1.74 0 -2.28 -1.54 -0.88 -2.16 1.22 -5.08 4.14 -2 2 -3.22 2.14 -5.76 0.8 -4.48 -2.4 -4.34 -5.46 -5.88 -4.54s3.2 7.88 9.62 7.88Z" fill="#471280" stroke-width="1"></path><path d="M130 62.58a9.32 9.32 0 0 0 -5.76 -2l-1.04 0c-1.46 0.28 -2.94 0.82 -3.2 2.56s1.06 2.26 2.28 2.94a6.2 6.2 0 0 0 7.34 -0.54c1.34 -1.1 1.74 -1.88 0.38 -2.96Z" fill="#471280" stroke-width="1"></path><path d="M219.88 354.38c-1.64 -1.64 -3.62 -1.8 -6.72 -0.8a43.88 43.88 0 0 0 -8.34 4.16c-10.7 5.7 -21.66 10.7 -32.24 15.66a1.8 1.8 0 0 1 -1.86 -0.14 47.62 47.62 0 0 0 -23.56 -4.98c-0.38 0 -1.24 0 -1.24 1.1a0.32 0.32 0 0 0 0.32 0.3 43.64 43.64 0 0 1 23.76 4.96 1.88 1.88 0 0 1 -1.76 0.34c-7.16 -2.56 -14.26 -2.42 -21.78 -2.28a7.34 7.34 0 0 0 -4.46 1.12 0.3 0.3 0 0 0 0.2 0.54c8.42 -0.52 16.66 -0.78 24.72 1.84 -1.08 1.02 -2.82 1.38 -3.6 2.94a0.28 0.28 0 0 0 0.12 0.4 1.54 1.54 0 0 0 1.5 0c1.82 -1.04 3.62 -2.28 5.46 -3.2 11.28 -4.92 22.12 -10.8 33.2 -16.34a45.2 45.2 0 0 1 10 -4.92c4 -0.98 3.38 -1.6 6.54 1.8a2.78 2.78 0 0 1 0.16 2.22 21.36 21.36 0 0 1 -5 10.82c-4 5.32 -1.76 3.02 -6.48 10.44a46 46 0 0 0 -4.24 7.58 2.1 2.1 0 0 0 -0.3 2 0.3 0.3 0 0 0 0.44 0.14 6.92 6.92 0 0 0 2 -3.04 119.6 119.6 0 0 1 11.62 -18.7 12.12 12.12 0 0 0 2.74 -6c0.42 -2.16 2.36 -4.34 -1.2 -7.96Z" fill="#471280" stroke-width="1"></path><path d="M103.28 50.26c-3.34 -6.66 -3.8 -12.4 -1.48 -18a0.3 0.3 0 0 0 -0.4 -0.38c-4.48 2 -7 7.12 -6.6 13.28a11.08 11.08 0 0 0 3.74 8.36 0.3 0.3 0 0 0 0.48 -0.3c-0.54 -2 -1.62 -3.8 -2 -5.74a16.88 16.88 0 0 1 0 -6.18c0.64 -3.04 0.86 -3.88 1.58 -4.72a18.46 18.46 0 0 0 1.4 10.98 19.2 19.2 0 0 0 6.8 9.64 0.3 0.3 0 0 0 0.42 -0.4c-1.4 -2.1 -2.76 -4.28 -3.94 -6.54Z" fill="#471280" stroke-width="1"></path><path d="M294.52 225.12a0.3 0.3 0 0 0 -0.2 0.56c8.96 5.1 15.32 12.24 21.3 23.82a0.26 0.26 0 0 0 0.26 0.16 0.28 0.28 0 0 0 0.24 -0.22c1.54 -5.68 -14.54 -23.12 -21.6 -24.32Z" fill="#471280" stroke-width="1"></path><path d="M262 93.88a1.52 1.52 0 0 0 -1.6 0.94 10.32 10.32 0 0 0 -0.14 7.76c0.26 0.68 0.66 1.2 1.46 1.08a1.7 1.7 0 0 0 1.48 -1.22 12.78 12.78 0 0 0 0.28 -7.36 1.48 1.48 0 0 0 -1.48 -1.2Z" fill="#471280" stroke-width="1"></path><path d="M233.72 84.26a5.8 5.8 0 0 1 5.36 1.46c0.26 0.14 0.4 0.68 0.8 0.4s0.26 -0.66 0.14 -1.06a5.72 5.72 0 0 0 -5.36 -3.22c-4 0 -7.06 4.96 -4.28 5.88 0.4 0.14 1.08 0.28 0.8 -0.66 -0.4 -1.88 1.22 -2.38 2.54 -2.8Z" fill="#471280" stroke-width="1"></path><path d="M235.6 99.78c0.94 0 1.34 -0.82 1.34 -1.74a9.58 9.58 0 0 0 -0.68 -5.22c-0.26 -0.8 -0.66 -1.34 -1.6 -1.2a1.44 1.44 0 0 0 -1.34 1.46 14.52 14.52 0 0 0 0.4 5.36 1.78 1.78 0 0 0 1.88 1.34Z" fill="#471280" stroke-width="1"></path><path d="M150.5 64.72a6.26 6.26 0 0 0 -3.88 2.68c-0.54 0.92 -0.54 1.74 0.4 2.26 1.34 0.68 2.54 -0.12 3.74 -0.66a2.34 2.34 0 0 0 1.48 -2.42c0 -1.2 -0.4 -2.24 -1.74 -1.86Z" fill="#471280" stroke-width="1"></path><path d="M96.58 68c0.54 0.94 1.34 0.26 1.88 -0.14 1.46 -0.92 2.66 -1.46 3.74 0.4a0.74 0.74 0 0 0 1.2 0.28c0.4 -0.4 0.28 -0.68 0 -1.08 -1.22 -2.44 -2.98 -5.34 -5.48 -5.34 -0.54 0 -0.94 0.12 -1.08 0.66s0.4 0.68 0.68 0.8a3.46 3.46 0 0 1 2.28 2c-0.68 0.26 -1.48 0.4 -2.14 0.66S96 67 96.58 68Z" fill="#471280" stroke-width="1"></path><path d="M181 213.76c1.48 0.54 3.08 0.94 4.56 1.34 10.98 2.42 22 4.96 32.92 7.36 1.2 0.28 2.94 1.08 3.34 -0.4s-1.74 -1.34 -2.82 -1.6L198.54 216c-5.76 -1.34 -11.64 -2.28 -17.26 -3.88 -0.8 0 -1.74 -0.26 -2 0.54s1.06 0.98 1.72 1.1Z" fill="#471280" stroke-width="1"></path><path d="M180.34 218.86a89.62 89.62 0 0 0 12 3.48c3.74 0.92 7.62 1.86 11.1 2.66 1.22 0.14 1.88 -0.12 2 -0.92s-0.54 -1.22 -1.22 -1.34c-2.26 -0.54 -4.54 -0.94 -6.82 -1.48 -5.34 -1.34 -10.84 -2.68 -16.32 -4 -0.8 -0.12 -1.88 -0.66 -2.28 0.4s0.88 0.92 1.54 1.2Z" fill="#471280" stroke-width="1"></path><path d="M237.74 196.24c0.28 -0.92 -0.54 -1.34 -1.2 -1.48 -1.88 -0.4 -3.76 -0.66 -5.62 -1.06l-16.2 -3.7c-0.8 -0.12 -1.86 -0.8 -2.26 0.4s1.06 1.08 1.72 1.22c2.68 0.66 5.36 1.46 8.18 2 4.54 0.94 9.1 2.54 14 3.22 0.3 -0.06 1.12 0.2 1.38 -0.6Z" fill="#471280" stroke-width="1"></path><path d="M206 231.44c0.82 0.12 1.74 0 1.88 -0.94s-0.66 -1.22 -1.34 -1.34c-3.08 -0.84 -11.22 -2.76 -16.72 -3.62 -0.54 0 -1.2 0 -1.34 0.68 -0.14 1.06 0.8 1.34 1.6 1.46 5.24 1.34 10.6 2.54 15.92 3.76Z" fill="#471280" stroke-width="1"></path><path d="M223.02 232.9c-3.6 -0.82 -6.96 -2 -10.44 -2.54 -0.8 0 -1.46 -0.14 -1.6 0.66s0.54 1.08 1.08 1.22c5.6 1.6 11.22 3.08 16.84 4.68 0.82 0.14 1.74 0.4 2 -0.68s-0.54 -1.2 -1.34 -1.46c-2.12 -0.68 -4.26 -1.36 -6.54 -1.88Z" fill="#471280" stroke-width="1"></path><path d="M196.12 231.56c-16.24 -3.08 -17.88 -4.94 -18.46 -3.48 -0.4 0.8 0.4 1.08 0.94 1.34 5.76 2 11.78 3.08 17.4 4.56 0.8 0.12 1.6 0 1.6 -0.94s-0.68 -1.32 -1.48 -1.48Z" fill="#471280" stroke-width="1"></path><path d="M229.72 205.88a1.2 1.2 0 0 0 -0.82 -1.34 5.86 5.86 0 0 0 -1.46 -0.54c-5.48 -0.94 -10.7 -2.4 -16 -3.62 -0.54 -0.12 -1.34 -0.4 -1.48 0.42s0.54 1.06 1.08 1.2a164.22 164.22 0 0 0 17.4 4.68c0.46 0 1.12 0 1.28 -0.8Z" fill="#471280" stroke-width="1"></path><path d="M233.06 207.22c3.72 1.14 7.62 2 11.36 2.94 2 0.32 2.42 -2.2 0.68 -2.54 -3.74 -0.8 -7.36 -1.62 -10.7 -2.28 -1.08 0 -1.88 0 -2 0.8s0.26 0.94 0.66 1.08Z" fill="#471280" stroke-width="1"></path><path d="M211.24 235.32c-2.94 -0.64 -6 -1.22 -8.42 -1.74 -1.08 -0.14 -1.74 -0.14 -1.88 0.52s0.4 1.08 0.94 1.34c2.82 0.94 5.76 1.74 8.56 2.54a1.4 1.4 0 0 0 1.88 -0.92 1.38 1.38 0 0 0 -1.08 -1.74Z" fill="#471280" stroke-width="1"></path><path d="M178 224.48a38.16 38.16 0 0 0 7.76 1.86c0.8 0 1.32 -0.12 1.6 -0.94s-0.54 -1.32 -1.2 -1.46c-2.54 -0.54 -5.1 -0.94 -7.64 -1.48a1.12 1.12 0 0 0 -1.46 0.8c-0.2 0.74 0.34 0.94 0.94 1.22Z" fill="#471280" stroke-width="1"></path><path d="M260.36 165.74a7.24 7.24 0 0 0 -2.96 0.4c-0.8 0.4 -1.6 0.66 -1.32 1.74s1.32 0.8 2 0.54a6.62 6.62 0 0 1 6.42 1.74 14 14 0 0 1 3.88 5.84c0.26 0.68 0.66 1.34 1.48 0.94s0.66 -0.94 0.66 -1.48a10.82 10.82 0 0 0 -10.16 -9.72Z" fill="#471280" stroke-width="1"></path><path d="M259.14 177.64c-1.9 0 -1.74 2.34 -2 4.16a11.66 11.66 0 0 0 0.66 3.74 1.84 1.84 0 0 0 2 1.6 1.88 1.88 0 0 0 1.86 -1.74 12.52 12.52 0 0 0 -0.8 -6.68 1.76 1.76 0 0 0 -1.72 -1.08Z" fill="#471280" stroke-width="1"></path></g></g></g></svg>