<svg viewBox="0 0 400 400" xmlns="http://www.w3.org/2000/svg" id="Searching-Network--Streamline-Free-Illustrations.svg"><desc>Searching Network Streamline Illustration: https://streamlinehq.com</desc><g><path d="M35.184 198.324a160 160 0 1 0 320 0 160 160 0 1 0 -320 0Z" fill="#c7f0ff" stroke="#ace5fa" stroke-width="4"></path><path d="M95.844 105.5 40.708 229.86" fill="none" stroke="#8ca4b8" stroke-linecap="round" stroke-linejoin="round" stroke-width="4"></path><path d="M146.424 311.964 40.708 229.86" fill="none" stroke="#8ca4b8" stroke-linecap="round" stroke-linejoin="round" stroke-width="4"></path><path d="m311.376 189.004 -54.792 96.144" fill="none" stroke="#00aed9" stroke-linecap="round" stroke-linejoin="round" stroke-width="4"></path><path d="m95.844 105.5 143.404 -30.532" fill="none" stroke="#8ca4b8" stroke-linecap="round" stroke-linejoin="round" stroke-width="4"></path><path d="M311.376 189.004 239.248 74.968" fill="none" stroke="#8ca4b8" stroke-linecap="round" stroke-linejoin="round" stroke-width="4"></path><path d="m311.376 189.004 -117.34 26.24L40.708 229.86" fill="none" stroke="#00aed9" stroke-linecap="round" stroke-linejoin="round" stroke-width="4"></path><path d="m95.844 105.5 50.58 206.464" fill="none" stroke="#8ca4b8" stroke-linecap="round" stroke-linejoin="round" stroke-width="4"></path><path d="m239.248 74.968 -45.212 140.276" fill="none" stroke="#8ca4b8" stroke-linecap="round" stroke-linejoin="round" stroke-width="4"></path><path d="m95.844 105.5 160.74 179.648" fill="none" stroke="#8ca4b8" stroke-linecap="round" stroke-linejoin="round" stroke-width="4"></path><path d="m256.584 285.148 -110.16 26.816" fill="none" stroke="#8ca4b8" stroke-linecap="round" stroke-linejoin="round" stroke-width="4"></path><path d="m40.708 229.86 198.54 -154.892" fill="none" stroke="#8ca4b8" stroke-linecap="round" stroke-linejoin="round" stroke-width="4"></path><path d="M1.172 222.452a44.088 44.088 0 1 0 88.176 0 44.088 44.088 0 1 0 -88.176 0Z" fill="#ffffff" stroke="#45413c" stroke-linecap="round" stroke-linejoin="round" stroke-width="4"></path><path d="M68.8 233.68a4.148 4.148 0 0 0 -3.364 -4.036l0 -2.692a20.192 20.192 0 1 0 -40.38 0l0 2.692a4.12 4.12 0 0 0 0.424 8.156 20.192 20.192 0 0 0 39.532 0 4.16 4.16 0 0 0 3.788 -4.12Z" fill="#ffcebf" stroke="#45413c" stroke-linecap="round" stroke-linejoin="round" stroke-width="4"></path><path d="M31.804 236.204a2.524 2.524 0 1 0 5.048 0 2.524 2.524 0 1 0 -5.048 0Z" fill="#ffb59e" stroke-width="4"></path><path d="M53.672 236.204a2.524 2.524 0 1 0 5.048 0 2.524 2.524 0 1 0 -5.048 0Z" fill="#ffb59e" stroke-width="4"></path><path d="M40.216 242.244a9.084 9.084 0 0 0 10.092 0" fill="none" stroke="#45413c" stroke-linecap="round" stroke-linejoin="round" stroke-width="4"></path><path d="M67.132 221.904a21.872 21.872 0 1 0 -43.74 0l0 5.048a1.68 1.68 0 0 0 1.68 1.68l3.368 0a1.68 1.68 0 0 0 1.68 -1.68 14.956 14.956 0 0 1 4.556 -10.736 3.356 3.356 0 0 1 2.824 -0.928 9.536 9.536 0 0 1 5.6 2.756 12.688 12.688 0 0 0 15.6 2.068 15.34 15.34 0 0 1 1.6 5.248 1.796 1.796 0 0 0 1.776 1.6l3.364 0a1.684 1.684 0 0 0 1.68 -1.684Z" fill="#ff6196" stroke="#45413c" stroke-linecap="round" stroke-linejoin="round" stroke-width="4"></path><path d="M45.26 206.76a25.2 25.2 0 0 1 21.692 12.34 21.872 21.872 0 0 0 -43.38 0 25.2 25.2 0 0 1 21.688 -12.34Z" fill="#ff87af" stroke-width="4"></path><path d="M67.132 221.904a21.872 21.872 0 1 0 -43.74 0l0 5.048a1.68 1.68 0 0 0 1.68 1.68l3.368 0a1.68 1.68 0 0 0 1.68 -1.68 14.956 14.956 0 0 1 4.556 -10.736 3.356 3.356 0 0 1 2.824 -0.928 9.536 9.536 0 0 1 5.6 2.756 12.688 12.688 0 0 0 15.6 2.068 15.34 15.34 0 0 1 1.6 5.248 1.796 1.796 0 0 0 1.776 1.6l3.364 0a1.684 1.684 0 0 0 1.68 -1.684Z" fill="none" stroke="#45413c" stroke-linecap="round" stroke-linejoin="round" stroke-width="4"></path><path d="M58.7 220.112a1.052 1.052 0 0 0 -0.26 -1.92 11.448 11.448 0 0 1 -6.44 -4.7" fill="#ffdf3d" stroke="#45413c" stroke-linecap="round" stroke-linejoin="round" stroke-width="4"></path><path d="M37.692 226.952a2.524 2.524 0 1 0 2.524 2.52 2.52 2.52 0 0 0 -2.524 -2.52Z" fill="#45413c" stroke-width="4"></path><path d="M52.832 226.952a2.524 2.524 0 1 0 2.524 2.52 2.524 2.524 0 0 0 -2.524 -2.52Z" fill="#45413c" stroke-width="4"></path><path d="M45.26 200.032a21.808 21.808 0 0 1 15.436 6.368 8.848 8.848 0 0 0 1.388 -4.692c0 -6.504 -7.532 -11.78 -16.824 -11.78s-16.8 5.276 -16.8 11.78a8.848 8.848 0 0 0 1.368 4.692 21.804 21.804 0 0 1 15.432 -6.368Z" fill="#ff6196" stroke="#45413c" stroke-linecap="round" stroke-linejoin="round" stroke-width="4"></path><path d="M192.956 74.156a44.088 44.088 0 1 0 88.176 0 44.088 44.088 0 1 0 -88.176 0Z" fill="#ffffff" stroke="#45413c" stroke-linecap="round" stroke-linejoin="round" stroke-width="4"></path><path d="M265.64 85.6a4.7 4.7 0 0 0 -3.816 -4.572l0 -3.052a22.876 22.876 0 0 0 -45.752 0l0 3.052a4.668 4.668 0 0 0 0.48 9.244 22.88 22.88 0 0 0 44.8 0 4.72 4.72 0 0 0 4.288 -4.672Z" fill="#d18660" stroke="#45413c" stroke-linecap="round" stroke-linejoin="round" stroke-width="4"></path><path d="M265.64 85.6a4.7 4.7 0 0 0 -3.816 -4.572l0 -3.052a22.876 22.876 0 0 0 -45.752 0l0 3.052a4.668 4.668 0 0 0 0.48 9.244 22.88 22.88 0 0 0 44.8 0 4.72 4.72 0 0 0 4.288 -4.672Z" fill="none" stroke="#45413c" stroke-linecap="round" stroke-linejoin="round" stroke-width="4"></path><path d="M230.372 77.968a2.86 2.86 0 1 0 2.86 2.86 2.86 2.86 0 0 0 -2.86 -2.86Z" fill="#45413c" stroke-width="4"></path><path d="M247.528 77.968a2.86 2.86 0 1 0 2.86 2.86 2.86 2.86 0 0 0 -2.86 -2.86Z" fill="#45413c" stroke-width="4"></path><path d="M223.7 88.452a2.86 2.86 0 1 0 5.72 0 2.86 2.86 0 1 0 -5.72 0Z" fill="#bd704a" stroke-width="4"></path><path d="M248.48 88.452a2.86 2.86 0 1 0 5.72 0 2.86 2.86 0 1 0 -5.72 0Z" fill="#bd704a" stroke-width="4"></path><path d="M233.232 95.3a10.308 10.308 0 0 0 11.436 0" fill="none" stroke="#45413c" stroke-linecap="round" stroke-linejoin="round" stroke-width="4"></path><path d="m214.168 60.8 0 17.156a1.908 1.908 0 0 0 1.904 1.908l1.928 0 7.6 -19.064Z" fill="#614b44" stroke="#45413c" stroke-linecap="round" stroke-linejoin="round" stroke-width="4"></path><path d="M263.732 62.716a15.252 15.252 0 0 0 -15.252 -15.248l-17.156 0a3.808 3.808 0 0 1 -3.46 -2.216 2.74 2.74 0 0 0 -2.26 -1.6l-3.24 0A11.828 11.828 0 0 0 210.4 54a11.44 11.44 0 0 0 10.136 12.456 10.464 10.464 0 0 0 8.876 7.696l3.816 0a0.692 0.692 0 0 0 0.352 -1.284 7.756 7.756 0 0 1 -3.516 -4.652 1.312 1.312 0 0 1 1.256 -1.692l15.576 0a3.804 3.804 0 0 1 2.696 1.12l10.324 10.32 1.904 0a1.904 1.904 0 0 0 1.908 -1.908Z" fill="#614b44" stroke-width="4"></path><path d="m248.48 47.468 -17.156 0a3.812 3.812 0 0 1 -3.46 -2.216 2.74 2.74 0 0 0 -2.26 -1.6l-3.24 0A11.828 11.828 0 0 0 210.4 54a11.556 11.556 0 0 0 0.356 4.108 102.868 102.868 0 0 1 22.472 -2.4 95.844 95.844 0 0 1 30.308 4.572 15.252 15.252 0 0 0 -15.056 -12.812Z" fill="#947063" stroke-width="4"></path><path d="M263.732 62.716a15.252 15.252 0 0 0 -15.252 -15.248l-17.156 0a3.808 3.808 0 0 1 -3.46 -2.216 2.74 2.74 0 0 0 -2.26 -1.6l-3.24 0A11.828 11.828 0 0 0 210.4 54a11.44 11.44 0 0 0 10.136 12.456 10.464 10.464 0 0 0 8.876 7.696l3.816 0a0.692 0.692 0 0 0 0.352 -1.284 7.756 7.756 0 0 1 -3.516 -4.652 1.312 1.312 0 0 1 1.256 -1.692l15.576 0a3.804 3.804 0 0 1 2.696 1.12l10.324 10.32 1.904 0a1.904 1.904 0 0 0 1.908 -1.908Z" fill="none" stroke="#45413c" stroke-linecap="round" stroke-linejoin="round" stroke-width="4"></path><path d="m295.5696540332 282.715245858 16.0063484552 -16.005789738 28.0094249468 28.0104026772 -16.0063484548 16.005789738z" fill="#f0f0f0" stroke="#45413c" stroke-linecap="round" stroke-linejoin="round" stroke-width="4"></path><path d="m394 364.4 -0.764 0.764a16.508 16.508 0 0 1 -23.252 0l-50.54 -50.56a5.504 5.504 0 0 1 0 -7.752l16.264 -16.264a5.5 5.5 0 0 1 7.748 0L394 341.128a16.4 16.4 0 0 1 0 23.272Z" fill="#bf8256" stroke-width="4"></path><path d="m394 364.4 -0.4 0.38 -66 -66.092 8.08 -8.08a5.5 5.5 0 0 1 7.748 0L394 341.128a16.4 16.4 0 0 1 0 23.272Z" fill="#dea47a" stroke-width="4"></path><path d="m394 364.4 -0.764 0.764a16.508 16.508 0 0 1 -23.252 0l-50.54 -50.56a5.504 5.504 0 0 1 0 -7.752l16.264 -16.264a5.5 5.5 0 0 1 7.748 0L394 341.128a16.4 16.4 0 0 1 0 23.272Z" fill="none" stroke="#45413c" stroke-linecap="round" stroke-linejoin="round" stroke-width="4"></path><path d="M175.1460710416 266.9972570728a84.888 84.888 0 1 0 144.8135446676 -88.616744788 84.8880000002 84.8880000002 0 1 0 -144.813544668 88.616744788Z" fill="#f0f0f0" stroke="#45413c" stroke-linecap="round" stroke-linejoin="round" stroke-width="4"></path><path d="M295.572 174.672a67.908 67.908 0 1 1 -96.04 0 67.908 67.908 0 0 1 96.04 0Z" fill="#00b8f0" stroke-width="4"></path><path d="M199.532 270.708a67.9091210663 67.9091210663 0 1 1 96.04 -96.036Z" fill="#4acfff" stroke-width="4"></path><path d="M245.916 255.24a45.28 45.28 0 0 0 -38.656 22.124 67.968 67.968 0 0 0 78.232 1.664 45.172 45.172 0 0 0 -39.576 -23.788Z" fill="#f0f0f0" stroke-width="4"></path><path d="M245.916 255.24a45.28 45.28 0 0 0 -38.656 22.124 67.736 67.736 0 0 0 6.952 4.504 44.884 44.884 0 0 1 64.532 1.164 68 68 0 0 0 6.748 -4 45.172 45.172 0 0 0 -39.576 -23.792Z" fill="#ffffff" stroke-width="4"></path><path d="M245.916 255.24a45.28 45.28 0 0 0 -38.656 22.124 67.968 67.968 0 0 0 78.232 1.664 45.172 45.172 0 0 0 -39.576 -23.788Z" fill="none" stroke="#45413c" stroke-linejoin="round" stroke-width="4"></path><path d="M259.332 257.42q-1.08 -0.344 -2.18 -0.616a3.92 3.92 0 0 1 -2.96 -3.808l0 -13.512 -15.908 0 0 13.36a3.92 3.92 0 0 1 -2.996 3.808c-0.92 0.224 -1.836 0.472 -2.74 0.756l-0.092 0.12a13.508 13.508 0 0 0 26.952 0Z" fill="#ffcebf" stroke="#45413c" stroke-linecap="round" stroke-linejoin="round" stroke-width="4"></path><path d="M281.732 206a36 36 0 0 1 -72 0c0 -19.904 10.16 -35.52 20.496 -38.488a4.996 4.996 0 0 1 4.928 1.284c11.192 11.256 46.576 -2.772 46.576 37.204Z" fill="#ffdf3d" stroke-width="4"></path><path d="M281.344 211.304c-4.028 -33.264 -38.984 -18.632 -47.6 -32.3 -10.244 0 -21.416 13.6 -23.6 32.424a36.184 36.184 0 0 1 -0.4 -5.424c0 -19.904 10.16 -35.52 20.496 -38.488a4.996 4.996 0 0 1 4.928 1.284c11.2 11.252 46.568 -2.776 46.568 37.2a36.212 36.212 0 0 1 -0.392 5.304Z" fill="#ffef9e" stroke-width="4"></path><path d="M281.732 206a36 36 0 0 1 -72 0c0 -19.904 10.16 -35.52 20.496 -38.488a4.996 4.996 0 0 1 4.928 1.284c11.192 11.256 46.576 -2.772 46.576 37.204Z" fill="none" stroke="#45413c" stroke-linecap="round" stroke-linejoin="round" stroke-width="4"></path><path d="m275.764 215 -6.044 3 -4.36 -15.256a5.956 5.956 0 0 0 -7.004 -4.224 54.52 54.52 0 0 1 -25.268 0 5.96 5.96 0 0 0 -7.004 4.224L221.724 218l-5.952 -3c-8.564 0 -8 15 1.496 15l0.028 0a29.8 29.8 0 0 0 56.944 0l0 0c9.508 0 10.084 -15 1.524 -15Z" fill="#ffcebf" stroke="#45413c" stroke-linecap="round" stroke-linejoin="round" stroke-width="4"></path><path d="M232.884 215.752a3.544 3.544 0 1 0 7.088 0 3.544 3.544 0 1 0 -7.088 0Z" fill="#45413c" stroke-width="4"></path><path d="M251.62 215.752a3.544 3.544 0 1 0 7.088 0 3.544 3.544 0 1 0 -7.088 0Z" fill="#45413c" stroke-width="4"></path><path d="M230.8 224a3 3 0 1 1 -2.996 -3 2.996 2.996 0 0 1 2.996 3Z" fill="#ffb59e" stroke-width="4"></path><path d="M266.8 224a3 3 0 1 1 -3 -3 3 3 0 0 1 3 3Z" fill="#ffb59e" stroke-width="4"></path><path d="M238.308 233.732a13.528 13.528 0 0 0 14.996 0" fill="none" stroke="#45413c" stroke-linecap="round" stroke-linejoin="round" stroke-width="4"></path><path d="M295.572 174.672a67.908 67.908 0 1 1 -96.04 0 67.908 67.908 0 0 1 96.04 0Z" fill="none" stroke="#45413c" stroke-linecap="round" stroke-linejoin="round" stroke-width="4"></path><path d="M117.084 305.356a28.048 28.048 0 1 0 56.096 0 28.048 28.048 0 1 0 -56.096 0Z" fill="#ffffff" stroke="#45413c" stroke-linecap="round" stroke-linejoin="round" stroke-width="4"></path><path d="M136.108 304.704a9.024 9.024 0 0 0 18.048 0l0 -4.512a9.024 9.024 0 0 0 -18.048 0Z" fill="#ffcebf" stroke="#45413c" stroke-linecap="round" stroke-linejoin="round" stroke-width="4"></path><path d="M163.884 326.212a28.044 28.044 0 0 1 -37.488 0 20.3 20.3 0 0 1 37.464 -0.032" fill="#ff6242" stroke="#45413c" stroke-linecap="round" stroke-linejoin="round" stroke-width="4"></path><path d="M136.184 299.028a9.024 9.024 0 0 1 16.444 -3.86 16.44 16.44 0 0 1 -16.444 3.86Z" fill="#a86c4d" stroke="#45413c" stroke-linecap="round" stroke-linejoin="round" stroke-width="4"></path><path d="M68.9 103.016a28.048 28.048 0 1 0 56.096 0 28.048 28.048 0 1 0 -56.096 0Z" fill="#ffffff" stroke="#45413c" stroke-linecap="round" stroke-linejoin="round" stroke-width="4"></path><path d="M87.92 102.364a9.028 9.028 0 0 0 18.052 0l0 -4.512a9.028 9.028 0 0 0 -18.052 0Z" fill="#ffcebf" stroke="#45413c" stroke-linecap="round" stroke-linejoin="round" stroke-width="4"></path><path d="M115.696 123.876a28.056 28.056 0 0 1 -37.488 0 20.3 20.3 0 0 1 37.464 -0.032" fill="#6dd627" stroke="#45413c" stroke-linecap="round" stroke-linejoin="round" stroke-width="4"></path><path d="M88 96.688a9.02 9.02 0 0 1 16.444 -3.856A16.444 16.444 0 0 1 88 96.688Z" fill="#a86c4d" stroke="#45413c" stroke-linecap="round" stroke-linejoin="round" stroke-width="4"></path></g></svg>