<svg xmlns="http://www.w3.org/2000/svg" viewBox="0 0 400 400" id="Businessman-Giving-Keynote--Streamline-Free-Illustrations" stroke-width="1"><desc>Businessman Giving Keynote Streamline Illustration: https://streamlinehq.com</desc><g transform="scale(2)"><title>Businessman-giving-keynote</title><g><g><path d="M41.91 145a6 6 0 0 0 1.28 3.67c4.24 5.65 8.07 7.18 6.71 14-.19 1-.46 1.93-.7 2.89-1 3.8-4.64 2.89-11.34 4.35a27.58 27.58 0 0 1-10.75 0c-1.68-.3-3.39-.52-5.08-.86s-2.48-1.35-2.13-3.15c1.23-6.39-5.25-2.66-12.09-18-3.15-7.02 3.19-15.76 9.11-20.9 3.91-3.36 12-8.16 16.87-8.75a16.75 16.75 0 0 1 5.65.1 3.46 3.46 0 0 1 2.53 3c.52 5.92-.13 19.19-.06 23.65Z" fill="#fef0bb"></path><path d="M175.46 142.11c-2.3 0-2.5-.42-2.87-2.08-.49-2.17.3-3.45 2.07-4.49a22.16 22.16 0 0 0 2-1.68c1.2-.92 1.27-2.26 1.39-3.58a1.27 1.27 0 0 0-.87-1.31c-3.91-1.8-5.49-.48-6.85-2.76-10.18-16.87-9.08-13.89-10.34-16.54a.59.59 0 0 1 .17-.8c.28-.18.51 0 .71.17s.54.52.72.13c.56-1.18 1.81-1.21 2.77-1.67a11.91 11.91 0 0 1 4.24-1.5c6.33-.49 11.84 1 15.73 6.45 4.36 6.15 6.91 13.94 3.28 20.56a44.33 44.33 0 0 1-3.52 5.54 6.07 6.07 0 0 1-3.53 2.45c-1.89.35-3.72 1-5.1 1.11Z" fill="#fef0bb"></path><path d="M160.73 183.49c-2.34-7.3-7.14-13.48-11.19-19.91a2.71 2.71 0 0 0-2.51-1.41c-8.17 1.11-17.24-.94-38.15 5.52.48.18.17.56 0 .89-1.75 4-4.24 9.52-4.19 14a2.1 2.1 0 0 1-.5-.65 2.1 2.1 0 0 1-.72 1.06 32.42 32.42 0 0 1 2.53 3.53c3.13 3 3.31 6.32 7.6 6.85 10.87 1.32 19.35 0 25.39-.18 1.87-.07 15.88-.07 21.83-1.14 2.13-.39 1.78-1.4 1.33-3.37a48.52 48.52 0 0 1-1.42-5.19Z" fill="#fef0bb"></path></g><g><path d="M74.46 151.37c2.13-3.9 2.6-5.17 3.88-5.17 1 0 1.47.74 1.72 1.65 1.5 5.48 0 12 1.78 15.93.36.81.63.82 1.14.1a24.28 24.28 0 0 0 2.85-6.76c.87-2.74.92-4.14 2.08-4.05 1.42.11 1.12 2.36 2.82 8.05 2.8-7.85-.21-14.1 2.57-15.28 1.07-.45 1.91.28 2.67.93a13.12 13.12 0 0 1 3.35 4.77 11.81 11.81 0 0 1-1 12.18c-2.65 3.86 2 3.44-.86 12a15.6 15.6 0 0 1-1.94 4.75c-.13.18-.22 5-6.06 8a5.27 5.27 0 0 1-3.42.22c-6.63-1.15-11.13-5.55-16.87-3.88-2.14.62-3.36.06-4.55-1.81a6.87 6.87 0 0 1-.7-6.44 13.35 13.35 0 0 0 1.23-4.56c0-5-5-5.22-2.79-13.07A56.45 56.45 0 0 1 67 147.29a8.65 8.65 0 0 1 2.89-3.29 1.2 1.2 0 0 1 1.56 0c.52.56 1 .4 1.58.33 3.18-.41 1.31 3.53 1.44 5.69.01.34-.01.69-.01 1.35Z" fill="#ffc7d6"></path><path d="M86.66 49.58a30.78 30.78 0 0 0-.16-4c0-.19.08-.37-.16-.5-2.32-1.13-3.14-3.34-3.83-5.57a5.53 5.53 0 0 0-3.4-3.75 7 7 0 0 1-2.38-1.62c-1.66-1.68-.78-4.11 1-5.24.88-.55 2.59.34 2.89 1.39a.6.6 0 0 0 .34.45 2.08 2.08 0 0 0 2.51-.86 17.63 17.63 0 0 1 2.22-3.05c.17-.21.34-.44.65-.39 2.37.35 4.25-.92 6.09-2 2.87-1.74 5.62-3.66 7.48-6.58a1 1 0 0 1 1.69 0c1.36 2.07 3.5 3.1 5.57 4.2s2.21 1.56 1.91 3.71c-.82 5.94-.35 8-2.45 14.06a5 5 0 0 1-3.07 2.93 13.08 13.08 0 0 1-5.24 1 19.86 19.86 0 0 0-4.41.68c-1.37.27-.71 1.72-2 2.14-.37.12-.28.37-.22.64a22 22 0 0 1 .32 5.25c0 .37 0 .81-.47.85s-.51-.41-.58-.76a31 31 0 0 1-.15-5.27c0-1.13-.59-1.11-1.67-1.33-1.89-.38-1.88-.38-1.72 1.58 2.36 30.77 3.15 30.66 2.23 30.71-.49 0-.57-.52-.62-.89-.25-2.23-2.67-24.86-2.37-27.78Zm1.67-15A1.64 1.64 0 0 0 90 33a1.72 1.72 0 0 0-1.6-1.6c-2.09-.07-2.02 3.13-.07 3.16Zm16.6 3.1c1.68.1 1.68-3 .11-2.89-.88 0-1.12.71-1.23 1.42a1.2 1.2 0 0 0 1.12 1.45Z" fill="#ffc7d6"></path><path d="M60.72 23a46.9 46.9 0 0 0-7.36-3.26c-1.1-.44-.78.59-.89 1.19-.21 1.36-.91 1.65-2 .79a48.47 48.47 0 0 1-6.23-5.84 1.24 1.24 0 0 1-.07-1.71c1-1.31 1.94-2.61 3-3.86.8-1 1.46-.94 2.3 0 1.25 1.38 1.24 3.55 2.21 2.5 4.24-4.64 3.2.6 10.24 8.76.82.86.25 2.2-1.2 1.43Z" fill="#ffc7d6"></path><path d="M51.9 31.07a.86.86 0 0 1-1.31.78C47.46 30.39 44 29.74 41 28.06c-.7-.38-1.11-.39-1.11.56a3.15 3.15 0 0 1-.12.58c-.26 1.43-.79 1.66-2 .85-2.11-1.38-4.22-2.74-6.34-4.11-.9-.58-.85-.76-.11-1.49a14.15 14.15 0 0 0 2.11-3.12c1.46-2.49 1.92-2.52 3.56-.14 1.07 1.57 1.07 1.57 2.4.29 2-1.92 1.89.34 8.21 5.86 2.4 2.16 4.2 2.97 4.3 3.73Z" fill="#ffc7d6"></path><path d="M51.6 51a4.47 4.47 0 0 1-2.23-.29c-.5-.17-.72-.15-1 .41-.69 1.65-1.88 3.05-2.49 4.75-.29.82-.94.72-1.57.41a1 1 0 0 1-.59-1.42c1.74-4.35 3.38-4.73 1.91-5-1.83-.28-3.65-.66-5.48-.93a12.8 12.8 0 0 1-2.52-.9c-.69-.27-.56-.93-.45-1.48a39.88 39.88 0 0 1 2.86-7.83c.54-1.27 1-1.49 2.22-.84 1.83 1 3.68 2 5.4 3.18a6.75 6.75 0 0 0 3.18 1.47A5.23 5.23 0 0 1 54 44.28c2.09 2.16.47 6.17-2.4 6.72ZM44 48.31c1 .25.81-.91 3.33-5.12.43-.7.29-1-.38-1.35a47.15 47.15 0 0 1-5.3-2.84c-.32-.24-.41-.13-.52.22-2.45 7.53-3.34 7.64-1.43 8.19 1.43.37 2.89.59 4.3.9Zm7.3 2c1 .19 1.47-.55 1.9-1.38.6-1.15 1.07-2.36.2-3.54a5.49 5.49 0 0 0-3.09-2 .61.61 0 0 0-.85.41c-1.93 4.91-2.32 5-1.86 5.17 1.18.44 2.19 1.36 3.72 1.35Z" fill="#ffc7d6"></path><path d="M84.18 59.65c-.38 0-.48-.27-.55-.58-.54-2.26-.93-10.75-1.53-14.47a2.61 2.61 0 0 1 0-.4c0-.34 0-.72.39-.81s.67.27.74.63c.61 2.76.46 1.51 1.34 11.52.08 1.09.43 4.04-.39 4.11Z" fill="#ffc7d6"></path><path d="M28.18 39.9a8.47 8.47 0 0 1 3.46-6 1.72 1.72 0 0 1 .84-.28c.36-.06.91.55.42.86-2.09 1.3-2.82 3.42-3.44 5.62-.15.56-.17 1.52-.76 1.45s-.51-1.02-.52-1.65Z" fill="#ffc7d6"></path><path d="M94.06 47.88c0-2.5-.12-3.32.53-3.3.38 0 .4.37.44.68a24.25 24.25 0 0 1 0 6c0 .23 0 .53-.28.58s-.4-.31-.48-.54a10.2 10.2 0 0 1-.21-3.42Z" fill="#ffc7d6"></path><path d="M31.48 39.79a4.62 4.62 0 0 1 2.1-3.23.69.69 0 1 1 .88 1.07c-2 1.56-1.2 3.71-2.41 3.47-.52-.1-.64-.87-.57-1.31Z" fill="#ffc7d6"></path><path d="M148.92 49.16c.91 1.49 1.11-.59 4.69-.43 1.59.07 3.19.05 4.78 0a10.66 10.66 0 0 0 3.24-.51c-3.48-1.81-4.76-1-4.61-2.16.12-1 1.29-.34 4.6-.55a10.59 10.59 0 0 0 2.77-.33.76.76 0 0 0-.19-.39 2.24 2.24 0 0 0-.34-.11 20.12 20.12 0 0 0-6.83-.44c-.47 0-1 0-1.06-.59s.52-.69 1-.76c3.77-.55 4.82-.5 6.25-1a.7.7 0 0 0-.15-.19 11.51 11.51 0 0 0-1.67-.34l-3.57 0c-2.5.28-3.48.94-3.71 0-.18-.66.75-.79 1.09-.9a49.53 49.53 0 0 0 5-1.67 6.06 6.06 0 0 0-3.26-.09 12.49 12.49 0 0 0-6 2.32.83.83 0 0 1-1.17.06c-1.27-.91 2.21-2.94 2.71-4.32a3.46 3.46 0 0 0-1.39.47 26.64 26.64 0 0 0-6.41 4.77 3.62 3.62 0 0 0-.68 1c-.2.36-.22.55.16.87a22.07 22.07 0 0 1 4.75 5.29Z" fill="#ffc7d6"></path><path d="M66.71 81.07c3.56.12 3.86.43 4 0s-.3-.55-.58-.7c-2.46-1.39-4.72-.52-4.56-1.77s2.19.36 6-.55a.78.78 0 0 0 .56-.36 3.76 3.76 0 0 0-2.49-1 44.19 44.19 0 0 1-5-.67c-.43-.07-.87-.14-.79-.67s.55-.51 1-.46a30.33 30.33 0 0 1 4.94.62 2.35 2.35 0 0 0 .59 0c.23 0 .5 0 .58-.27s-.14-.35-.28-.49a5.15 5.15 0 0 0-3.77-1.29 25.34 25.34 0 0 0-5.57.17c-.34.06-.7 0-.86-.32s.14-.67.44-.88a20.81 20.81 0 0 0 3.8-2.89c1.3-1.51-4.63.15-9 4-1.36 1.19-1.79 3-2.47 4.54a11.25 11.25 0 0 0-1 4.31 1.15 1.15 0 0 1-.84-1.25c-.15.16-.62.38-.22 1.48.19.53.65.22 1 .16a66.31 66.31 0 0 1 9-.82c4.6-.2 5.05.23 3.2-.31a3.32 3.32 0 0 1 2.32-.58Z" fill="#ffc7d6"></path></g><g><path d="M150.14 9c5.65.41 13 1.75 16.25 6.36 4.75 6.63-3.44 11.28-11.52 12.08-4.65.47-6.82-.6-8.77.39a14.65 14.65 0 0 1-8.62 1.17c-1.26-.41-1.16-1.56 0-1.87a20.52 20.52 0 0 0 3.65-1.28c3.18-1.49-4.39-1.27-8-4.94a3.66 3.66 0 0 1 0-5.49 18.66 18.66 0 0 1 6.75-4.12c3.3-1.36 6.61-2.62 10.26-2.3Z" fill="#a6eef8"></path><path d="M148.46 70.51a19.57 19.57 0 0 1-3.4-1.73c-2.22-1.5-2.61-3.65-1-5.8a7.94 7.94 0 0 1 5.94-3.24c6.19-.38 12.32-.08 18.14 2.43 5.18 2.24 5.25 6 2.22 7.63-4.17 2.25-10.45 2.55-15.16 2.45-1.41 0-1.93-.48-3.15.33-1.88 1.26-4 1.17-6.15 1-.88-.06-1.16-1.2-.18-1.71.83-.42 1.67-.87 2.74-1.36Z" fill="#a6eef8"></path><path d="M17 184.44c0-1.93 0-1.91-1.65-2.06a26.48 26.48 0 0 1-2.65-.4c-.37-.07-.76-.19-.7-.68s.51-.62.9-.6c6.44.19 3.41 2.16 5.43-6.44.14-.62.19-1.17-.72-1.14a2.43 2.43 0 0 1-.59-.1c-.73-.15-.45-1.07.05-1 1.76.39 2-.8 2.22-2.06.08-.44 0-1.24.7-1.09s.37.9.29 1.37c-.43 2.42-.74 1.83 6.3 3 .64.1 1-.09 1.09-.77.17-1 .42-2 .66-3 .08-.38.18-.88.71-.75s.5.56.43 1c-.16 1-.26 2-.47 2.93-.13.63.08.86.66.92l4.84.48c1 .1 2 .14 3.08.22.48 0 .71-.1.75-.64.08-1.06.26-2.1.38-3.15 0-.37.06-.8.56-.8s.61.48.61.86c-.07 3.41-.56 3.86.54 4 5 .54 6.09 1.42 6-.09-.08-1 1.21-.84 1.1.06s.51 1.1 1.21 1.17a7.6 7.6 0 0 1 1.94.45.69.69 0 0 1-.25 1.35c-.72-.05-1.45-.12-2.18-.19-1-.09-.53.19-1.17 5.11-.06.55.09.79.62.85s1.59.11 1.56.89-1 .65-1.62.69c-.41 0-.68.09-.73.59a.66.66 0 0 1-1.31 0c-.06-.5-.36-.52-.76-.57-1.88-.2-3.78-.11-5.65-.45-.73-.13-.51.63-.86 1.86-.08.29-.26.57-.61.55s-.49-.25-.6-.57c-.42-1.17.35-2.06-.75-2.14-2.71-.21-5.41-.44-8.12-.69-.66-.07-.41.35-.92 2.35-.19.67-.93.63-1.09-.05a3.84 3.84 0 0 1-.15-1.87c.31-1.12-.83-.44-7-1.09-.77-.09-.26 1.22-.62 2.58-.1.37-.16.75-.62.76s-.65-.42-.73-.8a4 4 0 0 1-.11-.85Zm11-3.67c-.17.59.13.94.84 1l7.83.63c.34 0 .66 0 .71-.45.19-1.81.41-3.62.62-5.43.12-1.2-.7-.33-8.59-1.47-.35-.05-.73-.1-.79.47-.22 1.71-.44 3.42-.62 5.25Zm-3.71.65c0 .1-.05 0 1.5 0 .4 0 .57-.13.63-.56.23-1.8.5-3.59.77-5.39.07-.5-.13-.78-.61-.82-5.4-.48-6.77-1.78-6.94-.54-.27 2.06-.53 4.13-.81 6.19-.08.62.11.88.8.89 1.53.05 3.08.15 4.63.23Zm19 1.59 1.84 0c.54 0 .58-.12.63-.56.17-1.55.37-3.08.58-4.62.09-.62-.12-1-.76-1-7.68-.53-5.65-3-6.62 4.84-.1.85.33 1.09 1 1.1 1.16.01 2.34.35 3.3.23Z" fill="#a6eef8"></path><path d="M81.47 93.5a17.69 17.69 0 0 1 3-6.28c.33-.53.8-.94 1.5-.51s.47.93.2 1.48c-2.67 5.43-3 6.79-4.13 6.35-.39-.16-.58-.46-.57-1.04Z" fill="#a6eef8"></path><path d="M48.35 139.64c0-1.47.71-2.52 1.71-2.49a2.86 2.86 0 0 1 2.41 2.62 2.34 2.34 0 0 1-2 2.29 2.51 2.51 0 0 1-2.12-2.42Z" fill="#a6eef8"></path><path d="M105.44 156.44a4 4 0 0 1 1.07-2.1c.83-.81 1.68-1.59 2.57-2.34.51-.44 1.13-.67 1.66 0s.16 1.09-.28 1.56c-3 3.3-3.16 3.69-3.8 3.89a.9.9 0 0 1-1.22-1.01Z" fill="#a6eef8"></path><path d="M94.42 117.18c-.06.63-.23 1.22-1 1.18s-.94-.66-.9-1.29c.1-1.76.24-3.5.37-5.26 0-.68.22-1.29 1.08-1.24 1.17.06 1.03.88.45 6.61Z" fill="#a6eef8"></path><path d="M53.5 85.7c.93.16 1.22.84 3.53 6.25.4 1-1.15 2-2 .22s-1.55-3.3-2.28-5c-.31-.73.11-1.49.75-1.47Z" fill="#a6eef8"></path><path d="M61.58 113.83c0 .61-.16 1.13-.81 1.23s-.94-.39-1.09-.93c-.45-1.66-.9-3.32-1.3-5-.15-.64-.29-1.44.58-1.68s1.24.44 1.42 1.17c.42 1.73.8 3.47 1.2 5.21Z" fill="#a6eef8"></path><path d="M91.15 130.53c-1.15-.07-2.41-.88-4.41-2a1 1 0 0 1-.5-1.56c.49-.9 1-1.13 1.82-.7.52.28 3.35 2.27 3.68 2.52a.9.9 0 0 1 .36 1.21.87.87 0 0 1-.95.53Z" fill="#a6eef8"></path><path d="M69.91 95.14c-.28 1.07.18-.13-2.15 4.68-.31.62-.78 1-1.44.72s-.53-.91-.35-1.4a21.83 21.83 0 0 1 2.16-4.68c.3-.45.69-.79 1.24-.61s.5.71.54 1.29Z" fill="#a6eef8"></path><path d="M102.09 143.89c-1.59 0-3.28-2.93-4-4.37-.28-.53-.37-1.13.26-1.47s1 .1 1.4.57c3 3.85 3.51 4 3.06 4.82a.77.77 0 0 1-.72.45Z" fill="#a6eef8"></path><path d="M59.7 153.42c-.79 2.71-.34 1.16-1.37 5.22-.13.49-.41.86-1 .76a.89.89 0 0 1-.81-1 14 14 0 0 1 1.52-5.7.83.83 0 0 1 1-.39c.44.13.65.47.66 1.11Z" fill="#a6eef8"></path><path d="M99.45 95.65c1.08.42 2.17.81 3.25 1.23a.94.94 0 0 1-.5 1.81 23.73 23.73 0 0 1-5-1.76.85.85 0 0 1-.5-1.07c.3-1.06 1.7-.62 2.75-.21Z" fill="#a6eef8"></path><path d="M133.28 107.39a.73.73 0 0 1-.92-.11c-3.13-3.15-4.84-4.43-3.67-5.48.51-.46 1-.07 1.4.29a46.55 46.55 0 0 1 3.44 3.85 1 1 0 0 1-.25 1.45Z" fill="#a6eef8"></path><path d="M116.38 95.5c0-.9-.11-1.75.78-1.87a.91.91 0 0 1 1 .74 29.05 29.05 0 0 1 .75 4.89c.14 1.5-1.67 1.75-1.92.27a30.81 30.81 0 0 1-.61-4.03Z" fill="#a6eef8"></path><path d="M73.07 124.77c0 .92.16 1.91-.76 2a.85.85 0 0 1-1-.64 39.44 39.44 0 0 1-.61-5.1c0-.56.07-1.19.83-1.23s1 .51 1.09 1.08a23.53 23.53 0 0 1 .45 3.89Z" fill="#a6eef8"></path><path d="M120.76 108.44c0-.68.12-1.12.61-1.2.69-.11.63.26 2.72 5.83.25.67.26 1.32-.49 1.58s-1.12-.36-1.33-1c-.27-.88-1.36-4.29-1.51-5.21Z" fill="#a6eef8"></path><path d="M81.47 109.9c-.4.84-.83 1.66-1.26 2.48-.33.61-.83 1-1.53.71s-.5-1-.3-1.47a21.23 21.23 0 0 1 1.83-4c.23-.36.43-.8.94-.76.3.06 1.32 1.02.32 3.04Z" fill="#a6eef8"></path><path d="M110.9 108.09a29 29 0 0 0-3.5 1.57c-1.44.57-2.13-.9-1.13-1.56q1.88-1.21 3.8-2.32c1.76-1 2.23 1.95.83 2.31Z" fill="#a6eef8"></path><path d="M66.57 135.15c.57 0 .85.15 1 .48a.91.91 0 0 1-.16 1.11 12.55 12.55 0 0 1-4.28 2.46c-.67.26-1.21-.47-1-1.17.56-1.45 3.47-2.46 4.44-2.88Z" fill="#a6eef8"></path><path d="M106.21 88.67c0 2.38.21 3.31-.88 3.33a.86.86 0 0 1-.9-1c.11-3.76-.77-5.71.23-6.07 1.52-.54 1.53 3.64 1.55 3.74Z" fill="#a6eef8"></path><path d="M122.17 83.26a19 19 0 0 1 2.73-3 .89.89 0 0 1 1.33 0 .85.85 0 0 1 0 1.26c-.91 1.06-1.86 2.07-2.82 3.09a1 1 0 0 1-1.11.16c-.48-.23-.44-1.09-.13-1.51Z" fill="#a6eef8"></path><path d="M73.86 84.35c.08-1.82 3.09.85 3 2.24 0 .6-.39.92-1 .75a5.23 5.23 0 0 1-2-2.99Z" fill="#a6eef8"></path><path d="M132.68 96.19c-.56-.1-1.45-.11-1.46-.87s1.39-1 2.25-.84c.42.07.86.22.86.79 0 .82-.84.83-1.65.92Z" fill="#a6eef8"></path><path d="M80.87 36.9a3.3 3.3 0 0 1-1.87-.18c-3.12-1.24-2.94-3-3.27-3.39a1.67 1.67 0 0 1-.48-1.15c-.16-2.42 1.39-3.8 3.15-4.93 1.49-1 1.81-1.17 2.14.85 0 .1 0 .2.07.3a6.16 6.16 0 0 1 1.32 1.43 1.62 1.62 0 0 0 1.64-.43 2.11 2.11 0 0 1-1.43-.72A.57.57 0 0 1 82 28c.3-.49.72.11 2.19.43a24.2 24.2 0 0 0 .76-2.34 13.66 13.66 0 0 1-2.38-1c-.17-.09-.42-.17-.33-.42.36-1.07 3.19 1.82 8.43-.14a18.36 18.36 0 0 0 3.46-1.94c0-.54-1.1-.54-1.55-.58a3.14 3.14 0 0 0-3.3 1.34c-.15.22-.29.38-.56.22s-.2-.47-.12-.72a3.64 3.64 0 0 1 3-2c2.45-.17 3.08.77 3.72.85 2.68-2.08 3.1-2.39 6-6.91a1.2 1.2 0 0 0 .2-1.19c-.23-.48-.72-.41-1.15-.36-1 .13-2.47 1.63-3.18 1.78-.14 0-.25.05-.07-.11.35-.32.06-.24.62-1a1.32 1.32 0 0 0 .26-1.38c-.2-.51-.69-.56-1.18-.54-3.58.14-7.19 2.25-10.1 4.31a16 16 0 0 1-3.8 2.49c-.11-1.22 1.48-3.1.51-3.84a1.15 1.15 0 0 0-1.32.07c-4.1 2.33-3.63 2.67-4.26 1.13-.37-.92-.91-1.38-1.58-1.36a4.45 4.45 0 0 0-1.7 1.21l-.67.74a6.53 6.53 0 0 0-1.72 6.61A6.38 6.38 0 0 1 71 29.52a9.9 9.9 0 0 0-.91 1.54 4.23 4.23 0 0 0-.34 3.38 3.72 3.72 0 0 0 2.46 1.69c1.73.5 2.8.33 4.08 1.24a2.49 2.49 0 0 1 1.9 3.14c.44 1.08.8 2 2 1.55a3 3 0 0 0 .68-5.16Z" fill="#a6eef8"></path><path d="M102.57 16.84c0 1.33.93 2 1.86 2.63 3.57 2.44 7.95 4.2 7.75 7.94 0 1.6-.58 3.74-1.55 4.63a8.22 8.22 0 0 0-1.86 5.65 5.61 5.61 0 0 1-1.35 3.76c-.66.8-1.73 2-1 2.68a9.59 9.59 0 0 1 3.06-.05 1.51 1.51 0 0 0 1.17-.66 18.15 18.15 0 0 0 2.35-3.37c.13-.28.28-.59.65-.45s.37.52.28.86a6.83 6.83 0 0 1-.4 1.07c-.31.65.59 3 2.22 1.73 3-2.3 5.89-6.62 3-9-1.78-1.46-1.55-3.5-1.53-5.91 0-2.74-.63-6.37-2.71-8.16-.75-.65-1.35-.5-1.67.41s-.74.55-1.09.11a17.66 17.66 0 0 0-6.11-4.35c-.91-.45-2.12-.12-2.8-1.12 0-.06-.36 0-.45.07a.93.93 0 0 0-.25 1l.06.16c.11-.12.38-.02.37.37Z" fill="#a6eef8"></path><path d="M159.28 111c-.43 0-.42.1-.87.35a2.47 2.47 0 0 1-.71.71 51.79 51.79 0 0 0-6.17 5.65c-1.44 2.63-.3 4.3-1.92 5.91a1.8 1.8 0 0 1 0 .22c.17 1-.86 1.13-1.66 1.53a2.66 2.66 0 0 0-1.7 2c1 1.46 2.95 1.44 2.58 4.06a.64.64 0 0 0 0 .07c.2 1.12-.18-.23.45 7.74a4.3 4.3 0 0 0 .39 1.48 5 5 0 0 0 3.33 1.58 39.25 39.25 0 0 0 5.73.64c1.27 0 1.89.32 2.29 1.16a2.62 2.62 0 0 1 .47 1.64 26.94 26.94 0 0 1 .35 3.36 1.26 1.26 0 0 0 1.41-.13c7.12-4.36 9-3.35 8.82-5.43-.36-4.69-.53-4.73-.39-5.49a1.27 1.27 0 0 0-.56-.24.52.52 0 0 1-.37-.71c.28-.74 1.05-.06 2.58-.1 2.63-1.18 4.64-6 2.87-7.8a4.28 4.28 0 0 0-4.12 1.47c-.13.16-.19.5-.51.31-.63-.35 0-1.3.55-1.74-.89.46-1.28.84-1.45-.06-.55-2.94-1.91-4.6-5.27-11.45a23.62 23.62 0 0 0-3.48-5.27 11.68 11.68 0 0 0-2-1.95.67.67 0 0 1 0 .22c-.05.46-.41.27-.64.27Zm-2.26 19c-2.44 0-2.25-3.58.15-3.61a1.81 1.81 0 0 1 1.91 1.62 2.08 2.08 0 0 1-2.08 1.93Z" fill="#a6eef8"></path></g><g><path d="M190.44 162.29a3.48 3.48 0 0 1-2.81-2.66c-.2-1-5.09-9.18-6.2-11.23-.32-.6-1.56-1.78-1.82-2.22-2.4-4-1-3.84-6.07-1.92a3.44 3.44 0 0 0-.1-.37c-.21-.51-.06-1.47-.87-1.31s-.29 1-.25 1.52c.09 1.27.76-.15-9.79 5.58-.5.27-.71.19-.71-.59-.29-5.38-1-6.15-3.11-6.16a40.67 40.67 0 0 1-5.73-.64 4.92 4.92 0 0 1-3.31-1.64c-1.76-2.14-1.23-6.47-.84-9.22l0-.08c.37-2.6-1.52-2.54-2.58-4-.71-1 .35-1.41 3-3.38a3.39 3.39 0 0 0 1.32-2.24c.28-1.83 0-2.26 1-4 1.59-3 4.27-5 7.28-6.6.59-.32 1.05.22 1.07-.35s-1-.64-1.59-.36a16 16 0 0 0-7.23 5.58c-1.86 2.86-1.32 3.33-1.32 4.74 0 2.6-1.83 3.44-3.31 4.47s-1.54 2-.28 3.26a3.12 3.12 0 0 0 .68.58 2.11 2.11 0 0 1 1 2.57 19.33 19.33 0 0 0-.3 4.86c.19 3.92 1.93 5.95 5.74 6.78a29.68 29.68 0 0 0 5.22.81 1.33 1.33 0 0 1 1.44 1.32c.3 2.85.88 4.25.53 5.21s-1.6 1.18-2.41 1.79a8 8 0 0 0-3 3.14c-3.31 8-2.22 8.93-3 9.13-.13-.17-.26-.31-.37-.48-1.37-2.12-3.12-3.32-5.8-2.79a29.92 29.92 0 0 1-3.68.23c-.47 0-.66-.1-.74-.64a15.48 15.48 0 0 0-1.55-4.93c-1-2-4.49-1.7-6.6-1.61-.4 0-.86.24-1.07-.38-.41-1.21-.88-2.41-1.34-3.64 1.43.14 1.41.13 1.77-1.24.83-3.07 1.7-6.12 2.51-9.19a1.13 1.13 0 0 1 .81-.85c5.95-2.33 6.23-8.29 2.05-9.09.91-3.06 1.67-5.3 1.12-7.3a30.07 30.07 0 0 0-4.37-9.65c-.52-.72-.89-.76-1.47-.1 0-3.18.51-1.32 1.46-20.12.05-.75-.37-1.71.12-2.21s1.51-.21 2.3-.26c1.31-.09 1.72-.59 1.37-1.88-.72-2.76-1.49-5.52-2.21-8.29a1.53 1.53 0 0 0-1.78-1.32c-3.88.22-20 1-24.11 1.23-.39 0-.74 0-.76-.51a6.33 6.33 0 0 1 .46-3.2 31.89 31.89 0 0 0 2.97-7.44c.14-.69.5-.62.92-.37a20.76 20.76 0 0 0 4.3 1.72c4.6 1.49 6.6 2.65 8.6 2.47.25 0 .49-.08.52-.36s-.37-.27-2.65-1.16a89.06 89.06 0 0 0-10.47-3.8c-.77-.19-1-.52-1-1.25a9.85 9.85 0 0 0-4.39-7.37 2.81 2.81 0 0 0-1.35-.6c-.25 0-.57-.09-.68.25s.16.45.41.58a8.6 8.6 0 0 1 4.5 7.89c0 7.7-4.15 8.79-3.37 12.67.07.33 0 .6-.42.63l-3.81.21c1.32-2.11-1.34-2.75-4.77-6.13a1 1 0 0 1-.32-1.3c.7-1.82 1.34-3.67 2-5.49 1-2.65 1-2.75-1.25-4.44-1.42-1.06-2.08-1.24-1.71-1.9.18-.32.4 0 .59 0 .37.15.71.36 1.09.49 1.24.46 1.62.21 1.71-1.12.22-2.91.91-13.12 1.15-15.3 0-.24.17-.58-.24-.63s-.39.2-.46.43c-.67 2-.76 4.3-1.57 14.93 0 .26 0 .54-.42.53A2.49 2.49 0 0 1 98 58.76c-.51-2-.48-4.16-1.49-6.06-.29-.5.73-1.16.59-6.29-.06-1.74.87-.11 6.76-2.71a7.15 7.15 0 0 0 4.19-4.7 88.48 88.48 0 0 0 2.46-12.71c.06-.49.07-1-.46-1s-.62.37-.69.79c0 .26-.13.52-.18.77-2.53 11.24-1.73 14.39-6.39 16-2.84 1-5.69 1.58-8.69.74-.61-.18-1.22-.19-1.31.71a.56.56 0 0 1-.26.29c-2.57 1.76-4.67 2.24-6.78-.69a12.3 12.3 0 0 1-2.37-4.53 9.93 9.93 0 0 0-.71-1.85c-.14-.34-.34-.74-.8-.55s-.2.67.18 2a23.9 23.9 0 0 0 .77 2.35c.83 2.11-1.87.28-6 3.54-2.32 1.83-4.76 3.51-7.13 5.29s-4 1.51-6.86 3.58c-1.52 1.09-2.69 2.38-2.69 4.4 0 1.19-2.62 1.64-3.62 10.25-.2 1.7-.32 3.37-1.74 4.66a11.14 11.14 0 0 0-2.23 3.4 10.27 10.27 0 0 0-1.25 4.67 1.18 1.18 0 0 0 .84 1.31 10.9 10.9 0 0 1 1-4.31c.67-1.59 1.11-3.35 2.47-4.55A20 20 0 0 1 64.29 69a.6.6 0 0 1 .48.08c.16.18 0 .37-.16.5a21.16 21.16 0 0 1-3.8 2.89c-.31.21-.65.45-.45.88s.53.38.87.32a26 26 0 0 1 5.57-.17 5.14 5.14 0 0 1 3.77 1.29c.14.14.34.26.28.49s-.35.27-.58.27a1.91 1.91 0 0 1-.59 0 30.61 30.61 0 0 0-4.94-.62c-.41 0-.88 0-1 .46s.36.6.78.67a44.8 44.8 0 0 0 5 .67 3.79 3.79 0 0 1 2.5 1 .78.78 0 0 1-.57.36c-3.75.91-5.78-.8-6 .55s2.11.37 4.56 1.76c.28.16.69.34.58.71s-.52.19-.79.18c-3.11-.14-4.39-.54-5.64.49.37.1 1.74.49 2.14.59a2.22 2.22 0 0 1-.42.19c-3.72.25-7.45.6-11.18.71-2.79.09-5.59.14-8.38.27-1.33.06-1.63.61-1 1.78.32.65 1.63 5.69 1.76 6.22a1.27 1.27 0 0 0 1.36 1.07l2 0c1.08 0 .26.41 1.9 11.73.81 5.59.09 3.15 2.81 22.55a4.62 4.62 0 0 0-5.57 1c-.38.39-.51.06-.68-.15a13 13 0 0 0-4.29-3.36c-1.35-.69-.4-1-2.25-4.93-.51-1.07-.77-2.36-2.52-2.18-.73.09-1.5-.47-2.31-.48a32.6 32.6 0 0 0-12.32 2.47c-2.7 1.07-4.89 2.95-7.24 4.53a30.53 30.53 0 0 0-9.49 10A27.68 27.68 0 0 0 6 138.93C2.91 148.2 7.8 153 9.9 156.09c4.61 6.77 10.09 6.16 8.74 9.13-.79 1.75-.34 2.43 1.47 3.15 3.23 1.28 6.66 1.17 10 1.36 3.94.23 7.91.23 11.84.73 2.5.31 2.91 1 8.76 7.53.31.35.59.89 1.33.78a32.43 32.43 0 0 0-6.89-7.77c4.26 0 4.61-1 5.62-3.71a28.51 28.51 0 0 0 1.5-7c.08-.78.47-2.22-.36-2.33a.53.53 0 0 0-.61.41 11.4 11.4 0 0 0-.41 1.84 31.87 31.87 0 0 1-1.74 7.85c-1.45 3.88-4.35 1.52-11.33 1-2-.13-4.22-1.22-6.2-.18-.55.28-1.64.25-3.9-.33-1-.27-2.09-.92-3-.7-1.5.37-2.67-.22-3.94-.63s-1.35-.5-.74-1.82a2.15 2.15 0 0 0-.53-2.95c-2.52-2.47-7.36-2.78-11.93-12.36-2.7-5.67-1.68-13.37 5.45-19.51 2.73-2.35 5.49-4.63 8.2-7 5.47-4.77 11.86-6.24 18.93-5.4a1.22 1.22 0 0 1 1.12.79 22.78 22.78 0 0 1 1.77 6.53c1.19 10.8-1.26 18.78-4.22 28.55-.07.23-.29.46.09.83 1.52-2.46 2.14-5.23 3.14-8a17.66 17.66 0 0 0 6.87 8.12c.39.24 1 .59 1.27.21s-.41-.71-.73-1a21.76 21.76 0 0 1-6.67-7.81 2.33 2.33 0 0 1-.16-1.79 50.88 50.88 0 0 0 1.66-18.46c0-.27-.19-.59.12-.87a12.89 12.89 0 0 1 5.86 7.52c.28.8 1 1.72.84 2.35s-1.28 1.16-2 1.7a25.21 25.21 0 0 0-5.08 4.76 1.44 1.44 0 0 0-.44 1.47 46.41 46.41 0 0 1 7.62-6.64c.28-.2.53-.57.92-.14a7.12 7.12 0 0 0 2.73 1.7 4 4 0 0 1 2.76 4.1c0 2.54.08 3.89-3.4 2.85-.39-.08-.73-.22-.86.16s.22.51.48.65a4.08 4.08 0 0 0 3.15.35 5.37 5.37 0 0 1-.57 1.89c-1 2.54-2.89 4.51-4.58 6.61a3.31 3.31 0 0 1-1.57 1.16 2 2 0 0 0-1.28 1.3 51.65 51.65 0 0 0-1.64 5.12c-.09.39-.42 1 0 1.16s.7-.51.88-.89a29.72 29.72 0 0 0 1.61-4.71c.13-.48.24-1 .75-1.24a11.86 11.86 0 0 0 2.58-2 14.33 14.33 0 0 0 5.25-9.32c.57-4.28-.54-7.08-4.18-8.42a3.18 3.18 0 0 1-1.21-.88c-.27-.28-.37-.52 0-.79 1.1-.76 2.2-1.55 3.38-2.38a8.45 8.45 0 0 1 0 3.47c0 .16-.25.39 0 .51.47.19.63-.58.71-1.1a13.41 13.41 0 0 0-.68-6.28c-.07-.24-.35-.51-.11-.73.8-.74.25-1.23-.14-5.32-.36-3.61-1.31-7.13-1.26-10.8a27.19 27.19 0 0 0-.61-4.54c-.72-4.76-1.29-9.55-2.21-14.28-.16-.85-.08-1.14.89-1.16 8.88-.18 61.81-1.5 79.4-1.94 1.25 0 1.25 0 1.08 1.17-.38 2.83-.29 5-.43 7.24-.09 1.61-1.21 13.75-1.36 15.35a3.06 3.06 0 0 1-.74-1.34c-.62-1.28-1.5-1.39-2.37-.31-.33.4-.69.79-1.13 1.28-.58-2.2-.61-3-1.41-3s-.85.9-1.35 2.73c-.58-1-1-1.86-1.62-2.67-1.49-2.13-2.11.29-4 3.81-.17.31-.26.75-.74.86-.21-1.51-.2-2.65-1-2.81-.53-.11-.8.25-1 .64-.36.69-.7 1.4-1.07 2.15-.24-.34-.1-.65-.15-.92-.09-.45-.08-1-.58-1.2s-.77.29-1.06.57c-2.76 2.63-2.81 4.84-3.77 3.46-.43-.63-.92-1.23-1.39-1.82-.25-.33-.55-.62-1-.47a1 1 0 0 0-.61.94c-.15 1.66-.35 3.3-.46 5a28.59 28.59 0 0 1-.47 4.38c-.51 2.19-1.2 4.44-.87 6.77.07.55-.08.65-.64.6a2.41 2.41 0 0 0-2.79 2 4.4 4.4 0 0 0 .51 3.73 8.69 8.69 0 0 0 4.34 3.79c.76.29.36 0 6 9.26.1.19.21.52.49.38 1-.47 1.19.32 1.46.92a38.27 38.27 0 0 0 2.62 5 20.74 20.74 0 0 1-2.17.83 2.48 2.48 0 0 0-2.14 2.9c0 .6 0 1.21.11 1.81 0 .41 0 1.27.37 1.2s.26-.81.31-1.22a15.74 15.74 0 0 0 0-2.64 20.35 20.35 0 0 1 1.52 1.39c.27.3.94.45.67 1s-.31 1.58-1.43 1.79a15.44 15.44 0 0 0-4.81 1.57c-.24.13-.66.28-.47.64s.5.07.73 0a113.46 113.46 0 0 1 28.15-4.5 84.05 84.05 0 0 0 9.79-.52 3 3 0 0 1 1.85.83 3.59 3.59 0 0 1 .68.86c4.76 7.41 6.34 10.3 8.63 12 .79.58.29.45 2 7.62a48.65 48.65 0 0 0 1.44 5.23 6 6 0 0 0 2.41 2.44c.21-.37 0-.56-.17-.78-1.16-2-1-1.8-4.11-13.26-.22-.8-.18-.29-3.53-5.59-.19-.33.08-.8-.45-6.56a2.4 2.4 0 0 1 .07-1.37c.8-1.23.82-2.71 1.37-4 .16-.41.16-.9.57-1.29 1 4.14.76 4.19 2.14 3.36 3.28-2 6.54-3.95 9.82-5.92.87-.52 1.84-1.67 2.61-1.36s1 1.69 1.36 2.64c4.84 11.92 4.34 11.51 5.17 11.64a89.2 89.2 0 0 0-5.65-14.13c-.28-.57-.24-.8.31-1.14 2.18-1.36 4.58-2.4 6.47-4.27 1.82 3.9 4.08 7.54 5.95 11.39a3.85 3.85 0 0 0 2.58 2.16c2.81.69 3.41 3 5.12 7.88.15.43.15 1 .8 1.11v-3c-1.05-2.87-1.8-5.78-4.53-6.49Zm-53-30.51a1 1 0 0 1 1.08-.7 1.15 1.15 0 0 1 1.17.88 3.63 3.63 0 0 1-.52 3.4 8.5 8.5 0 0 1-3.36 2.66 55.12 55.12 0 0 1 1.59-6.24Zm-83 1.38a8.81 8.81 0 0 1-.77.47c-.46.22-.9.94-1.33.64s-.54-1.17-.76-1.79c-.12-.33.19-.46.37-.64a6.47 6.47 0 0 0 1.31-2.33c.12-.31.27-.74-.06-.91-.74-.36-1 1.61-2 2.73-1.09-2.14-1.62-2.67-.79-3.38A3.17 3.17 0 0 1 55.6 129c1.12 2.53 1.06 2.72-1.21 4.16Zm48.54-52.84-.09.28c-5.32.26-5.39.41-5.46-.08 0-.23-.1-.55.16-.62 1.42-.38.82-1.68 1.19-2.54a3.93 3.93 0 0 0 .06-.75 18.83 18.83 0 0 0 4.09 3.71ZM97.6 62.75c.28-.24.44 0 .76.23a7.5 7.5 0 0 1 2.35 2.11c.56 1-.57 1.84-.86 2.78-.36 1.16-.85 2.29-1.3 3.43 0 0-.09.08-.25.23-.41-2.72-.48-5.37-1.12-8-.09-.34.16-.53.42-.78Zm-.6-2.47c.46 2.67-2.21.4-6 2.31a42.6 42.6 0 0 1-1.22-7c0-.34 0-.6.37-.8a9.67 9.67 0 0 1 4.5-1.09 1.07 1.07 0 0 1 1.2.92c.43 1.89.85 3.77 1.15 5.66Zm-1.44 20.27c0 .58-.47.44-.8.46l-4.57.25c1-1.75 2-3.29 2.93-4.84l.24.06c.11.58.22 1.14.29 1.71.27 2.17 1.98.81 1.91 2.36ZM83.45 43.36c.83-.34.7.3 1.39 1.43a5.12 5.12 0 0 0 8.62.73c.19-.22.44-.82.81-.47.2.19 0 .27-.14.37-3.23 2.58-4.9 6.35-7.4 4.41-2-1.48-2.73-3.7-3.67-5.82-.18-.39.1-.53.39-.65Zm-2.29.64c.92-.24.62.35 2.09 3.69A7.69 7.69 0 0 0 85.92 51a3.22 3.22 0 0 0 4.3-.07c4.84-4 4.09-5.77 5.48-5.57.78.11.51.1.31 6.46 0 .43-.16.6-.59.54C93 52 91 52.93 89 54c-.36.2-.35.55-.33.87a44.41 44.41 0 0 0 .76 6.91c.23 1 .54 2.11 1.95 2.14.38 0 .33.38.35.61.21 1.71.52 5.59.94 7.7a2.48 2.48 0 0 1-.4 2.13c-.69 1-1.28 2-2 3.11-3.83-11.71-6.58-19.47-9.44-32.15a3.63 3.63 0 0 0-.1-.59c-.13-.42.06-.63.43-.73Zm8.57 34.46c-.24.47-.5.93-.79 1.45-2.31-3.88-7.17-9-8.65-9.94-.32-.21-.4-.37-.18-.7 1.34-2 2.69-4.1 4.25-6.19 4.26 13.74 4.5 14.56 5.34 14.82.38.1.12.38.03.56Zm-14-30.73c1.35-1 2.63-2.11 4-3.22.74 3.26 1.43 6.38 2.19 9.49 1.69 6.86 2.52 7.24 1.15 7.52a19.22 19.22 0 0 0-5.26 2.07c-.7.38-.83.22-.92-.54-.54-4.58-.94-9.16-1.75-13.71a1.42 1.42 0 0 1 .59-1.61Zm-3.48 31.32c1.31-.57 1.47-1.54.33-2.4-.44-.33-1-.52-.58-1.27.19-.37-.15-.76-.39-1.07-1.71-2.28-5.39-2.09-8.22-2.13.68-.82 1.51-1.18 2-1.89s.93-1.16.48-1.89-1.2-.56-1.87-.4a17 17 0 0 0-5.39 2c-.26.14-.53.45-1 .34a17.39 17.39 0 0 1 2.77-10.14 4.26 4.26 0 0 0 .9-2.56 3.39 3.39 0 0 1 1.21-2.53c3.49-3.42 6.13-1.75 10.8-5.48 1.45-1.16.71-1.4 2.58 14.61.11 1 .56 1.2 1.44.75 3-1.54 3.22-1.81 6.16-2.55A62.93 62.93 0 0 0 79 69.13c-.25.45-.47.93.12 1.31 2.77 1.79 6 6.16 8.26 9 .21.25.48.45.69.7s.75 0 .55.61a.89.89 0 0 1-.95.68c-1.23 0-11.18.55-14.93.76-.63 0-1 0-.79-.81s-.33-1.3-.89-1.8c.28-.41.79-.35 1.19-.53ZM49.57 91a1.09 1.09 0 0 1-1.32-1c-1.07-4-2.07-4.66-.7-4.73 1.09 0 85.59-4.44 85.89-4.5.92-.18 1.35.14 1.56 1.11 1.27 6 2.33 6.63.65 6.65-.12.05-82.75 2.32-86.08 2.47Zm54.08 42.88c1-.31 1.43-.07 1.61 1 .39 2.35.95 4.65 1.58 7-3.64-1.49-6.01-7.15-3.19-8.02Zm35.82 23.56c.25 1.07.92 1.93.74 3 .07-1.2-2.09-1.16-.74-3.02Zm-24.76-5.7c0-.39.32-.32.46-.35a35.94 35.94 0 0 1 4.53-.57c-3.27.83-3.4.74-3.26 1.21s-.23-.21 10.3-1.09c.34 0 .78-.06.76-.45s-.47-.39-.8-.39h-2c1.72-.22 3.39-.68 5.07-.15.42.13.41.31.37.69-.15 1.32-.34-1-13.45 2.46a1.68 1.68 0 0 1-1.98-1.38Zm1.31 2.52c15-3.11 6.82-1.34 13.51-2.48.61-.1.86.1 1 .63.21.73.78 1.58.56 2.13s-1.31.31-2 .44c-3.55.68-7.08 1.45-10.56 2.47-1.64.46-.53-1.17-2.53-3.21Zm-1.94 5.74c1.43-.48 2.75-.92 4.27-1.41-.77 1.2-1.42 2.21-2.12 3.28Zm4.51 3.92c-.42.1-.75.1-.91-.31s-1-.78-.58-1.53.9-1.53 1.34-2.3c.19-.33.37-.43.66-.09 1 1.14 1.91 2.26 3 3.51-1.32.26-2.43.46-3.51.73Zm.62-5.59c1.34-.32 2.59-.59 3.82-.93.66-.18.74.43 1.08.67s.15.52 0 .78c-.54 1-1.08 2.12-1.63 3.2-1.07-1.21-2.12-2.4-3.27-3.71Zm7.92 4.1c-1.21.18-2.42.33-3.77.5.59-1.29 1.12-2.44 1.7-3.74.8.94 1.52 1.81 2.25 2.66.29.33.27.53-.18.59Zm3.16-1.65a2.33 2.33 0 0 0-.14.47c-.11.31.23.78-.36.9a1.1 1.1 0 0 1-1.11-.49c-.93-1.07-1.9-2.13-2.83-3.21a1.19 1.19 0 0 1 .54-1.75c.64-.18 1.29-.27 2-.4.46-.14.7.38 1 .64 1.31 1.06 1.98 2.26.9 3.85Zm-.35-4.71a7.61 7.61 0 0 1 2.69-.37c0 .09.05.13 0 .16-.9 2.14-1.2 2.14-2.69.22Zm1.14 6c0-.11-.09-.19-.07-.22.38-.62.53-1.87 1-1.8.75.12 1.26 1 1.89 1.86Zm5.93-1c-.12.66-.45.93-1 .82-.79.14-.79-.22-3.23-2.82-.22-.23-.38-.42-.22-.77.33-.75.63-1.52 1-2.28.62-1.44 1.32.57 3.87 2.82.45.36-.23 1.16-.43 2.16Zm-1.45-5.59c1.67-.17 3.8-.33 3 1.19-.19.37-.32.79-.5 1.25a22 22 0 0 1-2.5-2.52Zm5.13 6.09c-.11.34-.58.14-.89.19a8.65 8.65 0 0 1-.89.08c-1.06.07-1 .06-.73-1 .22-.76.44-1 1.09-.31.18.19.67 1 .94 0a.9.9 0 0 1 .48.96Zm36.31-11.8c-5.55 3.47-16.81 10.61-17 10.69-.43-2.25-.82-4.45-1.25-6.64-.08-.4.12-.53.39-.69a113.68 113.68 0 0 1 17.38-8.34c.66-.29 1.1-.31 1.27.54.07.38.32.73.43 1.11a7.32 7.32 0 0 0 1 1.94 9.81 9.81 0 0 1-2.22 1.39Z" fill="#471280"></path><path d="M117.07 50.91c-3.85-4.07-3.4-5.47-5.24-6.16-1.6-.6 1.2-1 2.06-4.29.1-.34.1-.7-.28-.85s-.52.16-.64.44a18.47 18.47 0 0 1-2.28 3.37c-1.13 1.46-1.27-.15-5.74 1.06-.33.09-.73.22-.67.6.11.65 1.08.1 2.53.14 2.21 0 4.53-.18 6.06 2a45.12 45.12 0 0 0 3.4 3.91 5.91 5.91 0 0 0 3.77 2 3.48 3.48 0 0 1 3.28 2.73 8.42 8.42 0 0 0 1 2.29c.2.32.38.9.8.73s.29-.73.23-1.16a.65.65 0 0 0-.06-.29c-.41-.67-.09-1.12.42-1.54 1-.84 2-1.72 2.95-2.54 4.34-3.55 9.26-6.23 14-9.12.7-.43.38-.1 5 5.32.51.6 1.41 2 1.76 1.92a4.08 4.08 0 0 0 .85-.3 11.76 11.76 0 0 1 5.73-1 18.41 18.41 0 0 0 6-.63c1.23-.49 1.35-1.43.35-2.27-.15-.13-.46-.16-.41-.52a10 10 0 0 0 3-.47 1.26 1.26 0 0 0 1-1.12c.05-1-1.19-1.28-2.77-1.89 1-.46 1.74-.7 1.69-1.47s-.7-.88-4-1.64l.89-.42c.51-.22 1-.49 1-1.12s-.65-.78-1.16-.91c-4.05-1-7.23.52-8.85 1 .76-1 1.77-2 1.08-3-.45-.61-1.13-.45-1.74-.2-3.75 1.51-6.86 3.5-9 6.91-.37.59 0-.12-4.52 2.45-7.27 4.1-10.8 7.13-14.08 10.62a4.58 4.58 0 0 0-4.48-3.13 4.51 4.51 0 0 1-2.93-1.45Zm27-8a4.25 4.25 0 0 1 .68-1 26.72 26.72 0 0 1 6.44-4.64 3.18 3.18 0 0 1 1.4-.47c-.52 1.36-4 3.41-2.71 4.32a.82.82 0 0 0 1.12-.02 12.35 12.35 0 0 1 5.95-2.33 6.16 6.16 0 0 1 3.26.1 50.26 50.26 0 0 1-5 1.66c-.41.14-1.26.24-1.09.9.36 1.45 3.74-1.29 9.36.39a22.93 22.93 0 0 1-4.43.8c-1.93.34-3.11.11-3.07 1 0 .64.59.63 1.06.59a20.36 20.36 0 0 1 6.83.44 1.51 1.51 0 0 1 .79.41 9.36 9.36 0 0 1-3 .42c-3.29.21-4.48-.41-4.6.55-.14 1.2 1.14.35 4.62 2.16a10.75 10.75 0 0 1-3.24.51c-1.59.05-3.19.07-4.79 0-3.58-.16-3.79 1.92-4.69.43a22.15 22.15 0 0 0-4.73-5.35c-.43-.3-.41-.5-.23-.86Z" fill="#471280"></path><path d="M71.73 139.45c-.45.36-.61 1-1.17 1.16a6.43 6.43 0 0 0-3.23 2.69A40.81 40.81 0 0 0 61 156.88c-1.2 4.52-1.27 8.85 1.68 12.84 1.12 1.5.85 3.14.28 4.84a2.78 2.78 0 0 1-2.22 2.14 24.19 24.19 0 0 0-11.38 7.3 7.21 7.21 0 0 0-1.36 2 2.45 2.45 0 0 0-.34 1.77 15.28 15.28 0 0 1 4.6-5.15 28.57 28.57 0 0 1 8.81-5c.37-.13 1-.61 1 .43a6 6 0 0 0 5.44 6.39c.48.07.91.09 1.23-.46-2.5-1.14-4.87-1.77-5.45-4.76a5.78 5.78 0 0 1 .35-3.62 6.92 6.92 0 0 0-1-7.39 8.08 8.08 0 0 1-.48-.87 9.14 9.14 0 0 1-1-6.08 43 43 0 0 1 7.15-17.47 6.26 6.26 0 0 1 2.69-2.38c.37-.12 1.4.4.59-.72-.16-.21.18-.28.32-.37 4.19-2.78 8.66-2.11 10.82-2.53 1.93-.37 0-.68-1.85-.72-3.27-.07-6.45.2-9.15 2.38Z" fill="#471280"></path><path d="M70.48 36.93c1.94 1.47 2.76 1.12 5.2 1.38A1.37 1.37 0 0 1 77 40.26 2.91 2.91 0 0 1 75.75 42a.56.56 0 0 0 .35 1 25.63 25.63 0 0 1 3.41-.63 1.35 1.35 0 0 0-1.08-.37c-1.08.06-.5-.61-.27-1.46.5-2-1.06-3.28-3.09-3.31A10.22 10.22 0 0 1 72.8 37a3.92 3.92 0 0 1-2.73-5.91 8.79 8.79 0 0 1 .93-1.58 6.35 6.35 0 0 0 1.2-6.17 6.57 6.57 0 0 1 1.73-6.61 6.21 6.21 0 0 1 2.32-2 3.62 3.62 0 0 1 2.18-.14 3.27 3.27 0 0 0 3.67-1.58c1.29-1.93 2.11-3.66 5.24-4.77a18.26 18.26 0 0 1 8.36-.82c6.16.75 6.94 2.7 7.76 3 .23.09.48.38.7.11s.07-.57-.14-.8c-1.85-2-3-3.11-7.81-3.62-5.8-.64-10.92.56-14.5 5.65a2.73 2.73 0 0 1-3.14 1.32 4.78 4.78 0 0 0-4.91 1.72c-6.62 7.32.69 9.11-3 14a17.34 17.34 0 0 0-1.42 2.28 4.18 4.18 0 0 0 1.24 5.85Z" fill="#471280"></path><path d="M106.54 187.34a34.88 34.88 0 0 0-3-4.32c-2.63-3.21-3.14-3-2.77-3.81a16.12 16.12 0 0 0 1.05-10.72 12.13 12.13 0 0 1 .55-7.41c1.24-3.21 1.66-5.09-.12-10.64-1.89-5.86-5.35-10.28-11.32-12.4a9.11 9.11 0 0 0-1.14-.3.35.35 0 0 0-.23.66c1.57 1.07 9.48 3 12.82 15.16.66 2.38.83 3.95-1.28 8.51-2.23 4.83.5 7.4-.61 13-1.21 6.16-5.74 9.31-6.86 11.25-.11.2-.32.43-.14.63s.49.08.72-.06a24.2 24.2 0 0 0 5.19-5.2c.79-1.15.8-1.17 1.64 0a73.74 73.74 0 0 1 5.6 8.24c.1.18.14.51.45.43s.19-.38.2-.6a4.21 4.21 0 0 0-.75-2.42Z" fill="#471280"></path><path d="M170.69 127.11c.32-.14.16-.45.08-.69a32.6 32.6 0 0 0-2.23-5.64 53.29 53.29 0 0 0-7.54-10.72c-.54-.59-.54-.77.28-1 3.18-.71 6.37-1.34 9.59-1.77a12.43 12.43 0 0 1 6 .9 20.07 20.07 0 0 1 4.55 2.88 19.87 19.87 0 0 1 7.93 11c1.19 4 .93 7.69-1.34 11.2-3.56 5.55-6 6.84-6.64 8.6a4.32 4.32 0 0 0 2-.95 22.51 22.51 0 0 0 6.66-9c2.18-5.09-.43-10.71-1.69-14.48a10.15 10.15 0 0 0-1.79-3c-2.69-3.44-6.3-5.49-10.29-7a11.59 11.59 0 0 0-5.51-1c-3.42.37-9.15 1-12.25 2.49-.27.12-.64.21-.53.6s.46.35.75.25c.91-.28 1.24.2 3.18 2.67 7.67 9.74 7.7 15.08 8.79 14.66Z" fill="#471280"></path><path d="M109.9 13.86a12.36 12.36 0 0 1 7.63 14.52c-1.67 6.54 4.19 5 2.79 10-.83 2.93-2.22 5.29-5.57 5.77a1.29 1.29 0 0 0-.28.08c-.29.09-.66.12-.66.49s.37.34.6.43c4.37 1.65 8.35-5 7.61-8.8a5.66 5.66 0 0 0-2.67-3.46 2.84 2.84 0 0 1-1.17-3.54 13.7 13.7 0 0 0 .3-7.95C117 14.79 111 12 106.87 11.76c-.29 0-.74-.2-.84.27-.16.74.7.57 3.87 1.83Z" fill="#471280"></path><path d="M147.11 52c-3.19 3.21-6.71 6.07-10 9.2s-6 6.58-8.91 9.94c-.25.28-.67.71-.33 1s.7-.16 1-.39c4.34-3.61 3.93-4.73 11.56-11.82a86 86 0 0 0 7.48-7.31c1.09-1.24.2-1.62-.8-.62Z" fill="#471280"></path><path d="M94.76 23.77a2 2 0 0 1 .44-.25c.34.39.91.9 1.22.68s.18-.88-.06-1.32a2.75 2.75 0 0 1 .88-.85 9.89 9.89 0 0 0 3.69-4.35c.08-.24.2-.57-.08-.72s-.44.21-.57.41a15.26 15.26 0 0 1-5.06 4.38c-.33-.3-1.18-1.11-3.64-.94-2.18.19-3.58 2.25-2.87 2.71s.42-1.86 3.86-1.56a2.36 2.36 0 0 1 1.54.54 4.52 4.52 0 0 1-1.18.9c-5.48 3.21-8.8 1.19-10.11 1-.56-.09-.88.33-.26.67 3.63 1.93 7.17 2.11 12.2-1.3Z" fill="#471280"></path><path d="M171.36 130.19c-.12.29-.18.59.17.78s.38-.15.51-.3a4.23 4.23 0 0 1 4.12-1.47c1.19.23 1.7 1.08 1.43 2.48a9.24 9.24 0 0 1-1.2 3c-1.34 2.18-2.35 2.62-4.85 2.08-1.1-.24-1 .92-.46 1 1.3.24.64 1.22.8 2.62.05.45.1 1.07.67 1s.21-1.71.32-2.42.42-1.11 1.48-1.18a2 2 0 0 0 1-.61 9.7 9.7 0 0 0 3.25-6.31 2.55 2.55 0 0 0-2.08-2.85 5.81 5.81 0 0 0-2.62 0c.14-.93.27-1.75.38-2.56a.36.36 0 0 0-.29-.45c-.26 0-.31.15-.36.36-.58 2.21.21 2.63-.68 3.12a3.48 3.48 0 0 0-1.59 1.71Z" fill="#471280"></path><path d="M95.38 42.6a2.76 2.76 0 0 0 3.82-.54 13.69 13.69 0 0 1 1.23-1.43c.69-.74.67-.8-.24-1.18-1.69-.7-3.52-1-5.17-1.79a5.81 5.81 0 0 0-1.77-.61c-1-.13-1.43.38-1.11 1.28a7.61 7.61 0 0 0 3.24 4.27Zm3.35-2.4c.29.07.41.2.22.56a1.8 1.8 0 0 1-2.78.77 5.84 5.84 0 0 1-2.57-3.2 34.56 34.56 0 0 0 5.13 1.87Z" fill="#471280"></path><path d="M82.94 32c.18-.18.06-.36 0-.55-1.32-2.55-3.31-5-5.43-3a5.06 5.06 0 0 0-1.66 5A4.51 4.51 0 0 0 79 36.7a3.22 3.22 0 0 0 2.46 0 19.63 19.63 0 0 1-2-.92c-2-1.22-2.75-2.69-2.2-4.62a2.59 2.59 0 0 1 1.72-2c.85-.22 1.29.66 1.82 1.17s1.62 2.23 2.14 1.67Z" fill="#471280"></path><path d="M20.61 168.85c-1-.12-2.65 1.45-3.26 2.25A49 49 0 0 0 10 184.9c0 .38 0 .69.33.74s.28-.28.37-.48c1.53-3.24 6.6-14.38 10-15.67.18-.07.44 0 .38-.31s-.26-.3-.47-.33Z" fill="#471280"></path><path d="M102.57 16.84c0-.57-.6-.56-.65 0-.45 4.54 9.68 5.44 9.25 10.89a11.78 11.78 0 0 1-1.06 3.93c-.09.18-.4.38-.14.6s.5-.07.67-.23a7 7 0 0 0 1.55-4.63c.21-3.73-4.16-5.48-7.74-7.94-.95-.63-1.89-1.29-1.88-2.62Z" fill="#471280"></path><path d="M109 167.72c-.36-.13-.51.21-.69.55a30.48 30.48 0 0 0-4.31 12.21 2.28 2.28 0 0 0 .7 2.13c-.06-4.55 2.5-10.16 4.18-14 .12-.28.49-.7.12-.89Z" fill="#471280"></path><path d="M155.16 115.42c-.11.18-.33.38-.1.62s.29.07.47-.08c3-2.52 5.51.15 5.92 4.23.25 2.54.19 3 .59 3s.48-.77.59-2.46c0-.43 0-.86-.08-1.29-.31-2.07-1-4-3-5a3.68 3.68 0 0 0-4.39.98Z" fill="#471280"></path><path d="M172.33 127.33c-.05-3.83-1.82-7.08-3.71-10.27a2.34 2.34 0 0 0-.25-.3c-.17-.2-.39-.3-.61-.15-.46.29.19.84.86 2.17 3.58 7.08 2.34 9.76 3.34 9.71.62 0 .28-.67.37-1.05a.4.4 0 0 0 0-.11Z" fill="#471280"></path><path d="M187.51 166.28c-3.11.78-11.22 5.33-12.81 6.64-.18.16-.34.35-.1.59.4.38.07-.54 13-6.63.17-.09.4-.06.42-.36s-.32-.28-.51-.24Z" fill="#471280"></path><path d="M183.73 176.93c-.71-.09-.53 1-1.6 2a94.81 94.81 0 0 1-7.45 6.59c-.2.18-.56.4-.27.72s.48 0 .69-.14c2.18-1.74 6.59-5 8.44-7.81a2 2 0 0 0 .44-1c.02-.17-.04-.29-.25-.36Z" fill="#471280"></path><path d="M43 163.85c-1.23-.17-2.46-.31-3.69-.45-4.39-.49-8.93-1-13.19-2.62a.24.24 0 0 0-.31.13.24.24 0 0 0 .11.32c5.08 2.58 10.44 3.11 16.91 3.11H43a.25.25 0 0 0 .25-.23.24.24 0 0 0-.25-.26Z" fill="#471280"></path><path d="M91.81 30.64c.78.12 1-.54 1.17-1.1a7.89 7.89 0 0 0 .29-3.24c-.09-.65-.35-.83-.91-.4A3.57 3.57 0 0 0 91 29c0 .75 0 1.52.81 1.64Z" fill="#471280"></path><path d="M102.8 36.25a3 3 0 0 0-1.47-2.44c-.24-.06-.49-.08-.63.14s.06.44.28.6a1.82 1.82 0 0 1 .72 1.45c.06 1.51-1 1.32-2.4.84-.26-.08-.53-.25-.71 0s.09.44.21.63a2.35 2.35 0 0 0 2.58.81 2.12 2.12 0 0 0 1.42-2.03Z" fill="#471280"></path><path d="M155.4 133.07c-2.1 1.33-3.55 3-4.5 1.15-.13-.25-.19-.55-.52-.45s-.33.45-.3.74a2.26 2.26 0 0 0 3.67 1.12 9.07 9.07 0 0 0 2.2-2c.19-.24.66-.5.42-.79s-.68.06-.97.23Z" fill="#471280"></path><path d="M107.57 26.29a10.65 10.65 0 0 1 .24 1.15c0 .1.06 1.06.67.11a2.6 2.6 0 0 0-.48-3.05 2.57 2.57 0 0 0-3.42-.21c-.34.35-.58.76-.25 1.24.14.21.26.33.53 0 1.02-1.05 2.3-.71 2.71.76Z" fill="#471280"></path><path d="M94.08 179.09c-.22-.74-.76.06-.88.6a9.33 9.33 0 0 1-3.56 5.95 4.93 4.93 0 0 0 .71 0c2.3-.55 4.42-4.28 3.73-6.55Z" fill="#471280"></path><path d="M177.86 140.68a12.71 12.71 0 0 0-3.27.24c-.41.09-1 .1-.91.69s.62.47 1 .44c.76-.05 4.47-.31 5.56-.41.19 0 .52 0 .53-.32s-.27-.33-.49-.4a7.47 7.47 0 0 0-2.42-.24Z" fill="#471280"></path><path d="M155.83 123.91c.53-1.16 1.32-2.3.5-3.67-.11-.2-.09-.45-.4-.47a.51.51 0 0 0-.46.31 14.64 14.64 0 0 0-1.17 3.3c0 .46.12.81.52 1a.76.76 0 0 0 1.01-.47Z" fill="#471280"></path><path d="M105.86 29.71c-.7-.18-1.08.36-1.36.91a5.06 5.06 0 0 0-.42 2c0 .44.06.89.57 1s.81-.17 1.07-.53a3.4 3.4 0 0 0 .53-2.27c-.1-.28.31-.94-.39-1.11Z" fill="#471280"></path><path d="M183.92 135.62c.18-.32.65-.66.1-1s-.73.15-1 .46c-.53.74-.71 1.22-2.62 5.23 1.17-.08 1.28-.67 3.52-4.69Z" fill="#471280"></path><path d="M68.27 178.85c-.08-.27.2-.77-.35-.75s-.49.46-.49.83c0 2.41 3.59 5.34 4.93 4.18-2.31-.54-3.42-2.18-4.09-4.26Z" fill="#471280"></path><path d="M79.91 33a.37.37 0 1 0 .28.69c.62-.16 1.22-.32 1.69.32a.23.23 0 0 0 .35 0c.67-.73-2-3.29-3-3.28-.35 0-.68.07-.74.49s.3.42.6.43a1.34 1.34 0 0 1 .77.42c.29.32.93.6.05.93Z" fill="#471280"></path><path d="M184.32 183a.25.25 0 0 0-.3-.08 21.77 21.77 0 0 0-6.4 4.08.25.25 0 0 0 0 .32.26.26 0 0 0 .21.11.2.2 0 0 0 .11 0l.87-.43a17.79 17.79 0 0 0 5.53-3.65.26.26 0 0 0-.02-.35Z" fill="#471280"></path><path d="M83.84 29.42c.34-.12 1 0 1-.55 0-.36-.31-.43-.62-.49-1.4-.28-1.88-.92-2.19-.43a.58.58 0 0 0 .13.72 2.36 2.36 0 0 0 1.68.75Z" fill="#471280"></path><path d="M127.38 59.29c-.19-1 .65-.87.86-.23a7.89 7.89 0 0 1 .37 1.91c.06.7-.78.57-.83.15s-.3-1.3-.4-1.83Z" fill="#471280"></path></g></g></g></svg>